<svg width="152" height="152" viewBox="0 0 152 152" fill="none" xmlns="http://www.w3.org/2000/svg">
<path d="M80.5923 93.1047C77.8745 93.1047 75.5852 95.2587 75.5852 98.3712C75.5852 101.484 77.8745 103.643 80.5923 103.643C83.3101 103.643 85.6332 101.523 85.6332 98.3712C85.6589 97.6916 85.5478 97.0138 85.3064 96.3781C85.065 95.7423 84.6983 95.1616 84.2281 94.6703C83.7579 94.1791 83.1937 93.7873 82.5692 93.5184C81.9446 93.2494 81.2723 93.1088 80.5923 93.1047Z" fill="#191C1D" fill-opacity="0.39"/>
<path d="M76.0027 2.0926e-07C60.9705 -0.00111502 46.2756 4.45542 33.7763 12.806C21.2769 21.1567 11.5346 33.0263 5.78123 46.9139C0.0278862 60.8015 -1.47803 76.0833 1.45392 90.8268C4.38587 105.57 11.624 119.113 22.253 129.743C32.8819 140.373 46.4243 147.612 61.1676 150.545C75.9108 153.478 91.1928 151.973 105.081 146.221C118.969 140.468 130.839 130.727 139.191 118.228C147.542 105.73 152 91.035 152 76.0028C152 55.8466 143.993 36.5158 129.741 22.2627C115.489 8.00957 96.1589 0.00149559 76.0027 2.0926e-07ZM100.886 44.7818L101.309 49.9186C101.532 51.999 100.935 54.0844 99.6454 55.732C98.556 57.5051 98.0019 59.5551 98.0497 61.6356C98.0497 61.8443 98.0497 62.0473 98.0497 62.2559C98.0497 64.6523 99.2732 72.1629 99.2732 72.1629H100.514V61.0154H101.811L102.318 72.1629H103.66L104.173 61.0154H105.47V72.1742H106.711C106.711 72.1742 107.934 64.6636 107.934 62.2672C107.934 62.0585 107.934 61.8555 107.934 61.6469C107.981 59.5673 107.429 57.518 106.344 55.7433C105.044 54.0999 104.437 52.0141 104.652 49.9299L105.075 44.7931C112.981 45.8983 115.591 53.3582 115.591 62.5886C115.591 72.5858 112.507 80.6321 102.995 80.6321C93.4824 80.6321 90.3981 72.5915 90.3981 62.5886C90.4094 53.3582 93.0369 45.8926 100.886 44.7818ZM73.2567 44.7818L73.7529 52.3883C73.9683 54.4743 73.3614 56.562 72.0613 58.2074C70.9793 59.9829 70.4312 62.0324 70.4825 64.111C70.4825 68.5599 72.7041 72.1629 75.4388 72.1629C78.1736 72.1629 80.3952 68.5599 80.3952 64.111C80.4454 62.0343 79.8973 59.9869 78.8164 58.213C77.5179 56.5668 76.9112 54.4797 77.1248 52.394L77.621 44.7875C85.4079 45.9152 88.0186 53.3864 88.0186 62.5717C88.0186 72.5689 84.9343 80.6152 75.4219 80.6152C65.9096 80.6152 62.8253 72.5745 62.8253 62.5717C62.8647 53.3864 65.4754 45.9434 73.268 44.7875L73.2567 44.7818ZM46.5917 62.91C44.3121 62.9082 42.0647 63.4473 40.034 64.4831L37.7786 63.3554L39.0416 48.5484C39.239 46.2479 40.0227 45.216 42.3289 45.216H55.168C57.4742 45.216 58.5061 46.2479 58.5061 48.5484V53.8431H52.6701V51.7342C52.6852 51.5891 52.6676 51.4425 52.6188 51.305C52.57 51.1675 52.4912 51.0426 52.388 50.9394C52.2848 50.8362 52.1599 50.7574 52.0224 50.7086C51.8849 50.6598 51.7383 50.6422 51.5932 50.6573H45.8587C45.7142 50.6453 45.5689 50.665 45.4328 50.7149C45.2967 50.7647 45.1731 50.8437 45.0706 50.9462C44.9681 51.0487 44.8892 51.1723 44.8393 51.3084C44.7894 51.4445 44.7698 51.5898 44.7817 51.7342L44.3363 56.5383C44.2404 57.4687 44.0938 58.1566 44.0938 58.1566H44.1897C45.3701 57.7364 46.6131 57.5191 47.866 57.5138C55.856 57.5138 60.6093 62.5886 60.6093 68.9376C60.6093 74.9935 55.856 80.6321 47.7194 80.6321C45.5989 80.6547 43.4969 80.2352 41.5474 79.4003C39.598 78.5654 37.8439 77.3334 36.3971 75.7829L39.6337 70.9281C40.6551 72.0652 41.9008 72.9788 43.2922 73.6115C44.6837 74.2442 46.191 74.5822 47.7194 74.6044C51.5932 74.6044 54.0911 72.005 54.0911 68.8192C54.0911 64.9737 50.5613 62.91 46.5917 62.91ZM44.8607 107.224C39.2897 107.224 35.7092 103.277 35.7092 98.3712C35.7092 93.6009 39.1544 89.5242 44.9565 89.5242C47.1443 89.5242 51.0913 90.4207 51.0913 93.3359V95.3263H47.3642V94.396C47.3642 93.4656 45.9715 93.0709 44.9452 93.0709C42.0301 93.0709 39.9438 95.2925 39.9438 98.3373C39.9438 101.788 42.4924 103.542 45.2103 103.542C48.0972 103.542 50.2173 101.286 50.2173 101.286L51.971 104.202C51.058 105.168 49.9551 105.935 48.7315 106.455C47.508 106.976 46.1901 107.237 44.8607 107.224ZM116.291 93.4994H115.828C115.626 93.4645 115.419 93.5065 115.247 93.6171C115.074 93.7278 114.95 93.8991 114.898 94.0971L110.855 106.823H106.119L103.232 97.1814C103.061 96.5817 102.929 95.9714 102.837 95.3545H102.769C102.656 95.9706 102.511 96.5804 102.335 97.1814L99.4875 106.823H94.7285L90.6856 94.0971C90.5221 93.6009 90.2571 93.4994 89.7609 93.4994H88.4528C89.4044 94.9449 89.9049 96.6406 89.8906 98.3712C89.8906 103.576 85.7801 107.224 80.6095 107.224C79.6443 107.225 78.6838 107.09 77.7563 106.823H67.3023C65.7404 106.823 65.0807 106.164 65.0807 104.568V96.8149C65.0807 94.7625 64.5169 93.3697 62.3967 93.3697C61.3539 93.3719 60.3407 93.717 59.5134 94.3518C58.686 94.9866 58.0903 95.8759 57.8182 96.8826C57.6248 97.5953 57.5356 98.3321 57.5532 99.0704V106.823H53.3468V83.2935H55.2977C56.8596 83.2935 57.5532 83.9871 57.5532 85.5095V91.447C57.5548 91.9233 57.5322 92.3995 57.4855 92.8735H57.5532C58.1209 91.8375 58.9622 90.9772 59.9853 90.3866C61.0085 89.7959 62.1742 89.4976 63.3553 89.5242C67.1332 89.5242 69.2533 91.4808 69.2533 95.9522V102.549C69.2435 102.648 69.2558 102.747 69.2893 102.84C69.3227 102.933 69.3765 103.018 69.4467 103.088C69.5169 103.157 69.6018 103.21 69.6952 103.243C69.7885 103.276 69.888 103.287 69.9863 103.277H72.8056C71.8423 101.824 71.3374 100.115 71.3565 98.3712C71.3565 93.2006 75.467 89.5242 80.6038 89.5242C81.5705 89.5214 82.5328 89.6542 83.4626 89.9189H92.1742C93.567 89.9189 94.2267 90.3531 94.5594 91.6443L97.046 101.027C97.1937 101.615 97.3048 102.212 97.3787 102.814H97.4407C97.5376 102.211 97.6713 101.614 97.841 101.027L100.931 89.9866H104.641L107.788 101.027C107.956 101.612 108.078 102.21 108.154 102.814H108.261C108.332 102.212 108.443 101.615 108.594 101.027L111.047 91.6443C111.374 90.3531 112.039 89.9189 113.432 89.9189H116.313L116.291 93.4994Z" fill="#191C1D" fill-opacity="0.39"/>
</svg>
