<svg width="525" height="392" viewBox="0 0 525 392" fill="none" xmlns="http://www.w3.org/2000/svg">
<path d="M525 344.52H0V344.782H525V344.52Z" fill="#EBEBEB"/>
<path d="M472.395 361.414H444.854V361.677H472.395V361.414Z" fill="#EBEBEB"/>
<path d="M374.598 358.002H338.656V358.265H374.598V358.002Z" fill="#EBEBEB"/>
<path d="M436.558 351.671H408.796V351.933H436.558V351.671Z" fill="#EBEBEB"/>
<path d="M116.434 353.435H71.085V353.697H116.434V353.435Z" fill="#EBEBEB"/>
<path d="M61.7295 353.435H55.083V353.697H61.7295V353.435Z" fill="#EBEBEB"/>
<path d="M197.053 357.866H138.043V358.128H197.053V357.866Z" fill="#EBEBEB"/>
<path d="M248.85 297.69H46.1056C44.5173 297.687 42.995 297.054 41.8729 295.93C40.7508 294.806 40.1206 293.283 40.1206 291.695V6.693C40.1344 5.11383 40.7708 3.60388 41.8914 2.49113C43.012 1.37838 44.5264 0.752705 46.1056 0.75H248.85C250.44 0.75 251.965 1.38167 253.09 2.50604C254.214 3.63042 254.846 5.15539 254.846 6.7455V291.695C254.846 293.285 254.214 294.81 253.09 295.934C251.965 297.058 250.44 297.69 248.85 297.69ZM46.1056 0.960001C44.5869 0.962782 43.1314 1.56802 42.0585 2.64286C40.9857 3.71771 40.3831 5.17433 40.3831 6.693V291.695C40.3831 293.213 40.9857 294.67 42.0585 295.745C43.1314 296.819 44.5869 297.425 46.1056 297.428H248.85C250.37 297.425 251.826 296.82 252.901 295.745C253.975 294.671 254.58 293.214 254.583 291.695V6.693C254.58 5.17337 253.975 3.71677 252.901 2.64222C251.826 1.56768 250.37 0.962776 248.85 0.960001H46.1056Z" fill="#EBEBEB"/>
<path d="M475.976 297.69H273.221C271.631 297.687 270.108 297.055 268.984 295.931C267.86 294.807 267.228 293.284 267.225 291.695V6.693C267.242 5.11287 267.88 3.60293 269.003 2.49047C270.125 1.37801 271.64 0.752676 273.221 0.75H475.976C477.553 0.755465 479.065 1.38236 480.183 2.49481C481.301 3.60727 481.936 5.11564 481.95 6.693V291.695C481.95 293.281 481.321 294.803 480.202 295.927C479.082 297.05 477.562 297.684 475.976 297.69ZM273.221 0.960001C271.701 0.962776 270.244 1.56768 269.17 2.64222C268.095 3.71677 267.49 5.17337 267.488 6.693V291.695C267.49 293.214 268.095 294.671 269.17 295.745C270.244 296.82 271.701 297.425 273.221 297.428H475.976C477.495 297.425 478.952 296.82 480.026 295.745C481.101 294.671 481.706 293.214 481.709 291.695V6.693C481.706 5.17337 481.101 3.71677 480.026 2.64222C478.952 1.56768 477.495 0.962776 475.976 0.960001H273.221Z" fill="#EBEBEB"/>
<path d="M354.837 30.633H69.9509V193.845H354.837V30.633Z" fill="#E6E6E6"/>
<path d="M359.079 30.633H71.9355V193.845H359.079V30.633Z" fill="#F0F0F0"/>
<path d="M353.146 187.177V37.29L77.868 37.29V187.177L353.146 187.177Z" fill="#FAFAFA"/>
<path d="M111.657 187.177L146.464 37.29H192.108L157.29 187.177H111.657Z" fill="white"/>
<path d="M164.682 187.177L199.49 37.29H220.101L185.294 187.177H164.682Z" fill="white"/>
<path d="M246.456 187.177L281.274 37.29H316.481L281.663 187.177H246.456Z" fill="white"/>
<path d="M353.146 187.188V37.3005H352.39V187.188H353.146Z" fill="#E6E6E6"/>
<path d="M224.07 30.633H206.955V193.845H224.07V30.633Z" fill="#F0F0F0"/>
<path d="M206.955 187.177V37.29H206.199V187.177H206.955Z" fill="#E6E6E6"/>
<path d="M215.806 30.633H215.208V193.845H215.806V30.633Z" fill="#E6E6E6"/>
<g opacity="0.7">
<path opacity="0.7" d="M337.47 153.41H364.854V21.9915H337.47V153.41Z" fill="#EBEBEB"/>
<path opacity="0.7" d="M337.47 21.981H319.736V138.059H337.47V21.981Z" fill="#E0E0E0"/>
<path opacity="0.7" d="M292.352 153.41H319.736V21.9915H292.352V153.41Z" fill="#EBEBEB"/>
<path opacity="0.7" d="M292.352 21.981H274.617V138.059H292.352V21.981Z" fill="#E0E0E0"/>
<path opacity="0.7" d="M247.233 153.41H274.617V21.9915H247.233L247.233 153.41Z" fill="#EBEBEB"/>
<path opacity="0.7" d="M247.233 21.981H229.499V138.059H247.233V21.981Z" fill="#E0E0E0"/>
<path opacity="0.7" d="M202.115 153.41H229.499L229.499 21.9915H202.115L202.115 153.41Z" fill="#EBEBEB"/>
<path opacity="0.7" d="M202.115 21.981H184.38V138.059H202.115V21.981Z" fill="#E0E0E0"/>
<path opacity="0.7" d="M156.996 153.41H184.38L184.38 21.9915H156.996L156.996 153.41Z" fill="#EBEBEB"/>
<path opacity="0.7" d="M156.996 21.981H139.261V138.059H156.996V21.981Z" fill="#E0E0E0"/>
<path opacity="0.7" d="M111.877 153.41H139.261L139.261 21.9915H111.877L111.877 153.41Z" fill="#EBEBEB"/>
<path opacity="0.7" d="M66.7591 153.41H94.1431L94.1431 21.9915H66.7591L66.7591 153.41Z" fill="#EBEBEB"/>
<path opacity="0.7" d="M111.878 21.981H94.1431V138.059H111.878V21.981Z" fill="#E0E0E0"/>
</g>
<path d="M454.85 241.546H419.622V344.52H454.85V241.546Z" fill="#E6E6E6"/>
<path d="M445.431 344.52H454.839V326.754H435.572L445.431 344.52Z" fill="#F5F5F5"/>
<path d="M239.411 241.546H204.183V344.52H239.411V241.546Z" fill="#E6E6E6"/>
<path d="M454.839 241.546H231.199V338.398H454.839V241.546Z" fill="#F5F5F5"/>
<path d="M240.597 344.52H231.199V326.754H250.467L240.597 344.52Z" fill="#F5F5F5"/>
<path d="M447.552 250.041H238.497V285.888H447.552V250.041Z" fill="#E6E6E6"/>
<path d="M447.552 293.563H238.497V329.41H447.552V293.563Z" fill="#E6E6E6"/>
<path d="M415.832 86.4615H469.665V77.8305H415.832V86.4615Z" fill="#F0F0F0"/>
<path d="M415.842 77.8305H390.169V86.4615H415.842V77.8305Z" fill="#E6E6E6"/>
<path d="M416.829 86.4615H442.754L423.854 98.799H416.829V86.4615Z" fill="#EBEBEB"/>
<path d="M414.12 86.4615H440.045L421.145 98.799H414.12V86.4615Z" fill="#E0E0E0"/>
<path d="M436.065 77.8305H452.917V40.8705H436.065V77.8305Z" fill="#E6E6E6"/>
<path d="M457.789 40.86H452.917V77.82H457.789V40.86Z" fill="#F0F0F0"/>
<path d="M414.351 44.1255H436.065L441.305 77.8305H419.58L414.351 44.1255Z" fill="#E6E6E6"/>
<path d="M442.344 44.1255H436.065L441.304 77.8305H447.583L442.344 44.1255Z" fill="#F0F0F0"/>
<path d="M404.334 77.8305H428.946V39.6315H404.334V77.8305Z" fill="#EBEBEB"/>
<path d="M436.065 39.6315H428.946V77.8305H436.065V39.6315Z" fill="#F5F5F5"/>
<path d="M423.234 77.8305H422.184V54.8355C422.184 53.8855 421.997 52.9447 421.633 52.067C421.27 51.1892 420.737 50.3917 420.065 49.7199C419.393 49.0481 418.596 48.5153 417.718 48.1517C416.84 47.7881 415.9 47.601 414.95 47.601C414 47.601 413.059 47.7881 412.181 48.1517C411.303 48.5153 410.506 49.0481 409.834 49.7199C409.162 50.3917 408.629 51.1892 408.266 52.067C407.902 52.9447 407.715 53.8855 407.715 54.8355V77.8305H406.665V54.8355C406.665 53.7476 406.879 52.6703 407.296 51.6652C407.712 50.66 408.322 49.7468 409.092 48.9775C409.861 48.2082 410.774 47.598 411.779 47.1816C412.784 46.7653 413.862 46.551 414.95 46.551C416.037 46.551 417.115 46.7653 418.12 47.1816C419.125 47.598 420.038 48.2082 420.808 48.9775C421.577 49.7468 422.187 50.66 422.603 51.6652C423.02 52.6703 423.234 53.7476 423.234 54.8355V77.8305Z" fill="#E0E0E0"/>
<path d="M415.832 161.337H469.665V152.706H415.832V161.337Z" fill="#F0F0F0"/>
<path d="M415.842 152.696H390.169V161.326H415.842V152.696Z" fill="#E6E6E6"/>
<path d="M416.829 161.326H442.754L423.854 173.675H416.829V161.326Z" fill="#EBEBEB"/>
<path d="M414.12 161.326H440.045L421.145 173.675H414.12V161.326Z" fill="#E0E0E0"/>
<path d="M430.322 152.696H454.934V125.364H430.322V152.696Z" fill="#E0E0E0"/>
<path d="M461.244 125.364H454.934V152.696H461.244V125.364Z" fill="#F0F0F0"/>
<path d="M422.709 152.695H443.803V117.636H422.709V152.695Z" fill="#E0E0E0"/>
<path d="M448.098 117.636H443.803V152.696H448.098V117.636Z" fill="#EBEBEB"/>
<path d="M415.905 152.696H434.396V121.143H415.905V152.696Z" fill="#E6E6E6"/>
<path d="M439.74 121.154H434.396V152.706H439.74V121.154Z" fill="#F0F0F0"/>
<path d="M404.334 152.696H428.946V125.364H404.334V152.696Z" fill="#F0F0F0"/>
<path d="M432.506 125.364H428.946V152.696H432.506V125.364Z" fill="#FAFAFA"/>
<path d="M423.234 152.696H422.184V129.711C422.184 127.792 421.422 125.952 420.065 124.595C418.708 123.239 416.868 122.477 414.95 122.477C413.031 122.477 411.191 123.239 409.834 124.595C408.477 125.952 407.715 127.792 407.715 129.711V152.696H406.665V129.711C406.665 127.514 407.538 125.407 409.092 123.853C410.645 122.299 412.752 121.427 414.95 121.427C417.147 121.427 419.254 122.299 420.808 123.853C422.361 125.407 423.234 127.514 423.234 129.711V152.696Z" fill="#E0E0E0"/>
<path d="M159.285 258.756H150.224V344.52H159.285V258.756Z" fill="#F5F5F5"/>
<path d="M163.233 258.756H155.347V344.52H163.233V258.756Z" fill="#F0F0F0"/>
<path d="M67.9245 258.756H58.863V344.52H67.9245V258.756Z" fill="#F5F5F5"/>
<path d="M71.8726 258.756H63.9871V344.52H71.8726V258.756Z" fill="#F0F0F0"/>
<path d="M193.641 258.756H184.58V344.52H193.641V258.756Z" fill="#F5F5F5"/>
<path d="M197.578 258.756H189.693V344.52H197.578V258.756Z" fill="#F0F0F0"/>
<path d="M102.28 258.756H93.219V344.52H102.28V258.756Z" fill="#F5F5F5"/>
<path d="M58.8734 260.919H197.589V250.041L58.8734 250.041V260.919Z" fill="#F0F0F0"/>
<path d="M58.8735 260.919H98.343V250.041H58.8735V260.919Z" fill="#E6E6E6"/>
<path d="M106.229 258.756H98.343V344.52H106.229V258.756Z" fill="#F0F0F0"/>
<path d="M262.5 391.938C374.937 391.938 466.085 386.616 466.085 380.052C466.085 373.488 374.937 368.166 262.5 368.166C150.063 368.166 58.9155 373.488 58.9155 380.052C58.9155 386.616 150.063 391.938 262.5 391.938Z" fill="#F5F5F5"/>
<path d="M407.011 380.315H197.074V327.668H407.011C408.092 327.668 409.128 328.097 409.892 328.861C410.656 329.625 411.085 330.661 411.085 331.742V376.241C411.085 377.321 410.656 378.357 409.892 379.121C409.128 379.885 408.092 380.315 407.011 380.315Z" fill="#90CAF9"/>
<path opacity="0.2" d="M407.011 380.315H197.074V327.668H407.011C408.092 327.668 409.128 328.097 409.892 328.861C410.656 329.625 411.085 330.661 411.085 331.742V376.241C411.085 377.321 410.656 378.357 409.892 379.121C409.128 379.885 408.092 380.315 407.011 380.315Z" fill="black"/>
<path opacity="0.2" d="M248.546 380.315H280.665V327.668H248.546V380.315Z" fill="black"/>
<path opacity="0.2" d="M294.462 380.315H310.748V327.668H294.462V380.315Z" fill="black"/>
<path d="M127.533 327.667H197.064V380.314H127.533C126.447 380.314 125.405 379.883 124.637 379.115C123.869 378.347 123.438 377.306 123.438 376.219V331.762C123.438 330.676 123.869 329.635 124.637 328.867C125.405 328.099 126.447 327.667 127.533 327.667Z" fill="#90CAF9"/>
<path opacity="0.9" d="M123.438 333.327H184.264C185.682 333.327 187.041 333.89 188.044 334.892C189.046 335.895 189.609 337.254 189.609 338.671V369.3C189.609 370.717 189.046 372.077 188.044 373.079C187.041 374.081 185.682 374.644 184.264 374.644H123.438V333.327Z" fill="white"/>
<path opacity="0.2" d="M381.664 369.048C389.98 369.048 396.721 362.307 396.721 353.991C396.721 345.675 389.98 338.934 381.664 338.934C373.349 338.934 366.607 345.675 366.607 353.991C366.607 362.307 373.349 369.048 381.664 369.048Z" fill="black"/>
<path d="M422.216 327.625L212.216 327.625V289.416H422.216C423.296 289.416 424.332 289.845 425.096 290.609C425.86 291.373 426.29 292.409 426.29 293.49V323.593C426.278 324.667 425.844 325.692 425.082 326.447C424.319 327.202 423.289 327.626 422.216 327.625Z" fill="#263238"/>
<path opacity="0.2" d="M422.216 327.625L212.216 327.625V289.416H422.216C423.296 289.416 424.332 289.845 425.096 290.609C425.86 291.373 426.29 292.409 426.29 293.49V323.593C426.278 324.667 425.844 325.692 425.082 326.447C424.319 327.202 423.289 327.626 422.216 327.625Z" fill="black"/>
<path d="M142.727 289.5H212.258V327.71H142.727C141.641 327.71 140.599 327.278 139.831 326.51C139.063 325.742 138.632 324.701 138.632 323.614V293.553C138.643 292.474 139.079 291.443 139.846 290.685C140.612 289.926 141.648 289.5 142.727 289.5Z" fill="#263238"/>
<path opacity="0.9" d="M138.6 295.117H199.5C200.918 295.117 202.277 295.681 203.279 296.683C204.282 297.685 204.845 299.045 204.845 300.462V316.684C204.847 317.388 204.711 318.085 204.444 318.736C204.176 319.387 203.783 319.979 203.287 320.477C202.79 320.976 202.2 321.371 201.55 321.641C200.9 321.911 200.204 322.05 199.5 322.05H138.6V295.117Z" fill="white"/>
<path opacity="0.3" d="M256.211 318.617H403.106C405.535 318.617 407.505 316.647 407.505 314.217V302.898C407.505 300.468 405.535 298.499 403.106 298.499H256.211C253.781 298.499 251.811 300.468 251.811 302.898V314.217C251.811 316.647 253.781 318.617 256.211 318.617Z" fill="#90CAF9"/>
<path opacity="0.3" d="M220.227 327.667H225.802V289.458H220.227V327.667Z" fill="#90CAF9"/>
<path opacity="0.3" d="M230.402 327.667H235.977V289.458H230.402V327.667Z" fill="#90CAF9"/>
<path d="M398.968 289.458H189.042V249.999L398.968 249.999C400.049 249.999 401.085 250.428 401.849 251.192C402.613 251.956 403.042 252.993 403.042 254.073V285.384C403.042 286.465 402.613 287.501 401.849 288.265C401.085 289.029 400.049 289.458 398.968 289.458Z" fill="#90CAF9"/>
<path opacity="0.3" d="M398.968 289.458H189.042V249.999L398.968 249.999C400.049 249.999 401.085 250.428 401.849 251.192C402.613 251.956 403.042 252.993 403.042 254.073V285.384C403.042 286.465 402.613 287.501 401.849 288.265C401.085 289.029 400.049 289.458 398.968 289.458Z" fill="black"/>
<path opacity="0.9" d="M240.513 289.458H313.404V250.041H240.513V289.458Z" fill="white"/>
<path opacity="0.9" d="M344.715 289.458H381.675V250.041H344.715V289.458Z" fill="white"/>
<path d="M119.511 250.041H189V289.5H119.511C118.973 289.5 118.441 289.394 117.944 289.188C117.447 288.982 116.996 288.681 116.615 288.301C116.235 287.92 115.934 287.469 115.728 286.972C115.522 286.475 115.416 285.943 115.416 285.405V254.136C115.416 253.598 115.522 253.066 115.728 252.569C115.934 252.072 116.235 251.621 116.615 251.24C116.996 250.86 117.447 250.558 117.944 250.353C118.441 250.147 118.973 250.041 119.511 250.041Z" fill="#90CAF9"/>
<path opacity="0.9" d="M115.416 255.69H176.243C177.66 255.69 179.019 256.253 180.022 257.255C181.024 258.258 181.587 259.617 181.587 261.035V278.454C181.587 279.871 181.024 281.231 180.022 282.233C179.019 283.235 177.66 283.799 176.243 283.799H115.416V255.69Z" fill="white"/>
<path d="M414.152 250.041L204.225 250.041V223.896L414.152 223.896C415.232 223.896 416.268 224.325 417.032 225.089C417.796 225.853 418.226 226.89 418.226 227.97V245.967C418.226 247.048 417.796 248.084 417.032 248.848C416.268 249.612 415.232 250.041 414.152 250.041Z" fill="#90CAF9"/>
<path opacity="0.3" d="M414.152 250.041L204.225 250.041V223.896L414.152 223.896C415.232 223.896 416.268 224.325 417.032 225.089C417.796 225.853 418.226 226.89 418.226 227.97V245.967C418.226 247.048 417.796 248.084 417.032 248.848C416.268 249.612 415.232 250.041 414.152 250.041Z" fill="white"/>
<path opacity="0.2" d="M414.152 250.041L204.225 250.041V223.896L414.152 223.896C415.232 223.896 416.268 224.325 417.032 225.089C417.796 225.853 418.226 226.89 418.226 227.97V245.967C418.226 247.048 417.796 248.084 417.032 248.848C416.268 249.612 415.232 250.041 414.152 250.041Z" fill="black"/>
<path d="M134.694 223.896H204.225V250.041H134.694C133.608 250.041 132.566 249.61 131.799 248.842C131.031 248.074 130.599 247.032 130.599 245.946V227.991C130.599 226.905 131.031 225.863 131.799 225.095C132.566 224.327 133.608 223.896 134.694 223.896Z" fill="#90CAF9"/>
<path opacity="0.3" d="M134.694 223.896H204.225V250.041H134.694C133.608 250.041 132.566 249.61 131.799 248.842C131.031 248.074 130.599 247.032 130.599 245.946V227.991C130.599 226.905 131.031 225.863 131.799 225.095C132.566 224.327 133.608 223.896 134.694 223.896Z" fill="white"/>
<path opacity="0.9" d="M130.599 229.556H191.415C192.833 229.556 194.192 230.119 195.194 231.121C196.197 232.123 196.76 233.483 196.76 234.9V239.1C196.735 240.501 196.161 241.836 195.161 242.818C194.162 243.8 192.816 244.35 191.415 244.35H130.599V229.556Z" fill="white"/>
<path opacity="0.4" d="M223.01 243.153H318.161V230.794H223.01V243.153Z" fill="#263238"/>
<path d="M240.345 215.244H270.365V223.907H240.345C240.167 223.907 239.996 223.836 239.87 223.71C239.744 223.584 239.673 223.413 239.673 223.235V215.885C239.681 215.712 239.756 215.549 239.881 215.43C240.006 215.31 240.172 215.244 240.345 215.244Z" fill="#90CAF9"/>
<path opacity="0.2" d="M240.345 215.244H270.365V223.907H240.345C240.167 223.907 239.996 223.836 239.87 223.71C239.744 223.584 239.673 223.413 239.673 223.235V215.885C239.681 215.712 239.756 215.549 239.881 215.43C240.006 215.31 240.172 215.244 240.345 215.244Z" fill="black"/>
<path d="M281.809 223.917H270.406V215.255H281.851C282.03 215.255 282.201 215.325 282.327 215.451C282.453 215.577 282.523 215.748 282.523 215.926V223.276C282.519 223.366 282.498 223.453 282.459 223.534C282.421 223.615 282.367 223.687 282.301 223.747C282.234 223.806 282.157 223.852 282.072 223.881C281.988 223.911 281.899 223.923 281.809 223.917Z" fill="#90CAF9"/>
<path opacity="0.9" d="M282.492 222.982H272.485C272.252 222.982 272.027 222.89 271.862 222.724C271.696 222.559 271.603 222.334 271.603 222.101V217.061C271.603 216.827 271.696 216.602 271.862 216.437C272.027 216.271 272.252 216.179 272.485 216.179H282.492V222.982Z" fill="white"/>
<path d="M237.846 208.954H267.866V215.255H237.846C237.668 215.255 237.497 215.184 237.371 215.058C237.245 214.932 237.174 214.761 237.174 214.582V209.637C237.173 209.548 237.189 209.459 237.222 209.377C237.255 209.294 237.305 209.219 237.367 209.155C237.43 209.092 237.504 209.041 237.587 209.007C237.669 208.972 237.757 208.954 237.846 208.954Z" fill="#263238"/>
<path opacity="0.2" d="M237.846 208.954H267.866V215.255H237.846C237.668 215.255 237.497 215.184 237.371 215.058C237.245 214.932 237.174 214.761 237.174 214.582V209.637C237.173 209.548 237.189 209.459 237.222 209.377C237.255 209.294 237.305 209.219 237.367 209.155C237.43 209.092 237.504 209.041 237.587 209.007C237.669 208.972 237.757 208.954 237.846 208.954Z" fill="black"/>
<path d="M279.311 215.255H267.866V208.955H279.311C279.489 208.955 279.66 209.025 279.786 209.151C279.912 209.277 279.983 209.448 279.983 209.627V214.572C279.984 214.661 279.968 214.75 279.934 214.832C279.901 214.915 279.852 214.99 279.79 215.054C279.727 215.118 279.652 215.168 279.57 215.202C279.488 215.237 279.4 215.255 279.311 215.255Z" fill="#263238"/>
<path opacity="0.9" d="M279.993 214.32H269.986C269.871 214.32 269.756 214.297 269.649 214.253C269.542 214.209 269.445 214.144 269.363 214.062C269.281 213.98 269.216 213.883 269.172 213.776C269.127 213.669 269.104 213.554 269.104 213.438V210.771C269.104 210.537 269.197 210.313 269.363 210.147C269.528 209.982 269.753 209.889 269.986 209.889H279.993V214.32Z" fill="white"/>
<path d="M241.668 202.476H271.688V208.965H241.668C241.49 208.965 241.319 208.894 241.193 208.768C241.067 208.642 240.996 208.471 240.996 208.293V203.148C240.996 203.06 241.013 202.972 241.047 202.891C241.081 202.809 241.131 202.735 241.193 202.673C241.255 202.61 241.329 202.561 241.411 202.527C241.492 202.493 241.58 202.476 241.668 202.476Z" fill="#90CAF9"/>
<path opacity="0.3" d="M241.668 202.476H271.688V208.965H241.668C241.49 208.965 241.319 208.894 241.193 208.768C241.067 208.642 240.996 208.471 240.996 208.293V203.148C240.996 203.06 241.013 202.972 241.047 202.891C241.081 202.809 241.131 202.735 241.193 202.673C241.255 202.61 241.329 202.561 241.411 202.527C241.492 202.493 241.58 202.476 241.668 202.476Z" fill="black"/>
<path d="M283.133 208.955H271.688V202.466H283.133C283.311 202.466 283.482 202.536 283.608 202.662C283.734 202.788 283.805 202.959 283.805 203.138V208.272C283.806 208.361 283.79 208.45 283.757 208.532C283.723 208.615 283.674 208.69 283.612 208.754C283.549 208.818 283.474 208.868 283.392 208.902C283.31 208.937 283.222 208.955 283.133 208.955Z" fill="#90CAF9"/>
<path opacity="0.9" d="M283.804 208.031H273.798C273.564 208.031 273.34 207.938 273.174 207.772C273.009 207.607 272.916 207.382 272.916 207.149V204.282C272.916 204.048 273.009 203.824 273.174 203.658C273.34 203.493 273.564 203.4 273.798 203.4H283.804V208.031Z" fill="white"/>
<path d="M239.169 198.15H269.189V202.455H239.169C238.991 202.455 238.82 202.384 238.694 202.258C238.568 202.132 238.497 201.961 238.497 201.783V198.822C238.497 198.644 238.568 198.473 238.694 198.347C238.82 198.221 238.991 198.15 239.169 198.15Z" fill="#90CAF9"/>
<path opacity="0.3" d="M239.169 198.15H269.189V202.455H239.169C238.991 202.455 238.82 202.384 238.694 202.258C238.568 202.132 238.497 201.961 238.497 201.783V198.822C238.497 198.644 238.568 198.473 238.694 198.347C238.82 198.221 238.991 198.15 239.169 198.15Z" fill="white"/>
<path opacity="0.2" d="M239.169 198.15H269.189V202.455H239.169C238.991 202.455 238.82 202.384 238.694 202.258C238.568 202.132 238.497 201.961 238.497 201.783V198.822C238.497 198.644 238.568 198.473 238.694 198.347C238.82 198.221 238.991 198.15 239.169 198.15Z" fill="black"/>
<path d="M280.644 202.497H269.199V198.192H280.644C280.822 198.192 280.993 198.263 281.119 198.389C281.245 198.515 281.316 198.686 281.316 198.864V201.815C281.317 201.904 281.301 201.992 281.268 202.075C281.235 202.158 281.186 202.233 281.123 202.296C281.06 202.36 280.986 202.41 280.904 202.445C280.821 202.479 280.733 202.497 280.644 202.497Z" fill="#90CAF9"/>
<path opacity="0.3" d="M280.644 202.497H269.199V198.192H280.644C280.822 198.192 280.993 198.263 281.119 198.389C281.245 198.515 281.316 198.686 281.316 198.864V201.815C281.317 201.904 281.301 201.992 281.268 202.075C281.235 202.158 281.186 202.233 281.123 202.296C281.06 202.36 280.986 202.41 280.904 202.445C280.821 202.479 280.733 202.497 280.644 202.497Z" fill="white"/>
<path opacity="0.9" d="M281.306 201.541H271.299C271.065 201.541 270.841 201.449 270.676 201.283C270.51 201.118 270.417 200.893 270.417 200.659V199.977C270.417 199.743 270.51 199.519 270.676 199.353C270.841 199.188 271.065 199.095 271.299 199.095H281.306V201.531V201.541Z" fill="white"/>
<path d="M237.846 191.85H267.866V198.15H237.846C237.668 198.15 237.497 198.079 237.371 197.953C237.245 197.827 237.174 197.656 237.174 197.478V192.532C237.173 192.443 237.189 192.355 237.222 192.272C237.255 192.189 237.305 192.114 237.367 192.051C237.43 191.987 237.504 191.937 237.587 191.902C237.669 191.868 237.757 191.85 237.846 191.85Z" fill="#263238"/>
<path opacity="0.2" d="M237.846 191.85H267.866V198.15H237.846C237.668 198.15 237.497 198.079 237.371 197.953C237.245 197.827 237.174 197.656 237.174 197.478V192.532C237.173 192.443 237.189 192.355 237.222 192.272C237.255 192.189 237.305 192.114 237.367 192.051C237.43 191.987 237.504 191.937 237.587 191.902C237.669 191.868 237.757 191.85 237.846 191.85Z" fill="black"/>
<path d="M275.499 198.203H267.897V191.903H275.531C275.709 191.903 275.88 191.973 276.006 192.099C276.132 192.225 276.203 192.396 276.203 192.575V197.52C276.204 197.612 276.187 197.703 276.152 197.788C276.117 197.873 276.064 197.95 275.999 198.014C275.933 198.078 275.854 198.127 275.768 198.16C275.682 198.192 275.591 198.207 275.499 198.203Z" fill="#263238"/>
<path opacity="0.9" d="M276.182 197.237H269.987C269.753 197.237 269.528 197.144 269.363 196.978C269.198 196.813 269.105 196.588 269.105 196.355V193.688C269.105 193.454 269.198 193.229 269.363 193.064C269.528 192.898 269.753 192.806 269.987 192.806H276.182V197.237Z" fill="white"/>
<path d="M241.668 185.393H271.688V191.85H241.668C241.49 191.85 241.319 191.779 241.193 191.653C241.067 191.527 240.996 191.356 240.996 191.178V186.033C241.004 185.86 241.079 185.697 241.204 185.578C241.329 185.459 241.495 185.392 241.668 185.393Z" fill="#90CAF9"/>
<path opacity="0.3" d="M241.668 185.393H271.688V191.85H241.668C241.49 191.85 241.319 191.779 241.193 191.653C241.067 191.527 240.996 191.356 240.996 191.178V186.033C241.004 185.86 241.079 185.697 241.204 185.578C241.329 185.459 241.495 185.392 241.668 185.393Z" fill="black"/>
<path d="M279.321 191.882H271.687V185.424H279.321C279.499 185.424 279.67 185.495 279.796 185.621C279.922 185.747 279.993 185.918 279.993 186.096V191.231C279.987 191.405 279.914 191.571 279.789 191.692C279.663 191.814 279.496 191.882 279.321 191.882Z" fill="#90CAF9"/>
<path opacity="0.9" d="M279.993 190.947H273.798C273.564 190.947 273.34 190.854 273.174 190.689C273.009 190.523 272.916 190.299 272.916 190.065V187.199C272.916 186.965 273.009 186.74 273.174 186.575C273.34 186.409 273.564 186.317 273.798 186.317H279.993V190.947Z" fill="white"/>
<path d="M239.169 181.098H269.189V185.403H239.169C238.991 185.403 238.82 185.332 238.694 185.206C238.568 185.08 238.497 184.909 238.497 184.731V181.77C238.497 181.592 238.568 181.421 238.694 181.295C238.82 181.169 238.991 181.098 239.169 181.098Z" fill="#90CAF9"/>
<path opacity="0.3" d="M239.169 181.098H269.189V185.403H239.169C238.991 185.403 238.82 185.332 238.694 185.206C238.568 185.08 238.497 184.909 238.497 184.731V181.77C238.497 181.592 238.568 181.421 238.694 181.295C238.82 181.169 238.991 181.098 239.169 181.098Z" fill="white"/>
<path opacity="0.2" d="M239.169 181.098H269.189V185.403H239.169C238.991 185.403 238.82 185.332 238.694 185.206C238.568 185.08 238.497 184.909 238.497 184.731V181.77C238.497 181.592 238.568 181.421 238.694 181.295C238.82 181.169 238.991 181.098 239.169 181.098Z" fill="black"/>
<path d="M276.833 185.393H269.199V181.088H276.833C277.011 181.088 277.182 181.158 277.308 181.284C277.434 181.41 277.505 181.581 277.505 181.76V184.721C277.505 184.899 277.434 185.07 277.308 185.196C277.182 185.322 277.011 185.393 276.833 185.393Z" fill="#90CAF9"/>
<path opacity="0.3" d="M276.833 185.393H269.199V181.088H276.833C277.011 181.088 277.182 181.158 277.308 181.284C277.434 181.41 277.505 181.581 277.505 181.76V184.721C277.505 184.899 277.434 185.07 277.308 185.196C277.182 185.322 277.011 185.393 276.833 185.393Z" fill="white"/>
<path opacity="0.9" d="M277.494 184.469H271.299C271.065 184.469 270.841 184.376 270.675 184.21C270.51 184.045 270.417 183.82 270.417 183.587V182.904C270.417 182.67 270.51 182.446 270.675 182.28C270.841 182.115 271.065 182.022 271.299 182.022H277.494V184.458V184.469Z" fill="white"/>
<path d="M112.087 296.325L105.157 292.85L110.785 275.63L117.715 279.105L112.087 296.325Z" fill="#FFC3BD"/>
<path d="M105.767 290.14L114.272 291.925C114.417 291.951 114.546 292.033 114.633 292.152C114.719 292.272 114.755 292.42 114.734 292.566L113.684 299.381C113.608 299.732 113.397 300.039 113.096 300.235C112.795 300.432 112.429 300.502 112.077 300.431C109.127 299.759 107.741 299.286 104.003 298.499C101.703 298.016 93.7547 296.399 90.6887 295.349C87.6227 294.299 88.7462 291.285 90.1427 291.463C96.4427 292.24 101.829 291.537 104.318 290.308C104.768 290.09 105.279 290.03 105.767 290.14Z" fill="#263238"/>
<path opacity="0.2" d="M117.716 279.116L110.786 275.64L107.562 285.521L114.818 287.988L117.716 279.116Z" fill="black"/>
<path d="M187.95 192.301C187.95 192.301 128.531 198.055 123.564 219.696C116.414 250.786 106.764 280.333 106.764 280.333L120.057 282.675C122.094 273.823 137.246 242.775 144.354 221.849C160.451 219.444 203.48 228.579 209.927 216.336C213.124 210.118 214.879 203.26 215.061 196.27L187.95 192.301Z" fill="#90CAF9"/>
<path opacity="0.3" d="M187.95 192.301C187.95 192.301 128.531 198.055 123.564 219.696C116.414 250.786 106.764 280.333 106.764 280.333L120.057 282.675C122.094 273.823 137.246 242.775 144.354 221.849C160.451 219.444 203.48 228.579 209.927 216.336C213.124 210.118 214.879 203.26 215.061 196.27L187.95 192.301Z" fill="black"/>
<path d="M120.844 287.379L105.304 281.751L106.05 275.504L122.314 279.787L120.844 287.379Z" fill="#90CAF9"/>
<path d="M102.806 290.896C103.497 291.027 104.202 291.076 104.906 291.043C104.94 291.043 104.975 291.033 105.004 291.015C105.034 290.996 105.058 290.97 105.074 290.938C105.089 290.909 105.097 290.877 105.097 290.844C105.097 290.811 105.089 290.779 105.074 290.749C104.864 290.529 102.974 288.649 102.029 288.775C101.913 288.796 101.804 288.845 101.713 288.919C101.621 288.992 101.549 289.087 101.503 289.195C101.405 289.353 101.352 289.535 101.352 289.72C101.352 289.906 101.405 290.088 101.503 290.245C101.846 290.611 102.308 290.842 102.806 290.896ZM104.444 290.686C103.037 290.686 102.05 290.424 101.766 289.993C101.707 289.895 101.675 289.783 101.675 289.668C101.675 289.553 101.707 289.441 101.766 289.342C101.783 289.289 101.814 289.24 101.857 289.203C101.9 289.166 101.952 289.142 102.008 289.132C102.564 289.038 103.688 289.941 104.444 290.686Z" fill="#90CAF9"/>
<path d="M104.843 291.043H104.927C104.955 291.034 104.98 291.017 105 290.995C105.021 290.973 105.035 290.946 105.042 290.917C105.042 290.833 105.704 288.681 105.042 287.767C104.965 287.65 104.86 287.553 104.738 287.484C104.616 287.414 104.479 287.375 104.339 287.368C104.187 287.34 104.031 287.363 103.895 287.436C103.76 287.509 103.653 287.626 103.593 287.767C103.247 288.555 104.045 290.371 104.696 290.98L104.843 291.043ZM104.444 287.757C104.514 287.77 104.581 287.798 104.64 287.837C104.7 287.877 104.751 287.928 104.79 287.988C105.059 288.803 105.059 289.683 104.79 290.497C104.187 289.781 103.886 288.859 103.95 287.925C103.95 287.83 104.076 287.725 104.339 287.746L104.444 287.757Z" fill="#90CAF9"/>
<path d="M194.355 137.901C193.998 141.807 193.431 145.482 192.822 149.251C192.213 153.021 191.415 156.738 190.439 160.487C189.487 164.328 188.251 168.094 186.743 171.753C185.929 173.75 184.942 175.672 183.792 177.497C183.142 178.537 182.401 179.517 181.577 180.426C180.585 181.543 179.427 182.499 178.143 183.261L177.702 183.513L177.461 183.597C175.181 184.378 172.72 184.458 170.394 183.828C168.668 183.385 167.003 182.729 165.438 181.875C164.024 181.102 162.669 180.225 161.385 179.25C160.755 178.778 160.167 178.263 159.579 177.749C158.97 177.233 158.388 176.687 157.836 176.111L161.133 171.333C162.362 171.732 163.685 172.247 164.955 172.625C166.226 173.003 167.486 173.412 168.693 173.675C169.773 173.945 170.878 174.099 171.99 174.137C172.925 174.137 173.586 173.885 173.418 173.811L172.736 174.147C173.443 173.476 174.029 172.687 174.468 171.816C175.199 170.465 175.827 169.061 176.348 167.616C177.48 164.385 178.416 161.089 179.151 157.746C179.918 154.313 180.579 150.816 181.157 147.246C181.734 143.676 182.207 140.106 182.69 136.683L194.355 137.901Z" fill="#FFC3BD"/>
<path d="M183.981 132.147C176.757 138.447 177.156 153.777 177.156 153.777L196.245 160.665C200.288 154.365 202.272 142.332 201.915 137.166C201.359 129.228 192.549 124.65 183.981 132.147Z" fill="#263238"/>
<path opacity="0.2" d="M201.926 137.46C198.492 135.811 193.799 136.337 189.158 140.39C184.958 144.054 183.33 150.806 182.721 155.793L196.245 160.665C200.214 154.47 202.199 142.762 201.926 137.46Z" fill="black"/>
<path d="M84.7036 277.971L82.3936 270.579L98.4586 261.864L100.758 269.256L84.7036 277.971Z" fill="#FFC3BD"/>
<path d="M82.9501 269.886L88.7671 276.344C88.8185 276.394 88.8593 276.455 88.8872 276.521C88.9151 276.588 88.9294 276.66 88.9294 276.732C88.9294 276.804 88.9151 276.876 88.8872 276.943C88.8593 277.009 88.8185 277.07 88.7671 277.12L83.9371 282.045C83.8049 282.167 83.6499 282.261 83.4812 282.323C83.3124 282.384 83.1331 282.412 82.9536 282.404C82.7741 282.396 82.598 282.353 82.4352 282.277C82.2724 282.201 82.1262 282.094 82.0051 281.961C80.0206 279.683 79.1806 278.486 76.6186 275.661C75.0436 273.918 69.5101 268.153 67.3366 265.738C65.1631 263.323 67.6096 261.245 68.7436 262.074C73.8466 265.781 78.9601 268.752 81.7006 269.225C82.1774 269.305 82.6156 269.537 82.9501 269.886Z" fill="#263238"/>
<path opacity="0.2" d="M100.758 269.256L98.4585 261.864L86.7405 268.227L91.623 274.223L100.758 269.256Z" fill="black"/>
<path d="M201.39 194.475C201.39 194.475 160.65 199.935 152.25 211.086C137.624 230.501 91.3501 262.536 91.3501 262.536L95.5501 276.071C95.5501 276.071 158.613 249.474 169.827 227.235C190.428 225.65 223.944 232.433 229.226 219.644C232.743 211.128 231.021 198.413 231.021 198.413L201.39 194.475Z" fill="#90CAF9"/>
<path opacity="0.2" d="M201.39 194.475C201.39 194.475 160.65 199.935 152.25 211.086C137.624 230.501 91.3501 262.536 91.3501 262.536L95.5501 276.071C95.5501 276.071 158.613 249.474 169.827 227.235C190.428 225.65 223.944 232.433 229.226 219.644C232.743 211.128 231.021 198.413 231.021 198.413L201.39 194.475Z" fill="black"/>
<path d="M96.3691 278.034L87.4021 263.576L93.1351 258.861L101.766 274.422L96.3691 278.034Z" fill="#90CAF9"/>
<path d="M80.0521 268.752C80.5316 269.255 81.0631 269.705 81.6376 270.096C81.6671 270.116 81.7018 270.126 81.7374 270.126C81.7729 270.126 81.8077 270.116 81.8371 270.096C81.8682 270.079 81.893 270.052 81.9081 270.02C81.9232 269.988 81.9277 269.952 81.9211 269.918C81.9211 269.624 81.5326 266.988 80.6191 266.537C80.5179 266.48 80.4041 266.451 80.2884 266.451C80.1727 266.451 80.0588 266.48 79.9576 266.537C79.8007 266.614 79.6657 266.73 79.5649 266.873C79.464 267.016 79.4005 267.182 79.3801 267.356C79.4179 267.89 79.6583 268.389 80.0521 268.752ZM81.5011 269.561C80.3671 268.71 79.7161 267.933 79.7476 267.461C79.7604 267.347 79.8031 267.238 79.8713 267.146C79.9395 267.054 80.0309 266.981 80.1361 266.936C80.1856 266.907 80.2417 266.892 80.2989 266.892C80.356 266.892 80.4121 266.907 80.4616 266.936C80.9446 267.114 81.3226 268.5 81.5011 269.55V269.561Z" fill="#90CAF9"/>
<path d="M81.6061 270.075H81.6796C81.7036 270.094 81.7332 270.104 81.7637 270.104C81.7941 270.104 81.8237 270.094 81.8476 270.075C81.9316 270.075 83.6956 268.657 83.7376 267.576C83.7409 267.435 83.7134 267.296 83.6572 267.167C83.601 267.039 83.5174 266.924 83.4122 266.83C83.3021 266.722 83.1596 266.651 83.0062 266.631C82.8528 266.61 82.6968 266.639 82.5616 266.715C81.8161 267.145 81.3961 269.088 81.5641 269.97C81.5683 270.008 81.5828 270.044 81.6061 270.075ZM83.2336 267.187C83.2809 267.24 83.3173 267.301 83.3407 267.368C83.3642 267.435 83.3742 267.505 83.3701 267.576C83.3701 268.227 82.4461 269.13 81.8896 269.602C81.8374 268.675 82.1416 267.762 82.7402 267.051C82.8094 267.012 82.8901 266.998 82.9684 267.011C83.0468 267.025 83.1182 267.065 83.1706 267.124L83.2336 267.187Z" fill="#90CAF9"/>
<path d="M163.16 172.782L156.986 166.818L152.702 175.218C152.702 175.218 160.199 179.324 162.078 177.444L163.16 172.782Z" fill="#FFC3BD"/>
<path d="M148.785 166.755L147.672 173.643L152.702 175.165L156.986 166.818L148.785 166.755Z" fill="#FFC3BD"/>
<path d="M230.601 126.96C229.824 124.912 228.438 122.886 226.244 122.918C225.792 122.918 223.094 122.918 222.611 122.981C220.091 123.044 216.941 123.212 213.896 123.6C208.064 124.271 202.276 125.277 196.56 126.613C193.935 127.327 191.415 128.22 189.399 128.987H189.326C188.18 129.434 187.213 130.243 186.57 131.292C185.928 132.34 185.645 133.569 185.766 134.793C186.816 145.892 189.42 176.709 187.866 192.669L230.916 198.339C233.499 190.128 234.528 171.323 234.549 155.993C234.633 146.784 233.804 135.328 230.601 126.96Z" fill="#263238"/>
<path opacity="0.2" d="M234.402 148.107L233.552 148.17L228.092 152.895L222.443 172.351L203.039 175.743C207.753 178.127 221.466 178.609 229.572 176.457C230.9 176.093 232.077 175.314 232.931 174.233C233.785 173.153 234.271 171.827 234.318 170.451C234.518 165.589 234.612 160.655 234.612 156.024C234.612 153.515 234.56 150.837 234.402 148.107Z" fill="black"/>
<path d="M164.735 154.459C164.735 154.459 168.525 152.36 175.634 154.397C179.592 155.656 183.86 155.534 187.74 154.05L190.397 159.027L166.247 159.867L164.735 154.459Z" fill="#90CAF9"/>
<path opacity="0.8" d="M164.735 154.459C164.735 154.459 168.525 152.36 175.634 154.397C179.592 155.656 183.86 155.534 187.74 154.05L190.397 159.027L166.247 159.867L164.735 154.459Z" fill="white"/>
<path d="M164.735 154.46C164.735 154.46 164.577 152.937 159.989 152.779C150.759 152.475 146.864 150.113 146.864 150.113L146.486 152.496L166.236 159.846L164.735 154.46Z" fill="#90CAF9"/>
<path opacity="0.8" d="M164.735 154.46C164.735 154.46 164.577 152.937 159.989 152.779C150.759 152.475 146.864 150.113 146.864 150.113L146.486 152.496L166.236 159.846L164.735 154.46Z" fill="white"/>
<path d="M172.494 189.887L155.4 185.015C155.186 184.947 154.993 184.829 154.835 184.67C154.678 184.51 154.562 184.315 154.497 184.101L145.75 152.433C145.701 152.287 145.694 152.13 145.73 151.98C145.765 151.829 145.841 151.692 145.95 151.583C146.06 151.474 146.197 151.397 146.347 151.362C146.497 151.327 146.654 151.334 146.8 151.383L163.086 156.035L172.494 189.887Z" fill="#90CAF9"/>
<path d="M199.091 191.367L176.621 190.118L167.265 156.245L190.05 157.515C190.308 157.538 190.552 157.638 190.751 157.803C190.95 157.968 191.094 158.19 191.163 158.439L199.962 190.275C200.013 190.407 200.029 190.55 200.007 190.689C199.986 190.829 199.928 190.961 199.84 191.071C199.752 191.182 199.636 191.267 199.505 191.319C199.373 191.371 199.231 191.388 199.091 191.367Z" fill="#90CAF9"/>
<path d="M172.494 189.886L176.621 190.118L167.265 156.244L163.139 156.013L172.494 189.886Z" fill="#90CAF9"/>
<path opacity="0.3" d="M172.494 189.886L176.621 190.118L167.265 156.244L163.139 156.013L172.494 189.886Z" fill="black"/>
<path d="M232.712 134.656C232.932 136.168 233.079 137.449 233.184 138.856C233.289 140.263 233.363 141.565 233.426 142.93C233.52 145.639 233.499 148.359 233.331 151.089C233.064 156.692 232.043 162.233 230.297 167.563C230.297 167.658 230.108 168.11 229.982 168.445C229.834 168.783 229.669 169.112 229.488 169.432C229.153 170.02 228.759 170.573 228.312 171.081C227.561 171.925 226.687 172.651 225.719 173.233C224.23 174.121 222.626 174.799 220.952 175.249C218.164 175.984 215.306 176.417 212.426 176.541C207.061 176.793 201.685 176.494 196.382 175.649L196.655 169.842C201.587 169.391 206.493 168.69 211.355 167.742C213.577 167.323 215.756 166.701 217.865 165.883C218.646 165.587 219.382 165.18 220.049 164.676C220.269 164.487 220.374 164.329 220.353 164.308C220.332 164.287 220.301 164.308 220.269 164.382C220.239 164.419 220.21 164.457 220.185 164.497C220.185 164.497 220.122 164.686 220.185 164.497C220.699 162.264 221.085 160.003 221.34 157.725C221.561 155.394 221.718 153.031 221.75 150.637C221.781 148.243 221.75 145.828 221.645 143.413C221.592 142.206 221.529 140.998 221.435 139.801L221.288 138.006L221.13 136.326L232.712 134.656Z" fill="#FFC3BD"/>
<path d="M232.712 125.375C227.609 121.479 220.563 121.595 217.676 131.853C215.786 138.573 216.794 152.097 216.794 152.097L237.174 151.688C239.453 140.936 237.878 129.323 232.712 125.375Z" fill="#263238"/>
<path d="M211.89 106.464L207.606 111.493L201.768 118.35C202.133 119.224 202.439 120.122 202.682 121.038C203.732 124.671 200.424 125.406 197.432 127.243C197.432 127.243 192.948 133.176 203.732 131.443C214.515 129.711 216.048 124.093 216.048 124.093C211.207 120.807 211.554 112.743 211.89 106.464Z" fill="#FFC3BD"/>
<path d="M206.976 130.74C205.89 131.051 204.785 131.293 203.668 131.464C202.229 131.729 200.762 131.817 199.3 131.727L199.048 132.976C198.66 133.249 198.565 134.709 201.022 136.441C203.616 135.906 207.637 133.69 206.976 130.74Z" fill="#90CAF9"/>
<path d="M214.137 122.288C214.137 122.288 212.1 127.737 204.687 129.732C205.737 132.62 204.015 135.906 204.015 135.906C204.015 135.906 214.358 132.368 216.51 128.829C218.663 125.291 217.739 123.222 217.739 123.222C216.617 122.661 215.39 122.343 214.137 122.288Z" fill="#263238"/>
<path d="M199.5 135.665C199.5 135.665 199.574 131.149 200.897 129.637C200.204 127.6 200.571 126.487 201.642 124.713C199.384 125.159 197.386 126.461 196.067 128.346C194.649 130.709 195.636 135.728 199.5 135.665Z" fill="#263238"/>
<path opacity="0.2" d="M201.768 118.35C202.133 119.224 202.439 120.122 202.682 121.038C205.139 120.082 208.068 116.775 207.932 114.108C207.905 113.226 207.781 112.349 207.564 111.493L201.768 118.35Z" fill="black"/>
<path d="M187.54 94.41C185.514 98.6625 187.257 108.763 196.864 104.742C206.472 100.72 190.837 87.5115 187.54 94.41Z" fill="#263238"/>
<path d="M208.625 103.241C207.743 105.078 208.499 109.446 212.646 107.714C216.794 105.981 210 100.259 208.625 103.241Z" fill="#263238"/>
<path d="M209.79 106.181C208.446 107.714 207.994 112.123 212.467 111.567C216.94 111.01 211.963 103.65 209.79 106.181Z" fill="#263238"/>
<path d="M210.84 94.7145C212.583 102.852 213.99 107.504 211.166 112.869C210.26 114.621 208.893 116.093 207.212 117.124C205.531 118.156 203.6 118.708 201.628 118.721C199.655 118.734 197.717 118.207 196.022 117.198C194.328 116.189 192.942 114.735 192.014 112.995C188.318 106.359 186.081 94.1685 192.927 88.5405C194.378 87.285 196.133 86.4326 198.017 86.0689C199.901 85.7052 201.848 85.8429 203.662 86.4681C205.476 87.0934 207.094 88.1842 208.354 89.6315C209.613 91.0787 210.471 92.8316 210.84 94.7145Z" fill="#FFC3BD"/>
<path d="M209.391 85.254C207.732 78.03 198.051 80.5395 193.116 84.9075C188.181 89.2755 186.91 92.709 182.752 95.292C190.428 96.342 201.295 93.297 203.332 90.714C203.327 91.9937 203.625 93.2565 204.202 94.399C204.779 95.5414 205.618 96.5311 206.65 97.287C206.507 99.5492 206.507 101.818 206.65 104.08L210.157 102.295L214.242 100.657C220.269 90.4725 216.709 84.183 209.391 85.254Z" fill="#263238"/>
<path d="M200.645 100.311C200.579 100.312 200.515 100.289 200.465 100.246C200.415 100.204 200.382 100.145 200.372 100.08C200.364 100.044 200.364 100.007 200.371 99.971C200.378 99.935 200.392 99.9008 200.413 99.8704C200.433 99.84 200.46 99.8141 200.491 99.7942C200.521 99.7743 200.556 99.7608 200.592 99.7545L211.974 97.812C212.048 97.7998 212.123 97.8173 212.184 97.8605C212.245 97.9038 212.287 97.9694 212.3 98.043C212.306 98.0789 212.304 98.1156 212.296 98.151C212.287 98.1864 212.272 98.2198 212.25 98.2491C212.229 98.2785 212.202 98.3033 212.171 98.3219C212.139 98.3406 212.105 98.3529 212.069 98.358L200.687 100.301L200.645 100.311Z" fill="white"/>
<path d="M199.122 107.062C197.022 107.062 194.712 104.805 193.967 102.065C193.727 101.393 193.645 100.675 193.727 99.9672C193.809 99.259 194.053 98.5791 194.439 97.98C194.678 97.6483 194.994 97.3796 195.36 97.1967C195.726 97.0138 196.13 96.9223 196.539 96.93C198.639 96.93 200.96 99.1875 201.705 101.928C201.94 102.603 202.019 103.322 201.935 104.031C201.851 104.741 201.608 105.422 201.222 106.023C200.982 106.353 200.666 106.621 200.3 106.802C199.935 106.983 199.53 107.072 199.122 107.062ZM196.487 97.5285C196.173 97.5223 195.861 97.5904 195.579 97.7273C195.296 97.8641 195.049 98.0658 194.859 98.316C194.531 98.8501 194.327 99.4507 194.262 100.074C194.197 100.697 194.272 101.327 194.481 101.918C195.164 104.438 197.243 106.495 199.112 106.506C199.429 106.523 199.745 106.46 200.032 106.322C200.318 106.184 200.565 105.977 200.75 105.718C201.079 105.185 201.285 104.585 201.352 103.962C201.419 103.339 201.346 102.708 201.138 102.117C200.456 99.597 198.377 97.539 196.508 97.5285H196.487Z" fill="white"/>
<path d="M192.623 103.65C192.574 103.661 192.524 103.661 192.476 103.65C192.443 103.632 192.414 103.607 192.392 103.577C192.369 103.547 192.353 103.513 192.344 103.476C192.335 103.44 192.334 103.402 192.34 103.365C192.346 103.328 192.36 103.293 192.381 103.262C192.623 102.949 192.949 102.711 193.321 102.576C193.692 102.44 194.094 102.412 194.481 102.495C194.552 102.515 194.612 102.56 194.651 102.622C194.69 102.684 194.704 102.759 194.691 102.831C194.674 102.903 194.629 102.965 194.566 103.004C194.503 103.044 194.427 103.057 194.355 103.041C194.355 103.041 193.305 102.81 192.812 103.556C192.788 103.583 192.76 103.606 192.727 103.623C192.694 103.639 192.659 103.648 192.623 103.65Z" fill="white"/>
<path d="M215.722 100.941C215.236 103.022 214.008 104.855 212.268 106.097C209.989 107.651 208.204 105.719 208.299 103.01C208.383 100.574 209.664 96.8355 212.215 96.363C214.767 95.8905 216.3 98.4 215.722 100.941Z" fill="#FFC3BD"/>
<path d="M197.862 101.55C198.167 102.149 198.093 102.81 197.705 103.02C197.316 103.23 196.76 102.915 196.455 102.306C196.151 101.697 196.235 101.046 196.613 100.836C196.991 100.626 197.558 100.941 197.862 101.55Z" fill="#263238"/>
<path d="M191.205 104.28C191.478 104.9 191.373 105.551 190.974 105.74C190.575 105.929 190.029 105.582 189.766 104.963C189.504 104.343 189.609 103.682 190.008 103.503C190.407 103.325 190.942 103.65 191.205 104.28Z" fill="#263238"/>
<path d="M187.845 100.574C187.909 100.556 187.967 100.523 188.015 100.477C188.062 100.431 188.098 100.374 188.118 100.311C188.267 99.8347 188.522 99.3984 188.864 99.0347C189.206 98.671 189.626 98.3894 190.092 98.211C190.192 98.1795 190.275 98.1102 190.324 98.0179C190.373 97.9256 190.384 97.8178 190.355 97.7175C190.341 97.6678 190.318 97.6212 190.286 97.5807C190.255 97.5403 190.215 97.5067 190.17 97.4821C190.124 97.4576 190.075 97.4425 190.023 97.4378C189.972 97.4331 189.921 97.439 189.872 97.455C189.273 97.6707 188.734 98.0246 188.298 98.488C187.861 98.9515 187.541 99.5113 187.362 100.122C187.344 100.171 187.337 100.223 187.34 100.275C187.343 100.327 187.357 100.377 187.38 100.424C187.404 100.47 187.437 100.511 187.477 100.544C187.517 100.577 187.564 100.601 187.614 100.616C187.694 100.628 187.775 100.613 187.845 100.574Z" fill="#263238"/>
<path d="M191.027 109.225C189.116 109.225 187.005 107.126 186.323 104.669C186.107 104.053 186.034 103.396 186.111 102.748C186.187 102.101 186.41 101.479 186.764 100.931C186.983 100.639 187.27 100.404 187.598 100.245C187.927 100.087 188.289 100.008 188.654 100.017C190.575 100.017 192.686 102.117 193.368 104.574C193.582 105.188 193.654 105.843 193.578 106.489C193.501 107.134 193.279 107.754 192.927 108.301C192.707 108.596 192.42 108.834 192.089 108.995C191.759 109.156 191.394 109.235 191.027 109.225ZM188.633 100.563C188.351 100.557 188.073 100.619 187.821 100.743C187.569 100.867 187.35 101.051 187.184 101.277C186.884 101.756 186.698 102.297 186.638 102.859C186.578 103.421 186.646 103.99 186.837 104.522C187.457 106.8 189.326 108.658 191.037 108.669C191.319 108.676 191.598 108.616 191.852 108.494C192.106 108.371 192.327 108.19 192.497 107.965C192.793 107.485 192.978 106.944 193.038 106.383C193.098 105.821 193.031 105.253 192.843 104.721C192.224 102.443 190.344 100.584 188.643 100.521L188.633 100.563Z" fill="white"/>
<path d="M193.41 103.314C193.355 105.223 193.044 107.116 192.486 108.942C192.951 109.062 193.437 109.077 193.908 108.988C194.38 108.9 194.827 108.708 195.216 108.428L193.41 103.314Z" fill="#ED847E"/>
<path d="M196.581 110.843C197.335 110.63 198.037 110.268 198.647 109.777C199.257 109.286 199.762 108.677 200.13 107.987C200.14 107.962 200.146 107.936 200.146 107.91C200.147 107.884 200.142 107.858 200.132 107.833C200.122 107.809 200.108 107.787 200.089 107.768C200.071 107.749 200.049 107.734 200.025 107.724C199.977 107.705 199.924 107.704 199.876 107.721C199.827 107.739 199.787 107.773 199.763 107.819C199.355 108.564 198.781 109.206 198.085 109.694C197.39 110.182 196.591 110.503 195.752 110.632C195.7 110.643 195.653 110.672 195.622 110.715C195.591 110.758 195.577 110.811 195.584 110.863C195.594 110.915 195.624 110.96 195.667 110.989C195.71 111.019 195.763 111.03 195.815 111.021C196.074 110.98 196.33 110.92 196.581 110.843Z" fill="#263238"/>
<path d="M198.828 96.636C198.886 96.6044 198.933 96.557 198.965 96.4995C199.019 96.4089 199.035 96.3006 199.009 96.1983C198.983 96.096 198.918 96.008 198.828 95.9535C198.296 95.6284 197.693 95.4383 197.071 95.3999C196.448 95.3614 195.826 95.4758 195.258 95.733C195.211 95.7563 195.169 95.7888 195.135 95.8287C195.101 95.8685 195.076 95.9149 195.06 95.9649C195.044 96.0149 195.039 96.0676 195.044 96.1198C195.049 96.172 195.065 96.2226 195.09 96.2685C195.139 96.3614 195.223 96.4311 195.323 96.4626C195.424 96.494 195.532 96.4847 195.626 96.4365C196.074 96.2403 196.564 96.156 197.052 96.1908C197.54 96.2255 198.013 96.3783 198.429 96.636C198.489 96.6744 198.558 96.6949 198.629 96.6949C198.699 96.6949 198.769 96.6744 198.828 96.636Z" fill="#263238"/>
<path d="M198.734 170.168L192.15 167.374L192.371 175.774C192.371 175.774 198.891 178.41 199.973 174.934L198.734 170.168Z" fill="#FFC3BD"/>
<path d="M183.971 169.254L185.42 175.228L192.381 175.743L192.161 167.374L183.971 169.254Z" fill="#FFC3BD"/>
</svg>
