<svg width="203" height="39" viewBox="0 0 203 39" fill="none" xmlns="http://www.w3.org/2000/svg">
<g clip-path="url(#clip0)">
<path d="M11.1502 16.6701C12.9249 16.6701 14.0299 17.4737 14.0299 17.4737L16.039 13.4221C16.039 13.4221 14.0969 11.8149 10.2796 11.8149C5.29043 11.8149 0.77002 15.9 0.77002 20.9561C0.77002 25.9788 5.32392 29.997 10.2796 29.997C14.0969 29.997 16.039 28.4567 16.039 28.4567L14.0299 24.3381C14.0299 24.3381 12.9249 25.1417 11.1502 25.1417C8.90676 25.1417 7.06511 23.2666 7.06511 20.8892C7.06511 18.5453 8.90676 16.6701 11.1502 16.6701ZM17.4524 29.4947H23.3792V19.7842C23.3792 18.0765 25.1204 16.4357 26.8951 16.4357C28.8037 16.4357 29.9757 18.0765 29.9757 19.7842V29.4947H35.9024V18.1769C35.9024 13.3886 31.5159 11.8149 28.3684 11.8149C26.4933 11.8149 24.7855 12.7859 23.4462 14.1253H23.3792V0.697998H17.4524V29.4947ZM55.9641 21.7263C55.9975 21.5254 55.9975 21.1571 55.9975 20.9227C55.9975 14.8954 52.0129 11.8149 46.7893 11.8149C41.5992 11.8149 37.3466 15.9 37.3466 20.9227C37.3466 25.9119 41.5992 29.997 46.7893 29.997C50.6065 29.997 53.7541 28.758 55.6962 25.51L51.4102 23.367C49.9703 24.9073 49.1332 25.2756 47.2246 25.2756C45.7178 25.2756 43.5078 24.3716 43.5078 21.7263H55.9641ZM43.6752 18.4448C43.7757 16.871 44.9142 15.6656 46.9567 15.6656C48.6979 15.6656 49.9368 16.6366 50.2047 18.4448H43.6752ZM56.3544 20.9227C56.3544 25.9453 59.8702 29.997 64.8929 29.997C67.2368 29.997 69.2459 28.9589 70.5183 27.5526H70.5853V29.4947H76.4451V12.3171H70.5183V13.9579C69.112 12.585 67.2033 11.8149 64.8929 11.8149C59.8702 11.8149 56.3544 15.9 56.3544 20.9227ZM62.6494 20.9227C62.6494 18.5453 64.4241 16.871 66.6676 16.871C68.8776 16.871 70.6523 18.5453 70.6523 20.9227C70.6523 23.2666 68.978 24.9408 66.6676 24.9408C64.2567 24.9408 62.6494 23.2666 62.6494 20.9227ZM99.5366 20.8892C99.5366 15.8665 96.0208 11.8149 90.9981 11.8149C88.6542 11.8149 86.6451 12.8529 85.3727 14.2592H85.3057V12.3171H79.4459V38.2007H85.3727V27.854C86.779 29.2268 88.6877 29.997 90.9981 29.997C96.0208 29.997 99.5366 25.9119 99.5366 20.8892ZM93.2416 20.8892C93.2416 23.2666 91.4669 24.9408 89.2234 24.9408C87.0134 24.9408 85.2387 23.2666 85.2387 20.8892C85.2387 18.5453 86.913 16.871 89.2234 16.871C91.6343 16.871 93.2416 18.5453 93.2416 20.8892ZM101.298 29.4947H107.225V19.4493C107.225 18.0765 107.995 16.5697 109.97 16.5697C112.08 16.5697 112.984 18.0765 112.984 19.7842V29.4947H118.911V19.2484C118.978 17.9425 119.781 16.5697 121.657 16.5697C123.766 16.5697 124.67 18.0765 124.67 19.7842V29.4947H130.597V18.1769C130.597 13.3886 127.048 11.8149 123.9 11.8149C122.025 11.8149 120.016 12.7859 118.208 14.9624C117.002 12.652 114.491 11.8149 112.214 11.8149C110.339 11.8149 108.631 12.7859 107.292 14.1253H107.225V12.3171H101.298V29.4947ZM150.667 21.7263C150.7 21.5254 150.7 21.1571 150.7 20.9227C150.7 14.8954 146.716 11.8149 141.492 11.8149C136.302 11.8149 132.049 15.9 132.049 20.9227C132.049 25.9119 136.302 29.997 141.492 29.997C145.309 29.997 148.457 28.758 150.399 25.51L146.113 23.367C144.673 24.9073 143.836 25.2756 141.927 25.2756C140.42 25.2756 138.21 24.3716 138.21 21.7263H150.667ZM138.378 18.4448C138.478 16.871 139.617 15.6656 141.659 15.6656C143.401 15.6656 144.639 16.6366 144.907 18.4448H138.378ZM151.22 20.9227C151.22 25.9453 154.736 29.997 159.759 29.997C162.103 29.997 164.112 28.9589 165.384 27.5526H165.451V29.4947H171.311V0.697998H165.384V13.9579C163.978 12.585 162.069 11.8149 159.759 11.8149C154.736 11.8149 151.22 15.9 151.22 20.9227ZM157.515 20.9227C157.515 18.5453 159.29 16.871 161.533 16.871C163.743 16.871 165.518 18.5453 165.518 20.9227C165.518 23.2666 163.844 24.9408 161.533 24.9408C159.123 24.9408 157.515 23.2666 157.515 20.9227ZM177.359 1.70253C175.417 1.70253 173.843 3.27631 173.843 5.21841C173.843 7.16051 175.417 8.73429 177.359 8.73429C179.301 8.73429 180.875 7.16051 180.875 5.21841C180.875 3.27631 179.301 1.70253 177.359 1.70253ZM174.312 12.3171H180.239V29.4947H174.312V12.3171ZM182.173 20.9227C182.173 25.9453 185.688 29.997 190.711 29.997C193.055 29.997 195.064 28.9589 196.336 27.5526H196.403V29.4947H202.263V12.3171H196.336V13.9579C194.93 12.585 193.021 11.8149 190.711 11.8149C185.688 11.8149 182.173 15.9 182.173 20.9227ZM188.468 20.9227C188.468 18.5453 190.242 16.871 192.486 16.871C194.696 16.871 196.47 18.5453 196.47 20.9227C196.47 23.2666 194.796 24.9408 192.486 24.9408C190.075 24.9408 188.468 23.2666 188.468 20.9227Z" fill="#2D4F6C"/>
<path d="M76.3866 31.5876H1.04639V37.866H76.3866V31.5876Z" fill="#2D4F6C"/>
<path d="M202.267 31.5876H87.8967V37.866H202.267V31.5876Z" fill="#2D4F6C"/>
</g>
<defs>
<clipPath id="clip0">
<rect width="203" height="38.7165" fill="white" transform="translate(0 0.195801)"/>
</clipPath>
</defs>
</svg>
