<svg width="335" height="60" viewBox="0 0 335 60" fill="none" xmlns="http://www.w3.org/2000/svg">
<path d="M11.18 32C11.1614 32.8671 11.3142 33.7294 11.6296 34.5373C11.945 35.3452 12.4167 36.083 13.0178 36.7082C13.6189 37.3335 14.3375 37.8339 15.1324 38.1808C15.9273 38.5278 16.7828 38.7144 17.65 38.73C19.2595 38.7598 20.8421 38.3146 22.2 37.45L25.38 43.97C25.38 43.97 22.31 46.41 16.27 46.41C8.43 46.41 1.27 40.05 1.27 32.1C1.27 24.15 8.37 17.59 16.27 17.59C22.27 17.59 25.38 20.14 25.38 20.14L22.2 26.55C20.84 25.6911 19.2582 25.2496 17.65 25.28C16.7833 25.2943 15.9279 25.4797 15.1331 25.8256C14.3383 26.1714 13.6196 26.6709 13.0184 27.2953C12.4172 27.9198 11.9453 28.6569 11.6298 29.4642C11.3143 30.2716 11.1614 31.1334 11.18 32ZM29.18 0H38.56V21.25H38.67C40.6795 19.0466 43.4811 17.7303 46.46 17.59C51.46 17.59 58.38 20.08 58.38 27.66V45.57H49V30.21C49.0405 29.5394 48.9455 28.8675 48.7205 28.2345C48.4956 27.6014 48.1454 27.0202 47.6908 26.5255C47.2363 26.0308 46.6867 25.6328 46.0749 25.3552C45.4631 25.0777 44.8016 24.9262 44.13 24.91C41.32 24.91 38.56 27.5 38.56 30.21V45.57H29.2L29.18 0ZM72 33.28C72 37.47 75.49 38.9 77.88 38.9C80.88 38.9 82.22 38.31 84.5 35.9L91.28 39.29C88.21 44.43 83.28 46.39 77.19 46.39C69 46.37 62.27 39.9 62.27 32C62.27 24.1 69 17.59 77.22 17.59C85.44 17.59 91.79 22.47 91.79 32C91.7993 32.424 91.7826 32.8481 91.74 33.27L72 33.28ZM82.59 28.09C82.4828 26.8285 81.8836 25.6599 80.9218 24.8366C79.96 24.0132 78.7129 23.6014 77.45 23.69C74.22 23.69 72.45 25.6 72.26 28.09H82.59ZM107.45 17.59C109.086 17.5384 110.717 17.8124 112.246 18.3961C113.776 18.9797 115.174 19.8614 116.36 20.99V18.39H125.74V45.57H116.46V42.5H116.36C115.225 43.7281 113.846 44.7064 112.312 45.3726C110.778 46.0389 109.122 46.3786 107.45 46.37C99.53 46.37 94 40 94 32C94 24 99.53 17.59 107.48 17.59H107.45ZM110.26 38.37C111.104 38.4026 111.945 38.2599 112.731 37.9509C113.517 37.6419 114.231 37.1733 114.826 36.5748C115.422 35.9762 115.887 35.2606 116.193 34.4732C116.498 33.6858 116.637 32.8437 116.6 32C116.634 31.1469 116.495 30.2957 116.192 29.4976C115.889 28.6994 115.428 27.9707 114.836 27.3551C114.245 26.7395 113.535 26.2498 112.749 25.9152C111.964 25.5807 111.119 25.4083 110.265 25.4083C109.411 25.4083 108.566 25.5807 107.781 25.9152C106.995 26.2498 106.285 26.7395 105.694 27.3551C105.102 27.9707 104.641 28.6994 104.338 29.4976C104.035 30.2957 103.896 31.1469 103.93 32C103.887 32.847 104.022 33.6936 104.326 34.4852C104.631 35.2768 105.097 35.9959 105.697 36.5961C106.296 37.1962 107.014 37.6642 107.805 37.9697C108.597 38.2752 109.443 38.4116 110.29 38.37H110.26ZM150.38 46.37C148.746 46.4216 147.118 46.1485 145.59 45.5666C144.063 44.9847 142.666 44.1056 141.48 42.98V59.35H132.1V18.35H141.37V21.42H141.48C142.612 20.1908 143.989 19.2116 145.521 18.5451C147.054 17.8787 148.709 17.5398 150.38 17.55C158.38 17.55 163.89 23.97 163.89 31.92C163.89 39.87 158.36 46.37 150.41 46.37H150.38ZM147.6 25.6C146.757 25.5728 145.917 25.7205 145.134 26.0338C144.35 26.3472 143.641 26.8193 143.049 27.4206C142.457 28.0218 141.996 28.7391 141.695 29.5272C141.394 30.3154 141.26 31.1573 141.3 32C141.3 33.6841 141.969 35.2993 143.16 36.4901C144.351 37.681 145.966 38.35 147.65 38.35C149.334 38.35 150.949 37.681 152.14 36.4901C153.331 35.2993 154 33.6841 154 32C154.049 31.1466 153.918 30.2924 153.614 29.4936C153.309 28.6947 152.84 27.9692 152.235 27.3648C151.631 26.7604 150.905 26.2906 150.106 25.9865C149.308 25.6823 148.453 25.5506 147.6 25.6ZM168.33 18.39H177.71V21.25H177.81C179.82 19.0466 182.621 17.7303 185.6 17.59C189.21 17.59 193.18 18.92 195.09 22.59C197.95 19.14 201.09 17.59 204.09 17.59C209.09 17.59 214.69 20.08 214.69 27.66V45.57H205.31V30.21C205.31 27.5 203.88 25.12 200.54 25.12C199.971 25.0953 199.404 25.1873 198.872 25.3902C198.341 25.5932 197.856 25.9027 197.449 26.2999C197.041 26.6971 196.719 27.1735 196.503 27.6998C196.286 28.226 196.18 28.791 196.19 29.36V45.57H186.81V30.21C186.81 27.5 185.38 25.12 182.04 25.12C178.92 25.12 177.7 27.5 177.7 29.68V45.57H168.32L168.33 18.39ZM228.33 33.28C228.33 37.47 231.83 38.9 234.21 38.9C237.21 38.9 238.56 38.31 240.84 35.9L247.62 39.29C244.55 44.43 239.57 46.39 233.52 46.39C225.31 46.39 218.58 39.92 218.58 32.03C218.58 24.14 225.31 17.61 233.52 17.61C241.73 17.61 248.09 22.47 248.09 32C248.099 32.424 248.083 32.8481 248.04 33.27L228.33 33.28ZM238.93 28.09C238.823 26.8285 238.224 25.6599 237.262 24.8366C236.3 24.0132 235.053 23.6014 233.79 23.69C230.56 23.69 228.79 25.6 228.6 28.09H238.93ZM264 17.59C265.652 17.5276 267.3 17.7973 268.846 18.383C270.391 18.9687 271.804 19.8586 273 21V0H282.38V45.57H273.1V42.5H273C271.854 43.7393 270.461 44.7242 268.911 45.3909C267.361 46.0576 265.688 46.3911 264 46.37C256 46.37 250.49 39.96 250.49 32.01C250.49 24.06 256.09 17.59 264 17.59ZM266.81 38.37C267.655 38.404 268.497 38.2623 269.284 37.954C270.072 37.6456 270.786 37.1773 271.383 36.5786C271.98 35.9799 272.446 35.2638 272.752 34.4757C273.058 33.6876 273.197 32.8446 273.16 32C273.194 31.1469 273.055 30.2957 272.752 29.4976C272.449 28.6994 271.988 27.9707 271.396 27.3551C270.805 26.7395 270.095 26.2498 269.309 25.9152C268.524 25.5807 267.679 25.4083 266.825 25.4083C265.971 25.4083 265.126 25.5807 264.341 25.9152C263.555 26.2498 262.845 26.7395 262.254 27.3551C261.662 27.9707 261.201 28.6994 260.898 29.4976C260.595 30.2957 260.456 31.1469 260.49 32C260.447 32.847 260.582 33.6936 260.886 34.4852C261.191 35.2768 261.658 35.9959 262.257 36.5961C262.856 37.1962 263.574 37.6642 264.365 37.9697C265.157 38.2752 266.003 38.4116 266.85 38.37H266.81ZM299.08 7.15C299.082 8.25207 298.757 9.32995 298.146 10.2472C297.535 11.1645 296.666 11.88 295.648 12.3031C294.631 12.7262 293.511 12.838 292.43 12.6242C291.348 12.4104 290.355 11.8807 289.575 11.1021C288.795 10.3235 288.263 9.33108 288.048 8.25034C287.832 7.16959 287.942 6.04914 288.363 5.03077C288.784 4.0124 289.498 3.1419 290.414 2.52941C291.331 1.91693 292.408 1.59 293.51 1.59C294.986 1.59 296.401 2.17546 297.445 3.21788C298.489 4.26029 299.077 5.67448 299.08 7.15ZM288.69 45.57H298.07V18.39H288.69V45.57ZM316.25 17.57C317.885 17.5192 319.513 17.7936 321.041 18.3772C322.569 18.9609 323.966 19.8422 325.15 20.97V18.37H334.53V45.57H325.26V42.5H325.15C324.018 43.7292 322.641 44.7085 321.109 45.3749C319.576 46.0413 317.921 46.3802 316.25 46.37C308.3 46.37 302.73 39.96 302.73 32.01C302.73 24.06 308.3 17.59 316.25 17.59V17.57ZM319.06 38.35C319.9 38.3768 320.736 38.2302 321.516 37.9193C322.297 37.6084 323.005 37.1399 323.596 36.543C324.187 35.9461 324.649 35.2338 324.953 34.4504C325.256 33.667 325.395 32.8294 325.36 31.99C325.36 30.3112 324.693 28.7011 323.506 27.514C322.319 26.3269 320.709 25.66 319.03 25.66C317.351 25.66 315.741 26.3269 314.554 27.514C313.367 28.7011 312.7 30.3112 312.7 31.99C312.654 32.8382 312.787 33.6866 313.09 34.4801C313.393 35.2737 313.86 35.9946 314.459 36.5962C315.059 37.1978 315.779 37.6666 316.571 37.9722C317.364 38.2778 318.212 38.4133 319.06 38.37V38.35ZM125 50.5H0V59.5H125V50.5ZM333.16 50.94H148.28V59.94H333.16V50.94Z" fill="#A5A6A7"/>
</svg>
