<svg width="246" height="246" viewBox="0 0 246 246" fill="none" xmlns="http://www.w3.org/2000/svg">
<path d="M203.157 70.6906L207.914 73.6426L208.815 72.1666C208.945 71.958 209.131 71.79 209.352 71.6814C209.573 71.5728 209.82 71.5278 210.064 71.5516C210.343 71.5663 210.622 71.5663 210.901 71.5516C211.147 71.5447 211.39 71.6059 211.604 71.7282C211.817 71.8506 211.993 72.0295 212.111 72.2453L212.918 73.7557L217.838 71.1088L217.026 69.6033C216.911 69.3855 216.859 69.1403 216.875 68.8946C216.89 68.649 216.973 68.4124 217.115 68.2109C217.276 67.982 217.424 67.7438 217.558 67.4975C217.675 67.2816 217.85 67.1022 218.062 66.9789C218.275 66.8557 218.517 66.7934 218.763 66.7989L220.475 66.853L220.652 61.2589L218.93 61.2097C218.684 61.1989 218.446 61.1201 218.242 60.982C218.037 60.8439 217.876 60.652 217.774 60.4275C217.715 60.3045 217.656 60.1815 217.587 60.0634C217.518 59.9453 217.454 59.8223 217.385 59.7042C217.257 59.4949 217.188 59.2539 217.188 59.008C217.188 58.7622 217.257 58.5212 217.385 58.3119L218.296 56.8359L213.538 53.8839L212.633 55.3599C212.501 55.5681 212.315 55.7362 212.095 55.8455C211.874 55.9549 211.628 56.0013 211.383 55.9798C211.105 55.9552 210.826 55.9453 210.547 55.9503C210.301 55.9573 210.059 55.8962 209.846 55.7737C209.633 55.6513 209.458 55.4723 209.341 55.2565L208.534 53.7461L203.614 56.3931L204.426 57.9035C204.541 58.1207 204.593 58.3655 204.576 58.6105C204.56 58.8555 204.475 59.0911 204.333 59.2909C204.173 59.5187 204.027 59.7552 203.895 59.9994C203.779 60.217 203.605 60.398 203.392 60.5223C203.179 60.6465 202.936 60.7091 202.689 60.703L200.972 60.6489L200.8 66.2429L202.517 66.2921C202.769 66.3044 203.013 66.3875 203.22 66.532C203.427 66.6765 203.589 66.8764 203.688 67.1088C203.747 67.2318 203.806 67.3548 203.875 67.4778C203.944 67.6008 204.008 67.7189 204.077 67.837C204.206 68.0463 204.274 68.2873 204.274 68.5332C204.274 68.779 204.206 69.02 204.077 69.2293L203.157 70.6906ZM206.689 65.9526C206.263 65.1537 206.082 64.2463 206.171 63.3451C206.26 62.4438 206.614 61.5891 207.189 60.889C207.763 60.1889 208.533 59.6748 209.399 59.4118C210.266 59.1487 211.191 59.1484 212.058 59.411C212.924 59.6736 213.694 60.1872 214.269 60.887C214.844 61.5867 215.198 62.4412 215.288 63.3424C215.377 64.2437 215.198 65.1512 214.771 65.9503C214.345 66.7494 213.692 67.4042 212.893 67.8321C212.363 68.1171 211.781 68.2946 211.182 68.3544C210.583 68.4142 209.978 68.3551 209.401 68.1805C208.825 68.0059 208.288 67.7192 207.823 67.3369C207.358 66.9546 206.972 66.4842 206.689 65.9526Z" fill="#EBEBEB"/>
<path d="M217.12 100.644L219.088 104.043L220.131 103.438C220.282 103.352 220.454 103.31 220.628 103.316C220.801 103.322 220.97 103.376 221.115 103.473C221.273 103.58 221.437 103.678 221.607 103.768C221.756 103.848 221.881 103.967 221.968 104.112C222.055 104.258 222.1 104.425 222.099 104.594V105.78H226.035V104.58C226.036 104.407 226.085 104.239 226.176 104.093C226.267 103.947 226.397 103.829 226.551 103.753C226.721 103.664 226.885 103.565 227.043 103.458C227.188 103.362 227.357 103.308 227.53 103.302C227.704 103.296 227.876 103.338 228.027 103.423L229.065 104.029L231.033 100.629L229.99 100.029C229.842 99.9415 229.72 99.8148 229.64 99.6628C229.559 99.5108 229.522 99.3394 229.533 99.1675C229.533 99.0691 229.533 98.9757 229.533 98.8773C229.533 98.7789 229.533 98.6854 229.533 98.587C229.521 98.4156 229.557 98.2443 229.637 98.0922C229.717 97.9401 229.837 97.8133 229.985 97.726L231.033 97.1208L229.065 93.726L228.022 94.3263C227.872 94.4138 227.7 94.4569 227.525 94.4509C227.351 94.4448 227.183 94.3896 227.038 94.2918C226.876 94.1885 226.709 94.0901 226.546 94.0015C226.393 93.9246 226.263 93.8068 226.172 93.6609C226.081 93.5151 226.032 93.347 226.03 93.175V92.004H222.094V93.2045C222.094 93.3739 222.049 93.5403 221.962 93.6859C221.876 93.8315 221.751 93.9508 221.602 94.0311C221.43 94.1196 221.262 94.218 221.11 94.3214C220.966 94.4192 220.797 94.4743 220.623 94.4804C220.449 94.4865 220.276 94.4433 220.126 94.3558L219.083 93.7555L217.115 97.1504L218.158 97.7555C218.307 97.842 218.428 97.9686 218.508 98.1209C218.588 98.2732 218.624 98.445 218.61 98.6165C218.61 98.71 218.61 98.8084 218.61 98.9068C218.61 99.0052 218.61 99.0987 218.61 99.1971C218.623 99.3685 218.587 99.5401 218.507 99.6923C218.427 99.8445 218.306 99.9712 218.158 100.058L217.12 100.644ZM220.869 98.892C220.869 98.2564 221.057 97.635 221.41 97.1066C221.764 96.5782 222.266 96.1664 222.853 95.9234C223.44 95.6803 224.087 95.617 224.71 95.7414C225.333 95.8657 225.906 96.1722 226.355 96.622C226.804 97.0718 227.11 97.6447 227.233 98.2683C227.356 98.8918 227.292 99.5379 227.048 100.125C226.804 100.712 226.392 101.213 225.863 101.566C225.334 101.918 224.712 102.106 224.077 102.105C223.655 102.105 223.237 102.022 222.848 101.86C222.458 101.699 222.104 101.462 221.807 101.163C221.509 100.865 221.272 100.511 221.111 100.121C220.951 99.7314 220.868 99.3137 220.869 98.892Z" fill="#EBEBEB"/>
<path d="M14.9617 162.158L16.9297 165.553L17.9678 164.953C18.1184 164.866 18.2902 164.822 18.464 164.828C18.6379 164.833 18.8068 164.886 18.9518 164.982C19.1103 165.09 19.2745 165.188 19.4438 165.278C19.5934 165.357 19.7183 165.477 19.805 165.622C19.8917 165.768 19.937 165.935 19.9358 166.104V167.305H23.8718V166.104C23.873 165.932 23.9219 165.764 24.0131 165.618C24.1044 165.472 24.2343 165.354 24.3884 165.278C24.5577 165.188 24.722 165.09 24.8804 164.982C25.025 164.885 25.1941 164.831 25.3682 164.826C25.5423 164.821 25.7143 164.865 25.8644 164.953L26.9075 165.553L28.8755 162.158L27.8324 161.553C27.6828 161.467 27.5604 161.341 27.4794 161.189C27.3985 161.036 27.3622 160.864 27.3749 160.692C27.3749 160.594 27.3749 160.5 27.3749 160.402C27.3749 160.303 27.3749 160.21 27.3749 160.112C27.3629 159.94 27.3989 159.769 27.4789 159.617C27.5588 159.465 27.6795 159.338 27.8275 159.251L28.8755 158.65L26.9075 155.251L25.8644 155.856C25.7131 155.941 25.5412 155.983 25.3676 155.977C25.194 155.971 25.0254 155.917 24.8804 155.821C24.722 155.714 24.5578 155.615 24.3884 155.526C24.2343 155.45 24.1044 155.332 24.0131 155.186C23.9219 155.04 23.873 154.872 23.8718 154.7V153.504H19.9358V154.705C19.937 154.874 19.8917 155.041 19.805 155.186C19.7183 155.332 19.5934 155.451 19.4438 155.531C19.2745 155.62 19.1102 155.719 18.9518 155.826C18.8068 155.922 18.6383 155.976 18.4647 155.982C18.2911 155.988 18.1192 155.946 17.9678 155.861L16.9248 155.256L14.9568 158.655L15.9998 159.256C16.1478 159.343 16.2685 159.47 16.3485 159.622C16.4284 159.774 16.4644 159.945 16.4525 160.117C16.4525 160.215 16.4525 160.308 16.4525 160.407C16.4525 160.505 16.4525 160.599 16.4525 160.697C16.4642 160.869 16.4282 161.041 16.3483 161.194C16.2684 161.347 16.1478 161.474 15.9998 161.563L14.9617 162.158ZM18.696 160.392C18.696 159.756 18.8845 159.135 19.2378 158.607C19.591 158.078 20.0931 157.666 20.6804 157.423C21.2678 157.18 21.914 157.117 22.5373 157.241C23.1607 157.366 23.7331 157.672 24.1823 158.122C24.6314 158.572 24.937 159.145 25.0604 159.768C25.1838 160.392 25.1195 161.038 24.8755 161.625C24.6316 162.212 24.2191 162.713 23.6901 163.066C23.1611 163.418 22.5395 163.606 21.9038 163.605C21.4822 163.605 21.0646 163.522 20.6751 163.36C20.2856 163.199 19.9317 162.962 19.6338 162.663C19.3359 162.365 19.0997 162.011 18.9388 161.621C18.7778 161.231 18.6953 160.814 18.696 160.392Z" fill="#EBEBEB"/>
<path d="M37.9922 0H37.5002V41.2148H37.9922V0Z" fill="#C7C7C7"/>
<path d="M52.0585 55.0105L50.9072 57.5394H24.5852L23.434 55.0105L34.6417 47.2517H40.8508L52.0585 55.0105Z" fill="#EBEBEB"/>
<path d="M41.6281 39.7782L40.8508 47.2517H34.6417L33.8644 39.7782H41.6281Z" fill="#DBDBDB"/>
<path d="M52.0585 55.0105L50.9072 57.5394H24.5803L23.434 55.0105H52.0585Z" fill="#DBDBDB"/>
<path d="M72.6044 0H72.1124V33.0526H72.6044V0Z" fill="#C7C7C7"/>
<path d="M86.6707 46.8433L85.5194 49.3771H59.1925L58.0461 46.8433L69.2539 39.0894H75.4629L86.6707 46.8433Z" fill="#EBEBEB"/>
<path d="M76.2403 31.616L75.463 39.0894H69.2539L68.4766 31.616H76.2403Z" fill="#DBDBDB"/>
<path d="M86.6658 46.8481L85.5145 49.377H59.1925L58.0461 46.8481H86.6658Z" fill="#DBDBDB"/>
<path d="M178.63 134.646H158.955V153.553H178.63V134.646Z" fill="#EBEBEB"/>
<path d="M186.109 134.646H178.63V153.553H186.109V134.646Z" fill="#C7C7C7"/>
<path d="M158.955 144.102H178.63L163.265 144.589L158.955 144.102Z" fill="#C7C7C7"/>
<path d="M178.63 151.27H158.955L174.32 151.757L178.63 151.27Z" fill="#C7C7C7"/>
<path d="M158.955 138.818H171.418L160.338 139.216L158.955 138.818Z" fill="#C7C7C7"/>
<path d="M178.63 148.49H166.168L177.248 148.884L178.63 148.49Z" fill="#C7C7C7"/>
<path d="M163.674 136.712H177.735L175.388 136.953L163.674 136.712Z" fill="#C7C7C7"/>
<path d="M160.869 146.129H174.926L172.584 146.365L160.869 146.129Z" fill="#C7C7C7"/>
<path d="M169.514 140.619H178.63L180.259 141.253L169.514 140.619Z" fill="#EBEBEB"/>
<path d="M156.441 140.619H165.563L167.191 141.253L156.441 140.619Z" fill="#EBEBEB"/>
<path d="M168.146 149.115H159.024L157.396 149.75L168.146 149.115Z" fill="#EBEBEB"/>
<path d="M178.63 146.955H185.951L187.585 147.595L178.63 146.955Z" fill="#C7C7C7"/>
<path d="M181.189 144.102H186.866L186.109 143.58L181.189 144.102Z" fill="#C7C7C7"/>
<path d="M149.342 190.458H207.491L209.361 153.558H147.472L149.342 190.458Z" fill="#EBEBEB"/>
<path d="M203.245 170.468H151.999L151.29 157.622H204.072L203.245 170.468ZM152.466 169.976H202.783L203.545 158.114H151.812L152.466 169.976Z" fill="#DBDBDB"/>
<path d="M202.552 185.209H153.47L152.894 173.607H203.275L202.552 185.209ZM153.937 184.717H202.089L202.753 174.099H153.411L153.937 184.717Z" fill="#DBDBDB"/>
<path d="M183.516 165.455H172.638L172.234 162.326H183.929L183.516 165.455ZM173.061 164.963H183.088L183.363 162.818H172.785L173.061 164.963Z" fill="#DBDBDB"/>
<path d="M183.516 180.967H172.638L172.234 177.843H183.929L183.516 180.967ZM173.061 180.475H183.088L183.363 178.335H172.785L173.061 180.475Z" fill="#DBDBDB"/>
<path d="M157.406 190.458L156.84 194.478L155.703 202.551H153.484V190.458H157.406Z" fill="#EBEBEB"/>
<path d="M157.406 190.458L156.84 194.478H153.484V190.458H157.406Z" fill="#DBDBDB"/>
<path d="M199.427 190.458L199.988 194.478L201.125 202.551H203.348V190.458H199.427Z" fill="#EBEBEB"/>
<path d="M199.427 190.458L199.988 194.478H203.348V190.458H199.427Z" fill="#DBDBDB"/>
<path d="M123 231.363C178.16 231.363 222.876 226.281 222.876 220.013C222.876 213.744 178.16 208.662 123 208.662C67.84 208.662 23.124 213.744 23.124 220.013C23.124 226.281 67.84 231.363 123 231.363Z" fill="#EBEBEB"/>
<path d="M17.9432 202.94L44.2062 202.822L70.4692 202.778L123 202.694L175.531 202.778L201.794 202.817L228.057 202.94L201.794 203.058L175.531 203.102L123 203.186L70.4692 203.102L44.2062 203.058L17.9432 202.94Z" fill="#263238"/>
<path d="M76.078 151.703C75.7035 154.299 75.8371 156.942 76.4716 159.487C76.7714 160.666 77.1697 161.818 77.6622 162.931C78.2821 164.353 78.9316 165.745 78.7741 167.3C78.6265 167.403 79.1382 167.388 79.1579 167.236C83.3202 164.864 88.6633 164.431 91.8662 160.554C93.3816 158.719 94.1491 156.392 94.5132 154.065C94.9068 151.531 95.0052 148.727 94.3607 146.227C93.8096 144.117 92.5747 142.08 90.592 141.047C88.6092 140.013 85.8589 140.063 83.704 140.737C79.0496 142.188 76.752 147.202 76.078 151.703Z" fill="#90CAF9"/>
<path d="M73.9427 182.532C74.5069 180.636 75.0792 178.744 75.6598 176.854C76.8012 173.154 77.9919 169.474 79.3055 165.824C80.0927 163.646 80.9242 161.484 81.8 159.339C81.7039 157.99 81.5397 156.647 81.308 155.315C80.9636 153.701 80.4568 152.141 79.9845 150.562C79.955 150.463 80.1124 150.414 80.1518 150.508C81.0866 152.682 82.3067 155.467 82.3412 158.045C83.3547 155.625 84.4453 153.237 85.613 150.882C85.7448 148.891 85.6822 146.892 85.426 144.914C85.426 144.825 85.5539 144.796 85.5687 144.914C85.9241 146.645 86.0613 148.413 85.977 150.178C86.8725 148.412 87.8122 146.665 88.8159 144.948C88.9094 144.791 89.1209 144.948 89.0422 145.106C87.4776 148.117 86.0262 151.192 84.6634 154.311C86.581 152.648 88.7964 151.365 91.1922 150.527C91.2956 150.493 91.3743 150.641 91.271 150.685C88.6559 151.809 86.2631 153.392 84.2058 155.359C83.2218 157.655 82.2903 159.951 81.4113 162.247C84.014 159.693 87.581 158.016 91.0299 157.115C91.148 157.081 91.1775 157.263 91.0643 157.297C87.0742 158.498 83.9746 160.741 80.939 163.477C80.5847 164.415 80.2387 165.355 79.9008 166.296C78.6118 169.863 77.3966 173.46 76.2256 177.066C75.6647 178.798 75.1137 180.53 74.5725 182.261C73.9919 184.131 73.5344 186.104 72.7767 187.905C72.7029 188.077 72.3978 188.037 72.4372 187.831C72.8468 186.04 73.3493 184.271 73.9427 182.532Z" fill="#263238"/>
<path d="M80.8455 148.062C81.5867 149.196 82.0966 150.465 82.3461 151.797C82.3461 151.805 82.343 151.812 82.3375 151.818C82.3319 151.823 82.3244 151.826 82.3166 151.826C82.3088 151.826 82.3013 151.823 82.2957 151.818C82.2902 151.812 82.2871 151.805 82.2871 151.797C81.8229 150.542 81.2806 149.318 80.6635 148.131C80.5995 148.028 80.7766 147.954 80.8455 148.062Z" fill="#263238"/>
<path d="M88.2747 156.736C89.4312 156.093 90.6947 155.665 92.004 155.472C92.0385 155.472 92.0581 155.516 92.004 155.531C91.4038 155.782 90.7691 155.954 90.1639 156.19C89.5588 156.427 88.9585 156.682 88.3386 156.923C88.3178 156.922 88.298 156.914 88.2816 156.901C88.2652 156.888 88.2528 156.87 88.2461 156.851C88.2393 156.831 88.2384 156.81 88.2435 156.789C88.2486 156.769 88.2594 156.751 88.2747 156.736Z" fill="#263238"/>
<path d="M90.3706 146.301C90.7449 146.014 91.1471 145.765 91.5711 145.558C91.5845 145.553 91.5992 145.553 91.6128 145.558C91.6264 145.562 91.6381 145.571 91.646 145.583C91.6539 145.595 91.6576 145.609 91.6565 145.623C91.6555 145.638 91.6496 145.651 91.64 145.662C91.2717 145.957 90.8744 146.214 90.4543 146.429C90.3805 146.478 90.2919 146.35 90.3706 146.301Z" fill="#263238"/>
<path d="M62.0412 165.848C65.0375 166.739 68.0535 167.561 71.0547 168.441C71.3105 168.52 76.383 158.803 74.5528 153.799C73.6787 151.531 72.3102 149.486 70.5469 147.813C68.7835 146.14 66.6695 144.88 64.3586 144.127C62.2184 143.398 59.5812 142.788 57.323 143.29C55.3107 143.733 53.879 145.381 53.2344 147.27C52.3439 149.844 52.644 152.909 53.1262 155.531C53.5127 157.996 54.5296 160.32 56.0782 162.276C57.6723 164.171 59.7042 165.155 62.0412 165.848Z" fill="#90CAF9"/>
<path d="M57.6919 156.614C59.5955 157.541 61.5697 158.316 63.5959 158.931C64.9465 159.29 66.2634 159.766 67.5319 160.353C66.2675 157.529 64.8751 154.764 63.3991 152.023C61.4656 151.462 59.4287 150.587 57.9871 149.219C57.9747 149.207 57.9663 149.191 57.9633 149.173C57.9603 149.156 57.9628 149.138 57.9704 149.123C57.978 149.107 57.9904 149.094 58.0057 149.086C58.0211 149.077 58.0387 149.074 58.056 149.076C59.655 150.208 61.4164 150.882 63.1827 151.649C62.7858 150.911 62.3823 150.175 61.9723 149.44C61.8592 149.234 62.1396 149.032 62.2774 149.229C63.8527 151.519 65.276 153.91 66.5381 156.387C66.8588 154.217 66.961 152.02 66.8431 149.829C66.8431 149.817 66.8478 149.806 66.8561 149.798C66.8644 149.789 66.8757 149.785 66.8874 149.785C66.8992 149.785 66.9104 149.789 66.9187 149.798C66.927 149.806 66.9317 149.817 66.9317 149.829C67.3082 152.217 67.2833 154.652 66.8579 157.032C67.9108 159.133 68.8702 161.283 69.7312 163.462C70.0707 162.153 70.5184 160.864 70.8136 159.526C71.2675 157.638 71.4121 155.689 71.2416 153.755C71.2416 153.743 71.2463 153.732 71.2546 153.724C71.2629 153.715 71.2742 153.711 71.2859 153.711C71.2976 153.711 71.3089 153.715 71.3172 153.724C71.3255 153.732 71.3302 153.743 71.3302 153.755C71.8597 157.337 71.4249 160.995 70.0707 164.353C70.5627 165.666 71.0547 166.98 71.4876 168.289C73.748 175.013 75.0869 182.012 75.4679 189.095C75.4621 189.124 75.4465 189.15 75.4236 189.169C75.4007 189.188 75.372 189.198 75.3424 189.198C75.3128 189.198 75.2842 189.188 75.2613 189.169C75.2384 189.15 75.2228 189.124 75.217 189.095C74.4305 182.106 72.9337 175.215 70.7496 168.53C69.8788 165.917 68.8751 163.379 67.7976 160.889C66.0264 160.363 64.2601 159.654 62.5234 159.049C60.7826 158.529 59.14 157.725 57.6624 156.668C57.564 156.673 57.6329 156.584 57.6919 156.614Z" fill="#263238"/>
<path d="M54.8974 153.794C56.7326 154.444 58.4693 155.359 60.3094 156.018C60.398 156.053 60.3488 156.185 60.2602 156.171C58.3217 155.767 56.398 155.187 54.8482 153.898C54.7695 153.848 54.8335 153.77 54.8974 153.794Z" fill="#263238"/>
<path d="M69.864 149.834C69.8394 149.74 69.9821 149.681 70.0116 149.785C70.5036 151.472 70.8628 153.268 70.3757 154.995C70.3717 155.009 70.3631 155.022 70.3511 155.031C70.3391 155.041 70.3244 155.045 70.3093 155.045C70.2942 155.045 70.2795 155.041 70.2675 155.031C70.2555 155.022 70.2469 155.009 70.2429 154.995C70.1642 153.248 70.2626 151.536 69.864 149.834Z" fill="#263238"/>
<path d="M62.2921 145.932C62.8787 146.771 63.16 147.785 63.0892 148.805C63.0892 148.869 62.9858 148.909 62.9662 148.83C62.7448 147.846 62.3708 146.98 62.0756 146.045C62.065 146.017 62.065 145.986 62.0756 145.958C62.0863 145.93 62.107 145.907 62.1336 145.893C62.1603 145.879 62.1912 145.875 62.2204 145.882C62.2496 145.89 62.2751 145.907 62.2921 145.932Z" fill="#263238"/>
<path d="M97.7112 170.134C96.8355 172.923 94.7592 176.781 91.4333 176.81C89.2931 176.81 87.1332 176.579 84.9832 176.544C82.6806 176.51 80.3731 176.515 78.0952 176.653C77.9082 176.653 78.3707 169.765 83.9008 166.394C85.4555 165.455 87.3448 165.155 89.1061 164.776C91.1199 164.298 93.1871 164.083 95.2561 164.136C96.5255 164.185 97.5833 164.456 98.0359 165.755C98.4886 167.054 98.1343 168.805 97.7112 170.134Z" fill="#90CAF9"/>
<path d="M95.3299 166.64C93.9868 166.985 92.6288 167.383 91.2808 167.811C91.6321 167.428 92.005 167.065 92.3976 166.724C92.9733 166.232 93.6128 165.858 94.2328 165.435C94.2869 165.401 94.2574 165.302 94.1885 165.327C92.8809 165.87 91.7511 166.768 90.9265 167.92C89.2439 168.466 87.5809 169.066 85.977 169.72C84.868 170.175 83.8053 170.735 82.8036 171.393C83.1265 170.695 83.5101 170.027 83.95 169.396C84.688 168.446 85.6818 167.92 86.6412 167.241C86.6608 167.23 86.6751 167.211 86.6811 167.189C86.6871 167.168 86.6843 167.145 86.6732 167.125C86.6621 167.105 86.6437 167.091 86.622 167.085C86.6003 167.079 86.5771 167.082 86.5576 167.093C85.5513 167.529 84.6473 168.17 83.9034 168.976C83.1596 169.782 82.5922 170.734 82.2378 171.772C81.0866 172.597 80.0349 173.553 79.1038 174.621C75.4384 178.778 72.5553 184.313 72.5454 189.956C72.5454 190.089 72.7619 190.128 72.7865 189.991C73.7289 184.457 76.14 179.278 79.768 174.995C80.0337 174.69 80.2993 174.394 80.5749 174.114C81.578 173.978 82.5885 173.905 83.6006 173.892C84.7765 173.892 85.9475 174.065 87.1185 174.158C89.052 174.316 91.1873 174.34 92.929 173.366C93.0077 173.322 92.9536 173.189 92.8699 173.223C88.9831 174.635 84.9094 172.845 81.0176 173.686C82.6796 172.098 84.6281 170.841 86.7593 169.981L87.1135 169.838C89.608 170.139 92.2402 170.788 94.6657 169.976C94.6789 169.971 94.6896 169.961 94.696 169.948C94.7023 169.935 94.7038 169.921 94.7002 169.907C94.6966 169.893 94.6882 169.881 94.6764 169.873C94.6646 169.865 94.6504 169.861 94.6362 169.863C92.2894 170.448 90.0409 169.711 87.7482 169.592C90.2722 168.608 92.8404 167.831 95.3693 166.857C95.5562 166.788 95.5612 166.581 95.3299 166.64Z" fill="#263238"/>
<path d="M96.4321 169.096C95.2274 169.251 94.0154 169.343 92.8011 169.371C92.7765 169.371 92.7667 169.415 92.8011 169.42C94.022 169.645 95.2797 169.564 96.4616 169.184C96.5157 169.169 96.4911 169.086 96.4321 169.096Z" fill="#263238"/>
<path d="M88.2354 166.7C87.5661 167.004 86.9577 167.427 86.4396 167.949C86.3756 168.008 86.4642 168.121 86.533 168.067C86.8381 167.846 87.148 167.639 87.4678 167.433C87.7681 167.265 88.0588 167.081 88.3387 166.882C88.3558 166.865 88.3668 166.843 88.3702 166.819C88.3735 166.796 88.3689 166.772 88.3571 166.751C88.3453 166.73 88.327 166.714 88.305 166.704C88.2829 166.695 88.2585 166.693 88.2354 166.7Z" fill="#263238"/>
<path d="M68.698 175.683C68.7423 175.777 68.6094 175.866 68.5553 175.767C68.5457 175.781 68.5333 175.793 68.519 175.803C68.5046 175.812 68.4885 175.818 68.4717 175.821C66.2448 176.354 63.9871 176.748 61.7116 177.002C59.8813 177.164 57.7756 177.268 56.1717 176.205C54.0019 174.763 52.5751 170.916 53.7461 168.476C55.1335 165.573 59.3155 167.147 61.4164 168.18C64.6455 169.754 67.2218 172.409 68.698 175.683Z" fill="#90CAF9"/>
<path d="M70.3216 177.027C69.1033 175.847 67.749 174.816 66.2872 173.956C65.2368 172.289 63.8409 170.866 62.1937 169.784C62.115 169.73 62.0461 169.853 62.1199 169.912C63.4266 170.96 64.5852 172.179 65.5639 173.538C63.9399 172.643 62.2528 171.867 60.516 171.216C59.893 170.063 58.9476 169.115 57.7952 168.49C57.7952 168.49 57.7411 168.49 57.7657 168.525C58.7171 169.248 59.5474 170.119 60.2257 171.103C59.1974 170.719 58.1593 170.365 57.1212 170.02C57.0277 169.986 56.9933 170.129 57.0818 170.163C58.9268 170.886 60.821 171.639 62.6513 172.53C60.4168 172.884 58.1405 172.884 55.906 172.53C55.8939 172.527 55.8814 172.529 55.8707 172.535C55.86 172.541 55.8521 172.551 55.8484 172.563C55.8446 172.575 55.8455 172.587 55.8507 172.598C55.8559 172.61 55.8651 172.618 55.8764 172.623C58.2078 173.314 60.6839 173.351 63.035 172.731C64.2024 173.298 65.336 173.932 66.4298 174.631C65.5101 174.557 64.5846 174.633 63.6894 174.857C62.1071 175.225 60.4874 175.408 58.8629 175.403C58.8038 175.403 58.7891 175.501 58.8629 175.511C61.6624 176.003 64.3093 174.719 67.0793 175.054C68.1086 175.754 69.075 176.542 69.9673 177.41C71.6964 179.14 73.1204 181.149 74.1788 183.354C75.3449 185.73 75.9796 188.244 76.9242 190.699C76.9271 190.711 76.9322 190.721 76.9392 190.731C76.9462 190.74 76.955 190.748 76.9651 190.754C76.9751 190.76 76.9863 190.763 76.9978 190.765C77.0094 190.767 77.0211 190.766 77.0324 190.763C77.0438 190.76 77.0544 190.755 77.0637 190.748C77.073 190.741 77.0809 190.732 77.0868 190.722C77.0928 190.712 77.0967 190.701 77.0983 190.69C77.1 190.678 77.0993 190.666 77.0964 190.655C76.26 185.814 73.8492 180.475 70.3216 177.027Z" fill="#263238"/>
<path d="M61.8838 170.389C61.6991 170.061 61.4576 169.768 61.1704 169.524C60.9356 169.267 60.6554 169.057 60.3438 168.904C60.3383 168.903 60.3327 168.904 60.3276 168.906C60.3226 168.908 60.3182 168.912 60.3151 168.916C60.3121 168.921 60.3103 168.927 60.3102 168.932C60.31 168.938 60.3115 168.943 60.3143 168.948C60.5455 169.209 60.8653 169.401 61.1113 169.651C61.3573 169.902 61.5689 170.193 61.8198 170.439C61.8231 170.443 61.8271 170.446 61.8317 170.449C61.8363 170.452 61.8413 170.453 61.8466 170.454C61.8518 170.455 61.8572 170.454 61.8623 170.453C61.8674 170.452 61.8722 170.449 61.8764 170.446C61.8806 170.443 61.8841 170.439 61.8868 170.434C61.8894 170.43 61.8911 170.425 61.8918 170.419C61.8925 170.414 61.8921 170.409 61.8908 170.404C61.8894 170.398 61.887 170.394 61.8838 170.389Z" fill="#263238"/>
<path d="M57.2688 171.89C56.8555 171.787 56.4176 171.797 55.9945 171.708C55.5759 171.61 55.1635 171.487 54.7596 171.339C54.7472 171.334 54.7332 171.334 54.7208 171.339C54.7083 171.344 54.6984 171.354 54.6932 171.366C54.688 171.379 54.6879 171.392 54.693 171.405C54.698 171.417 54.7078 171.427 54.7202 171.433C55.4823 171.903 56.3776 172.11 57.2688 172.023C57.2834 172.019 57.2962 172.01 57.3053 171.998C57.3145 171.986 57.3194 171.972 57.3194 171.957C57.3194 171.941 57.3145 171.927 57.3053 171.915C57.2962 171.903 57.2834 171.894 57.2688 171.89Z" fill="#263238"/>
<path d="M81.8492 184.692L81.4802 188.859L80.2354 202.94H69.2097L67.6501 188.859L67.1925 184.692H81.8492Z" fill="#455A64"/>
<path d="M81.8492 184.692L81.4802 188.859H67.6501L67.1925 184.692H81.8492Z" fill="#263238"/>
<path d="M82.9414 183.55H66.1002V186.935H82.9414V183.55Z" fill="#455A64"/>
<path d="M87.7236 214.374H84.4222L107.546 121.726H115.768L87.7236 214.374Z" fill="#455A64"/>
<path d="M107.546 121.731H115.768L109.362 142.892H102.267L107.546 121.731Z" fill="#263238"/>
<path d="M119.728 209.454H116.432L118.892 121.726H127.108L119.728 209.454Z" fill="#455A64"/>
<path d="M118.892 121.731H127.108L125.327 142.892H118.296L118.892 121.731Z" fill="#263238"/>
<path d="M151.88 214.374H155.182L136.978 121.726H128.756L151.88 214.374Z" fill="#455A64"/>
<path d="M141.135 142.892H134.035L128.756 121.731H136.978L141.135 142.892Z" fill="#263238"/>
<path d="M145.115 174.685H97.1355V176.495H145.115V174.685Z" fill="#455A64"/>
<path d="M188.347 31.0206H57.6476V127.462H188.347V31.0206Z" fill="#EBEBEB"/>
<path d="M193.139 27.1781H52.8654V34.3269H193.139V27.1781Z" fill="#37474F"/>
<path d="M147.915 46.4399H98.085V47.542H147.915V46.4399Z" fill="#C7C7C7"/>
<path d="M139.393 48.7424H106.606V49.8445H139.393V48.7424Z" fill="#C7C7C7"/>
<path d="M82.1196 58.2577L125.096 58.1445C139.418 58.1839 149.558 58.1445 163.88 58.2577C149.558 58.3561 139.418 58.3315 125.096 58.3758L82.1196 58.2577Z" fill="#C7C7C7"/>
<path d="M82.1196 61.7656L125.096 61.6525C139.418 61.6918 149.558 61.6525 163.88 61.7656C149.558 61.864 139.418 61.8394 125.096 61.8788L82.1196 61.7656Z" fill="#C7C7C7"/>
<path d="M82.1196 65.2687L125.096 65.1555C139.418 65.1949 149.558 65.1555 163.88 65.2687C149.558 65.3671 139.418 65.3425 125.096 65.3818L82.1196 65.2687Z" fill="#C7C7C7"/>
<path d="M82.1196 68.7768L125.096 68.6587C139.418 68.703 149.558 68.6587 163.88 68.7768C149.558 68.8752 139.418 68.8506 125.096 68.8899L82.1196 68.7768Z" fill="#C7C7C7"/>
<path d="M82.1196 72.2797L125.096 72.1665C139.418 72.2059 149.558 72.1665 163.88 72.2797C149.558 72.3781 139.418 72.3535 125.096 72.3928L82.1196 72.2797Z" fill="#C7C7C7"/>
<path d="M82.1196 75.7679L125.096 75.6548C139.418 75.6941 149.558 75.6548 163.88 75.7679C149.558 75.8663 139.418 75.8417 125.096 75.886L82.1196 75.7679Z" fill="#C7C7C7"/>
<path d="M82.1196 79.2907L125.096 79.1775C139.418 79.2169 149.558 79.1775 163.88 79.2907C149.558 79.3891 139.418 79.3645 125.096 79.4038L82.1196 79.2907Z" fill="#C7C7C7"/>
<path d="M82.1196 82.7938L125.096 82.6807C139.418 82.72 149.558 82.6807 163.88 82.7938C149.558 82.8922 139.418 82.8676 125.096 82.907L82.1196 82.7938Z" fill="#C7C7C7"/>
<path d="M82.1196 86.3017L125.096 86.1836C139.418 86.2279 149.558 86.1836 163.88 86.3017C149.558 86.4001 139.418 86.3706 125.096 86.4148L82.1196 86.3017Z" fill="#C7C7C7"/>
<path d="M82.1196 89.8048L125.096 89.6917C139.418 89.731 149.558 89.6916 163.88 89.8048C149.558 89.9032 139.418 89.8786 125.096 89.918L82.1196 89.8048Z" fill="#C7C7C7"/>
<path d="M82.1196 93.3077L125.096 93.1946C139.418 93.2339 149.558 93.1946 163.88 93.3077C149.558 93.4061 139.418 93.3815 125.096 93.4209L82.1196 93.3077Z" fill="#C7C7C7"/>
<path d="M82.1196 96.8158L125.096 96.7026C139.418 96.742 149.558 96.7026 163.88 96.8158C149.558 96.9142 139.418 96.8896 125.096 96.929L82.1196 96.8158Z" fill="#C7C7C7"/>
<path d="M82.1196 100.319L125.096 100.206C139.418 100.245 149.558 100.206 163.88 100.319C149.558 100.417 139.418 100.393 125.096 100.432L82.1196 100.319Z" fill="#C7C7C7"/>
<path d="M82.1196 103.812L125.096 103.699C139.418 103.738 149.558 103.699 163.88 103.812C149.558 103.915 139.418 103.886 125.096 103.93L82.1196 103.812Z" fill="#C7C7C7"/>
<path d="M82.1196 107.33L125.096 107.217C139.418 107.256 149.558 107.217 163.88 107.33C149.558 107.428 139.418 107.404 125.096 107.443L82.1196 107.33Z" fill="#C7C7C7"/>
<path d="M97.7258 98.4099H91.2068V111.413H97.7258V98.4099Z" fill="#90CAF9"/>
<path d="M109.819 88.5747H103.3V111.418H109.819V88.5747Z" fill="#90CAF9"/>
<path d="M121.908 86.3953H115.389V111.413H121.908V86.3953Z" fill="#90CAF9"/>
<path d="M134.001 79.9402H127.482V111.413H134.001V79.9402Z" fill="#90CAF9"/>
<path d="M146.09 66.1887H139.571V111.413H146.09V66.1887Z" fill="#90CAF9"/>
<path d="M158.183 60.6095H151.664V111.413H158.183V60.6095Z" fill="#90CAF9"/>
<path d="M84.4517 55.7977L84.6288 69.7016L84.7518 83.6056C84.8355 92.8748 84.8601 102.144 84.8748 111.413L84.4517 110.99H105.357L126.262 111.039L147.167 111.177L163.895 111.428L147.167 111.679L126.262 111.822L105.357 111.871H84.4517H84.0237V111.448C84.0237 102.179 84.063 92.9093 84.1467 83.64L84.2697 69.7361L84.4517 55.7977Z" fill="#C7C7C7"/>
<path d="M97.7258 114.356H91.2068V114.946H97.7258V114.356Z" fill="#C7C7C7"/>
<path d="M109.819 114.356H103.3V114.946H109.819V114.356Z" fill="#C7C7C7"/>
<path d="M121.908 114.356H115.389V114.946H121.908V114.356Z" fill="#C7C7C7"/>
<path d="M134.001 114.356H127.482V114.946H134.001V114.356Z" fill="#C7C7C7"/>
<path d="M146.09 114.356H139.571V114.946H146.09V114.356Z" fill="#C7C7C7"/>
<path d="M158.183 114.356H151.664V114.946H158.183V114.356Z" fill="#C7C7C7"/>
<path d="M91.2462 98.1195L91.1675 97.6275C91.5217 97.5684 127.083 91.3249 155.221 59.2515L155.59 59.5762C127.325 91.7923 91.6054 98.0604 91.2462 98.1195Z" fill="#263238"/>
<path d="M156.077 60.4619L156.559 58.0609L154.237 58.8432L156.077 60.4619Z" fill="#263238"/>
<path d="M185.336 50.4595H169.159V69.6278H185.336V50.4595Z" fill="white"/>
<path d="M177.828 51.7633C177.829 51.8795 177.796 51.9934 177.732 52.0904C177.668 52.1875 177.576 52.2633 177.469 52.3082C177.362 52.3531 177.244 52.3651 177.13 52.3427C177.016 52.3203 176.911 52.2644 176.829 52.1822C176.747 52.1 176.691 51.9953 176.668 51.8812C176.646 51.7672 176.658 51.6491 176.703 51.5419C176.748 51.4347 176.824 51.3433 176.921 51.2794C177.018 51.2154 177.132 51.1818 177.248 51.1828C177.402 51.1828 177.549 51.2439 177.658 51.3528C177.767 51.4617 177.828 51.6093 177.828 51.7633Z" fill="#455A64"/>
<path d="M172.234 54.2972C173.873 54.1742 175.506 54.1643 177.154 54.1446C178.803 54.125 180.426 54.1446 182.074 54.2972C180.441 54.4251 178.803 54.4349 177.154 54.4497C175.506 54.4644 173.873 54.4251 172.234 54.2972Z" fill="#EBEBEB"/>
<path d="M172.234 55.8124C174.008 55.6091 175.799 55.6091 177.573 55.8124C175.799 56.0158 174.008 56.0158 172.234 55.8124Z" fill="#EBEBEB"/>
<path d="M172.234 57.3277C173.371 57.2096 174.507 57.1801 175.644 57.1752C176.78 57.1703 177.917 57.2096 179.053 57.3277C177.917 57.4458 176.78 57.4753 175.644 57.4803C174.507 57.4852 173.371 57.4458 172.234 57.3277Z" fill="#EBEBEB"/>
<path d="M172.234 58.8432C173.656 58.7252 175.078 58.6956 176.5 58.6907C177.922 58.6858 179.344 58.7252 180.766 58.8432C179.344 58.9613 177.922 58.9908 176.5 58.9958C175.078 59.0007 173.676 58.9613 172.234 58.8432Z" fill="#EBEBEB"/>
<path d="M172.234 60.3585C173.469 60.2405 174.694 60.2109 175.939 60.206C177.184 60.2011 178.399 60.2355 179.644 60.3585C178.409 60.4766 177.184 60.5061 175.939 60.5111C174.694 60.516 173.469 60.4766 172.234 60.3585Z" fill="#EBEBEB"/>
<path d="M172.234 61.8739C173.819 61.746 175.398 61.7362 176.977 61.7214C178.557 61.7066 180.141 61.7214 181.72 61.8739C180.141 61.9969 178.557 62.0068 176.977 62.0215C175.398 62.0363 173.819 61.992 172.234 61.8739Z" fill="#EBEBEB"/>
<path d="M172.234 63.3844C174.271 63.1876 176.323 63.1876 178.36 63.3844C176.323 63.5878 174.271 63.5878 172.234 63.3844Z" fill="#EBEBEB"/>
<path d="M172.234 64.8996C173.873 64.7766 175.506 64.7668 177.154 64.7471C178.803 64.7274 180.426 64.7766 182.074 64.8996C180.441 65.0276 178.803 65.0374 177.154 65.0522C175.506 65.0669 173.873 65.0276 172.234 64.8996Z" fill="#EBEBEB"/>
<path d="M172.234 66.42C173.873 66.297 175.506 66.2871 177.154 66.2674C178.803 66.2478 180.426 66.2674 182.074 66.42C180.441 66.5479 178.803 66.5577 177.154 66.5725C175.506 66.5872 173.873 66.543 172.234 66.42Z" fill="#EBEBEB"/>
<path d="M80.8552 72.1027H61.7164V94.7839H80.8552V72.1027Z" fill="white"/>
<path d="M71.8664 75.1628C71.8664 75.2777 71.8324 75.3899 71.7686 75.4854C71.7048 75.5808 71.6141 75.6553 71.5081 75.6992C71.402 75.7431 71.2852 75.7546 71.1726 75.7322C71.06 75.7098 70.9566 75.6545 70.8754 75.5734C70.7942 75.4922 70.7389 75.3887 70.7165 75.2761C70.6941 75.1635 70.7056 75.0468 70.7495 74.9407C70.7935 74.8346 70.8679 74.7439 70.9633 74.6801C71.0588 74.6163 71.1711 74.5823 71.2859 74.5823C71.3621 74.5823 71.4376 74.5973 71.5081 74.6265C71.5785 74.6556 71.6425 74.6984 71.6964 74.7523C71.7503 74.8062 71.7931 74.8702 71.8223 74.9407C71.8514 75.0111 71.8664 75.0866 71.8664 75.1628Z" fill="#455A64"/>
<path d="M64.3929 77.7605C65.801 77.5572 67.2309 77.5572 68.6389 77.7605C67.2309 77.9639 65.801 77.9639 64.3929 77.7605Z" fill="#EBEBEB"/>
<path d="M64.3929 79.4679C66.2212 79.2711 68.0653 79.2711 69.8935 79.4679C68.0656 79.6713 66.2208 79.6713 64.3929 79.4679Z" fill="#EBEBEB"/>
<path d="M64.3929 81.18C66.0843 80.9766 67.7938 80.9766 69.4851 81.18C67.7938 81.3833 66.0843 81.3833 64.3929 81.18Z" fill="#EBEBEB"/>
<path d="M64.3929 82.8921C65.2382 82.7849 66.0895 82.734 66.9415 82.7396C67.7919 82.7315 68.6418 82.7825 69.4851 82.8921C67.7938 83.0955 66.0843 83.0955 64.3929 82.8921Z" fill="#EBEBEB"/>
<path d="M64.3929 84.6239C65.8619 84.4206 67.3519 84.4206 68.8209 84.6239C67.3519 84.8273 65.8619 84.8273 64.3929 84.6239Z" fill="#EBEBEB"/>
<path d="M64.3929 86.3116C66.2751 86.1082 68.1737 86.1082 70.0559 86.3116C69.1167 86.4188 68.1721 86.4697 67.2269 86.4641C66.2801 86.4673 65.3339 86.4164 64.3929 86.3116Z" fill="#EBEBEB"/>
<path d="M64.3929 88.0188C65.1675 87.9143 65.9484 87.8633 66.7299 87.8663C67.5116 87.8606 68.2927 87.9115 69.0669 88.0188C68.2929 88.1285 67.5117 88.1795 66.7299 88.1713C65.9483 88.1768 65.1673 88.1258 64.3929 88.0188Z" fill="#EBEBEB"/>
<path d="M64.3929 89.7309C66.3409 89.5275 68.3047 89.5275 70.2527 89.7309C68.3047 89.9343 66.3409 89.9343 64.3929 89.7309Z" fill="#EBEBEB"/>
<path d="M64.3929 91.4381C66.3412 91.2413 68.3044 91.2413 70.2527 91.4381C68.3047 91.6415 66.3409 91.6415 64.3929 91.4381Z" fill="#EBEBEB"/>
<path d="M72.757 77.7606C74.6062 77.5572 76.4722 77.5572 78.3215 77.7606C76.4722 77.9639 74.6062 77.9639 72.757 77.7606Z" fill="#EBEBEB"/>
<path d="M72.757 79.4679C73.9692 79.2711 75.2052 79.2711 76.4174 79.4679C75.2058 79.6713 73.9686 79.6713 72.757 79.4679Z" fill="#EBEBEB"/>
<path d="M72.757 81.18C74.496 80.9766 76.2528 80.9766 77.9918 81.18C76.2528 81.3834 74.496 81.3834 72.757 81.18Z" fill="#EBEBEB"/>
<path d="M72.757 82.8921C73.6022 82.7849 74.4536 82.734 75.3055 82.7396C76.1559 82.7315 77.0058 82.7825 77.8492 82.8921C76.1578 83.0955 74.4483 83.0955 72.757 82.8921Z" fill="#EBEBEB"/>
<path d="M72.757 84.624C74.6062 84.4206 76.4722 84.4206 78.3215 84.624C76.4722 84.8273 74.6062 84.8273 72.757 84.624Z" fill="#EBEBEB"/>
<path d="M72.757 86.3116C74.226 86.1082 75.716 86.1082 77.185 86.3116C76.4519 86.4186 75.7118 86.4696 74.971 86.4641C74.2302 86.4672 73.4903 86.4162 72.757 86.3116Z" fill="#EBEBEB"/>
<path d="M72.757 88.0188C73.6255 87.9142 74.4996 87.8633 75.3744 87.8663C76.2493 87.8605 77.1236 87.9115 77.9918 88.0188C77.1238 88.1286 76.2493 88.1795 75.3744 88.1713C74.4995 88.1768 73.6253 88.1258 72.757 88.0188Z" fill="#EBEBEB"/>
<path d="M72.757 89.731C74.099 89.5277 75.4641 89.5277 76.8061 89.731C75.4641 89.9343 74.099 89.9343 72.757 89.731Z" fill="#EBEBEB"/>
<path d="M72.757 91.4382C74.0451 91.2413 75.3556 91.2413 76.6438 91.4382C75.3561 91.6415 74.0446 91.6415 72.757 91.4382Z" fill="#EBEBEB"/>
<path d="M172.234 41.9725H162.503V51.7043H172.234V41.9725Z" fill="#90CAF9"/>
<path d="M167.949 42.9614C167.949 43.0762 167.915 43.1885 167.851 43.284C167.787 43.3794 167.697 43.4538 167.591 43.4978C167.484 43.5417 167.368 43.5532 167.255 43.5308C167.143 43.5084 167.039 43.4531 166.958 43.3719C166.877 43.2907 166.821 43.1873 166.799 43.0747C166.777 42.9621 166.788 42.8453 166.832 42.7392C166.876 42.6332 166.95 42.5425 167.046 42.4787C167.141 42.4149 167.254 42.3809 167.368 42.3809C167.522 42.3809 167.67 42.442 167.779 42.5509C167.888 42.6598 167.949 42.8074 167.949 42.9614Z" fill="#455A64"/>
<path d="M172.053 219.034C173.037 219.348 200.746 218.989 201.794 218.305C202.197 218.05 202.379 214.01 202.458 209.12V208.962C202.458 207.978 202.493 206.921 202.493 205.868C202.493 205.72 202.493 205.577 202.493 205.435C202.532 198.374 202.424 191.049 202.424 191.049L183.875 191.236L184.436 205.504V206.069L184.549 209.021V209.326C184.549 209.326 174.001 214.207 172.928 215.083C171.856 215.959 171.078 218.724 172.053 219.034Z" fill="#EB9481"/>
<path d="M180.382 211.196C180.456 211.196 180.49 211.152 180.495 211.132L180.382 211.196Z" fill="#90CAF9"/>
<path d="M172.053 219.033C173.037 219.348 200.746 218.989 201.794 218.305C202.153 218.079 202.335 214.861 202.429 210.714C197.351 211.772 177.661 215.757 177.125 214.069C176.913 213.41 178.601 212.264 179.659 211.609C176.751 212.997 173.529 214.586 172.963 215.053C171.9 215.929 171.078 218.724 172.053 219.033Z" fill="#455A64"/>
<path d="M189.464 218.989C195.703 218.842 201.331 218.605 201.794 218.305C202.153 218.079 202.335 214.861 202.429 210.714C201.71 210.861 200.692 211.073 199.477 211.314L189.464 218.989Z" fill="#263238"/>
<path d="M208.116 111.192C208.116 111.192 203.954 158.035 203.275 161.612C203.117 162.429 203.019 166.857 202.955 172.544C202.812 184.963 202.901 207.358 202.901 207.358H183.359C183.359 207.358 183.934 168.554 184.8 161.415C185.666 154.276 191.196 111.192 191.196 111.192H208.116Z" fill="#37474F"/>
<path d="M184.239 203.954C187.29 203.89 186.414 203.865 189.464 203.836C190.94 203.836 200.78 203.737 202.158 203.968C202.188 203.968 202.188 204.028 202.158 204.032C200.761 204.264 190.955 204.175 189.464 204.16C186.414 204.131 187.29 204.106 184.239 204.042C184.234 204.042 184.228 204.041 184.222 204.039C184.217 204.037 184.212 204.033 184.208 204.029C184.204 204.025 184.201 204.02 184.198 204.015C184.196 204.01 184.195 204.004 184.195 203.998C184.195 203.992 184.196 203.986 184.198 203.981C184.201 203.976 184.204 203.971 184.208 203.967C184.212 203.963 184.217 203.959 184.222 203.957C184.228 203.955 184.234 203.954 184.239 203.954Z" fill="#263238"/>
<path d="M199.186 181.774C199.206 178.937 199.227 176.101 199.25 173.268C199.25 170.522 199.25 167.777 199.398 165.031C199.659 159.482 200.785 154.021 201.587 148.53C202.389 143.039 203.063 137.524 203.663 132.004C204.342 125.814 204.943 119.61 205.577 113.416C205.577 113.376 205.651 113.376 205.646 113.416C204.726 124.481 203.678 135.556 202.168 146.537C201.784 149.273 201.367 152.003 200.918 154.729C200.461 157.484 200.008 160.244 199.791 163.034C199.575 165.824 199.541 168.5 199.516 171.24L199.427 179.737C199.368 186.03 199.309 195.713 199.245 202.005C199.245 202.03 199.235 202.054 199.218 202.071C199.2 202.089 199.177 202.099 199.152 202.099C199.127 202.099 199.103 202.089 199.086 202.071C199.068 202.054 199.058 202.03 199.058 202.005C199.103 196.387 199.142 187.383 199.186 181.774Z" fill="#263238"/>
<path d="M212.234 111.192C212.234 111.192 203.954 158.035 203.275 161.612C203.117 162.429 203.019 166.857 202.955 172.544L193.641 111.192H212.234Z" fill="#263238"/>
<path d="M194.744 220.686C195.728 220.932 223.363 218.61 224.362 217.853C224.741 217.572 224.637 213.528 224.362 208.642V208.49C224.313 207.481 224.249 206.443 224.18 205.395L224.15 204.962C223.693 197.917 223.063 190.62 223.063 190.62L204.574 192.121L206.143 206.291L206.202 206.851L206.522 209.803L206.556 210.104C206.556 210.104 196.377 215.722 195.368 216.672C194.36 217.621 193.755 220.445 194.744 220.686Z" fill="#EB9481"/>
<path d="M194.748 220.687C195.732 220.933 223.363 218.61 224.362 217.853C224.687 217.612 224.662 214.625 224.48 210.719C220.2 211.811 199.575 216.997 198.945 215.294C198.812 214.93 199.25 214.399 199.846 213.877C198.302 214.718 196.808 215.644 195.368 216.652C194.375 217.602 193.755 220.446 194.748 220.687Z" fill="#455A64"/>
<path d="M205.725 208.416L225.252 207.59C225.252 207.59 219.919 164.746 219.84 162.114C219.698 158.178 217.818 142.04 216.244 128.958C216.244 128.958 219.23 121.873 213.636 111.177H191.201C191.201 111.177 192.702 121.357 195.28 127.812C197 128.419 198.662 129.182 200.244 130.09C200.244 130.09 202.478 159.255 202.561 162.896C202.729 170.089 205.725 208.416 205.725 208.416Z" fill="#37474F"/>
<path d="M206.247 204.839C209.292 204.647 208.411 204.657 211.457 204.5C212.933 204.421 222.743 203.919 224.146 204.091C224.152 204.094 224.157 204.098 224.161 204.104C224.165 204.11 224.167 204.116 224.167 204.123C224.167 204.13 224.165 204.137 224.161 204.143C224.157 204.148 224.152 204.153 224.146 204.155C222.763 204.446 212.957 204.775 211.467 204.824C208.421 204.923 209.292 204.859 206.247 204.928C206.192 204.928 206.188 204.839 206.247 204.839Z" fill="#263238"/>
<path d="M194.409 127.369C196.428 128.108 198.38 129.018 200.244 130.09C200.257 130.099 200.266 130.112 200.27 130.127C200.274 130.142 200.273 130.159 200.266 130.173C200.26 130.187 200.249 130.199 200.235 130.206C200.221 130.213 200.205 130.216 200.19 130.213C198.222 129.366 196.22 128.555 194.286 127.605C194.27 127.597 194.257 127.586 194.245 127.573C194.234 127.559 194.226 127.544 194.221 127.527C194.215 127.51 194.213 127.493 194.215 127.475C194.216 127.458 194.221 127.441 194.229 127.426C194.237 127.41 194.249 127.396 194.262 127.385C194.275 127.374 194.291 127.365 194.307 127.36C194.324 127.355 194.342 127.353 194.359 127.354C194.377 127.356 194.393 127.361 194.409 127.369Z" fill="#263238"/>
<path d="M193.779 113.873C193.779 113.804 193.907 113.79 193.907 113.873C193.905 116.069 194.015 118.262 194.237 120.446C194.325 121.46 195.142 127.059 196.899 126.651C197.194 126.582 197.341 126.291 197.391 125.849C197.382 125.269 197.303 124.692 197.154 124.132C196.963 122.961 196.805 121.785 196.702 120.599C196.498 118.393 196.522 116.172 196.776 113.972C196.779 113.96 196.787 113.949 196.797 113.941C196.807 113.934 196.819 113.93 196.832 113.93C196.845 113.93 196.857 113.934 196.867 113.941C196.878 113.949 196.885 113.96 196.889 113.972C196.838 117.028 197.018 120.084 197.425 123.113C197.642 124.589 198.38 126.764 196.854 126.99C195.329 127.216 194.301 123.546 194.109 122.537C193.626 119.676 193.515 116.764 193.779 113.873Z" fill="#263238"/>
<path d="M196.854 126.788C197.01 127.167 197.141 127.555 197.248 127.949C197.36 128.255 197.415 128.579 197.41 128.904C197.41 128.968 197.322 128.973 197.292 128.933C197.11 128.646 196.972 128.333 196.884 128.004C196.746 127.644 196.608 127.285 196.485 126.926C196.467 126.877 196.469 126.823 196.491 126.775C196.512 126.728 196.552 126.691 196.601 126.673C196.65 126.654 196.704 126.656 196.752 126.678C196.799 126.7 196.836 126.739 196.854 126.788Z" fill="#263238"/>
<path d="M185.337 90.2968C185.33 90.3478 185.341 90.3997 185.369 90.443C185.397 90.4863 185.44 90.5182 185.489 90.5329L186.326 90.6067C187.162 88.5354 188.043 86.8921 187.802 87.5366C187.44 88.5495 187.22 89.6075 187.147 90.6805L188.8 90.8085C189.602 87.1381 190.552 84.4124 190.463 85.2685C190.114 88.6633 190.257 89.7605 190.429 90.9315C194.414 91.2217 199.644 91.5415 203.432 91.6891C203.954 89.6621 204.416 87.4678 204.49 87.6252C204.912 88.9546 205.079 90.3518 204.982 91.7433C206.188 91.7777 207.157 91.7826 207.742 91.7433C207.742 91.7433 208.097 90.036 208.161 89.4751C208.325 88.0383 208.242 86.5837 207.915 85.175C207.521 83.7869 206.988 82.4419 206.325 81.1603C206.327 81.1506 206.327 81.1406 206.325 81.1308C205.924 80.2743 205.622 79.3747 205.425 78.4494C205.292 77.7746 205.215 77.0901 205.194 76.4027C205.125 73.8836 203.89 71.6795 201.705 70.9612C197.71 66.666 193.455 68.3339 192.062 71.527C191.929 71.8369 191.797 72.1961 191.664 72.5848C191.172 74.0263 190.719 75.9009 190.306 77.3523C190.152 77.9193 189.963 78.4764 189.74 79.0201C188.544 81.672 186.075 83.0841 185.337 90.2968Z" fill="#263238"/>
<path d="M202.621 71.6648C203.323 72.0486 203.914 72.608 204.335 73.2884C204.757 73.9688 204.995 74.7468 205.026 75.5466C205.05 76.6074 205.202 77.6614 205.479 78.6856C205.861 79.685 206.385 80.6245 207.034 81.4752C208.049 82.7858 208.648 84.3714 208.751 86.0262C208.876 87.95 208.627 89.8797 208.018 91.7088C208.54 89.7769 208.689 87.763 208.456 85.7753C208.219 83.7778 207.216 82.4986 206.202 80.9586C205.382 79.739 204.893 78.3264 204.785 76.8603C204.794 75.9448 204.685 75.032 204.461 74.1444C204.058 73.2053 203.385 72.4073 202.527 71.8517C202.404 71.7681 202.512 71.6008 202.621 71.6648Z" fill="#263238"/>
<path d="M187.162 81.8049C188.244 80.4027 189.356 79.2169 190.03 77.4605C190.64 75.8615 191.014 74.169 191.644 72.57C191.644 72.5454 191.693 72.57 191.683 72.57C190.699 75.4089 190.424 78.2871 188.598 80.6487C187.614 81.9328 186.63 83.1087 185.942 84.6732C185.245 86.3048 184.843 88.0474 184.756 89.8195C184.756 89.8786 184.677 89.8737 184.672 89.8195C184.537 86.9387 185.418 84.1019 187.162 81.8049Z" fill="#263238"/>
<path d="M198.36 92.2008C194.158 101.942 187.929 111.881 184.648 113.529C182.345 114.695 177.789 114.621 176.284 111.959C173.032 106.154 171.89 96.8502 172.687 92.0384C172.973 90.3263 182.035 89.6178 182.734 91.3398C184.353 95.3693 184.874 99.5463 185.386 99.5463C185.824 99.5463 188.2 96.2942 193.548 90.6067C199.137 84.6732 199.831 88.7912 198.36 92.2008Z" fill="#EB9481"/>
<path d="M172.584 93.5783C172.584 93.5783 172.741 88.5058 174.552 85.1258C175.802 82.7888 179.083 78.0114 186.98 77.672C188.854 77.5932 191.58 78.8085 188.569 80.0483C186.429 80.9339 184.805 80.8454 183.649 81.5834C183.649 81.5834 186.936 83.5514 186.941 85.421C186.944 87.0668 186.833 88.7108 186.606 90.341C186.298 90.3597 185.989 90.3597 185.681 90.341C185.681 90.341 185.632 92.1023 183.669 93.9276L172.584 93.5783Z" fill="#EB9481"/>
<path d="M176.092 83.089C177.391 82.597 180.156 81.613 182.704 81.5687C185.538 81.5343 190.999 82.2378 190.999 84.3288C190.999 85.8589 188.894 85.7753 188.894 85.7753C188.894 85.7753 191.088 86.5428 190.788 87.9253C190.512 89.1898 188.884 89.0274 188.884 89.0274C188.884 89.0274 190.138 89.7211 189.637 90.8823C189.041 92.2845 186.512 90.6018 184.677 91.4923C184.269 91.6941 176.092 83.089 176.092 83.089Z" fill="#EB9481"/>
<path d="M182.242 84.565C184.516 84.2687 186.826 84.6738 188.864 85.7261C188.913 85.7556 188.918 85.8048 188.864 85.79C186.712 85.1233 184.486 84.7202 182.237 84.5896C182.237 84.5896 182.227 84.5699 182.242 84.565Z" fill="#263238"/>
<path d="M182.355 87.4235C184.636 87.3407 186.897 87.8762 188.899 88.9733C188.948 89.0028 188.948 89.0569 188.899 89.0422C186.785 88.2629 184.59 87.7281 182.355 87.4481V87.4235Z" fill="#263238"/>
<path d="M188.077 111.339L185.238 98.5081C188.103 95.339 191.141 92.3315 194.34 89.4996C198.955 85.5095 201.154 85.9375 198.389 93.042C195.624 100.146 191.55 108.373 188.077 111.339Z" fill="#90CAF9"/>
<path d="M188.077 111.339L185.238 98.5081C188.103 95.339 191.141 92.3315 194.34 89.4996C198.955 85.5095 201.154 85.9375 198.389 93.042C195.624 100.146 191.55 108.373 188.077 111.339Z" fill="#90CAF9"/>
<path d="M186.842 98.2327C187.334 99.9842 187.761 101.749 188.121 103.527C188.305 104.422 188.477 105.321 188.638 106.223C188.8 107.138 188.899 108.063 189.036 108.983C189.036 109.032 188.977 109.037 188.968 108.983C188.638 107.182 188.239 105.391 187.875 103.6C187.511 101.81 187.142 100.024 186.783 98.2376C186.773 98.213 186.832 98.1982 186.842 98.2327Z" fill="#263238"/>
<path d="M197.43 95.4086C197.331 95.6399 197.233 95.8662 197.144 96.0974C197.142 96.0466 197.142 95.9957 197.144 95.9449C197.188 95.6404 197.271 95.3428 197.39 95.0593C197.416 95.1741 197.429 95.2911 197.43 95.4086ZM189.523 95.1528C189.479 95.4545 189.479 95.7612 189.523 96.063C189.759 95.4975 189.846 94.8807 189.774 94.2721C189.648 94.5518 189.563 94.8485 189.523 95.1528ZM192.106 104.338C192.062 104.642 192.062 104.95 192.106 105.254C192.233 104.974 192.316 104.677 192.352 104.373C192.397 104.069 192.397 103.761 192.352 103.458C192.228 103.738 192.145 104.035 192.106 104.338ZM189.056 100.363C188.753 100.319 188.444 100.319 188.141 100.363C188.42 100.49 188.717 100.573 189.022 100.609C189.325 100.653 189.633 100.653 189.937 100.609C189.656 100.487 189.36 100.405 189.056 100.368V100.363ZM198.438 88.3533C198.135 88.309 197.827 88.309 197.523 88.3533C197.802 88.4801 198.1 88.5631 198.404 88.5993C198.707 88.6437 199.016 88.6437 199.319 88.5993C199.039 88.4752 198.742 88.3924 198.438 88.3533ZM195.103 100.476C195.103 100.476 195.103 100.516 195.103 100.53C195.103 100.545 195.103 100.53 195.103 100.53C195.107 100.513 195.107 100.494 195.103 100.476ZM187.816 105.859C187.996 106.106 188.211 106.325 188.456 106.508C188.343 106.224 188.191 105.957 188.003 105.716C187.824 105.467 187.608 105.247 187.364 105.062C187.477 105.347 187.629 105.615 187.816 105.859ZM192.903 97.8686C193.151 97.6876 193.371 97.4722 193.558 97.229C192.989 97.4595 192.491 97.8343 192.111 98.3163C192.395 98.2055 192.662 98.0548 192.903 97.8686ZM194.296 92.3336C194.477 92.581 194.692 92.8014 194.935 92.988C194.825 92.704 194.674 92.4372 194.488 92.1959C194.305 91.9483 194.088 91.728 193.843 91.5415C193.956 91.8257 194.108 92.0924 194.296 92.3336Z" fill="white"/>
<path d="M198.379 93.0421C195.614 100.142 191.55 108.373 188.077 111.34L186.906 106.055L199.373 87.3595C199.846 88.1221 199.585 89.9474 198.379 93.0421Z" fill="#263238"/>
<path d="M190.404 114.464C190.404 114.464 199.26 116.565 216.077 115.113C216.077 115.113 209.504 94.1441 204.215 88.491C201.804 85.9179 199.452 86.3115 197.459 87.9646C196.967 88.3779 190.788 96.2105 190.266 98.9362C189.804 101.347 191.767 104.028 191.767 104.028L190.404 114.464Z" fill="#90CAF9"/>
<path d="M197.4 95.0593C197.445 95.3627 197.445 95.671 197.4 95.9744C197.364 96.2789 197.281 96.5759 197.154 96.8551C197.11 96.5517 197.11 96.2434 197.154 95.94C197.194 95.6362 197.277 95.3397 197.4 95.0593ZM196.756 110.985C196.712 111.289 196.712 111.597 196.756 111.9C196.883 111.621 196.966 111.324 197.002 111.02C197.046 110.718 197.046 110.411 197.002 110.11C196.878 110.388 196.795 110.683 196.756 110.985ZM192.402 113.701C192.357 114.005 192.357 114.313 192.402 114.616C192.643 114.052 192.731 113.434 192.658 112.825C192.532 113.104 192.446 113.399 192.402 113.701ZM206.507 101.278C206.463 101.582 206.463 101.89 206.507 102.193C206.63 101.913 206.712 101.616 206.753 101.313C206.795 101.009 206.795 100.701 206.753 100.397C206.633 100.679 206.55 100.975 206.507 101.278ZM192.107 104.338C192.062 104.642 192.062 104.95 192.107 105.254C192.233 104.974 192.316 104.677 192.353 104.373C192.397 104.069 192.397 103.761 192.353 103.458C192.228 103.738 192.146 104.035 192.107 104.338ZM201.858 97.6767C201.556 97.6324 201.25 97.6324 200.948 97.6767C201.512 97.9185 202.13 98.0067 202.739 97.9326C202.458 97.8069 202.162 97.7207 201.858 97.6767ZM207.088 106.557C206.784 106.513 206.476 106.513 206.173 106.557C206.452 106.684 206.749 106.767 207.053 106.803C207.357 106.848 207.665 106.848 207.969 106.803C207.688 106.679 207.392 106.596 207.088 106.557ZM198.38 105.824C198.076 105.78 197.768 105.78 197.464 105.824C197.745 105.947 198.042 106.029 198.345 106.07C198.649 106.112 198.957 106.112 199.26 106.07C198.979 105.948 198.683 105.865 198.38 105.824ZM214.178 113.982C213.874 113.937 213.566 113.937 213.263 113.982C213.543 114.104 213.84 114.187 214.143 114.228C214.447 114.27 214.755 114.27 215.058 114.228C214.777 114.106 214.481 114.023 214.178 113.982ZM198.434 88.3533C198.13 88.309 197.822 88.309 197.519 88.3533C197.798 88.4801 198.095 88.5631 198.399 88.5993C198.703 88.6437 199.011 88.6437 199.314 88.5993C199.036 88.4757 198.741 88.3929 198.439 88.3533H198.434ZM202.704 91.02C202.886 91.2663 203.102 91.4865 203.344 91.6743C203.234 91.3883 203.083 91.1198 202.896 90.8773C202.715 90.6299 202.5 90.4095 202.256 90.2229C202.368 90.508 202.519 90.7762 202.704 91.02ZM210.625 102.336C210.805 102.583 211.021 102.802 211.265 102.985C211.152 102.701 211 102.434 210.812 102.193C210.633 101.945 210.417 101.724 210.173 101.539C210.292 101.825 210.451 102.094 210.645 102.336H210.625ZM195.531 101.278C195.713 101.525 195.928 101.745 196.17 101.933C196.06 101.646 195.907 101.377 195.718 101.135C195.539 100.888 195.325 100.668 195.083 100.481C195.2 100.766 195.358 101.033 195.551 101.273L195.531 101.278ZM203.098 109.716C203.276 109.963 203.49 110.182 203.732 110.365C203.624 110.081 203.473 109.814 203.285 109.573C203.104 109.326 202.888 109.106 202.645 108.919C202.759 109.204 202.911 109.472 203.098 109.716ZM194.173 92.1516C194.217 92.2106 194.257 92.2696 194.301 92.3238C194.479 92.5738 194.692 92.796 194.936 92.9831C194.825 92.6964 194.672 92.4278 194.483 92.186L194.306 91.9646L194.173 92.1516ZM192.904 97.8637C193.151 97.6827 193.371 97.4673 193.558 97.2241C192.989 97.4546 192.491 97.8294 192.111 98.3114C192.395 98.2022 192.662 98.0531 192.904 97.8686V97.8637ZM212.092 108.388C212.339 108.207 212.559 107.991 212.746 107.748C212.176 107.981 211.676 108.357 211.295 108.84C211.585 108.731 211.859 108.58 212.106 108.392L212.092 108.388ZM192.471 108.717C192.72 108.541 192.941 108.327 193.125 108.083C192.556 108.313 192.058 108.688 191.678 109.17C191.968 109.065 192.24 108.918 192.485 108.732L192.471 108.717ZM206.02 95.6103C206.269 95.4307 206.489 95.2151 206.675 94.9707C206.39 95.0813 206.123 95.2339 205.883 95.4234C205.635 95.6026 205.415 95.8163 205.228 96.0581C205.517 95.9501 205.789 95.8009 206.035 95.6153L206.02 95.6103ZM200.451 114.405C200.699 114.225 200.92 114.01 201.105 113.765C200.535 113.998 200.035 114.374 199.654 114.857C199.944 114.748 200.218 114.597 200.466 114.41L200.451 114.405ZM202.109 102.848C202.356 102.67 202.575 102.456 202.758 102.213C202.193 102.451 201.699 102.833 201.327 103.32C201.614 103.204 201.882 103.046 202.124 102.853L202.109 102.848ZM208.406 112.132C208.655 111.952 208.876 111.736 209.061 111.492C208.492 111.723 207.994 112.097 207.614 112.579C207.903 112.471 208.175 112.322 208.421 112.137L208.406 112.132Z" fill="white"/>
<path d="M193.479 93.1651C192.94 93.8997 192.439 94.6617 191.979 95.448C192.17 95.0101 192.348 94.5673 192.505 94.1097C192.505 94.1097 192.505 94.0802 192.471 94.1097C192.308 94.4295 192.146 94.7493 192.008 95.0937C191.87 95.4381 191.772 95.694 191.659 95.999C191.068 96.8918 190.6 97.8598 190.266 98.8772C190.045 99.8082 190.065 100.78 190.325 101.701C190.46 102.175 190.645 102.634 190.876 103.069C191.059 103.463 191.301 103.827 191.595 104.147C191.428 105.131 191.314 106.115 191.186 107.069C191.032 108.017 190.933 108.973 190.891 109.932C190.895 109.943 190.902 109.953 190.911 109.96C190.92 109.967 190.931 109.97 190.943 109.97C190.954 109.97 190.966 109.967 190.975 109.96C190.984 109.953 190.991 109.943 190.995 109.932C190.995 109.869 191.034 109.8 191.059 109.731C191.083 109.662 191.059 109.706 191.059 109.696C191.265 108.821 191.354 107.901 191.477 107.015C191.6 106.129 191.836 104.156 191.836 104.147C191.836 104.137 191.398 103.34 191.221 102.971C191.016 102.522 190.851 102.056 190.729 101.578C190.461 100.675 190.441 99.717 190.67 98.8034C190.995 97.8278 191.433 96.8933 191.974 96.0187C192.495 95.0839 193.036 94.154 193.573 93.2291C193.563 93.1749 193.504 93.1307 193.479 93.1651Z" fill="#263238"/>
<path d="M202.03 87.8171C201.932 88.2698 199.806 91.2316 197.735 91.1578C197.061 91.1332 197.036 87.4481 197.036 87.4481L196.972 87.1775L196.077 83.3744L200.505 80.4568L201.149 80.0681C201.149 80.0681 201.322 81.121 201.528 82.4396L201.558 82.6265C201.558 82.7003 201.587 82.7692 201.597 82.843C201.632 83.0398 201.661 83.2366 201.691 83.4383C201.72 83.64 201.735 83.7384 201.755 83.9008C201.774 84.0632 201.794 84.2206 201.819 84.3928C201.966 85.5282 202.037 86.6722 202.03 87.8171Z" fill="#EB9481"/>
<path d="M201.543 82.4396C201.171 83.5138 200.569 84.4942 199.78 85.3124C198.991 86.1306 198.033 86.7671 196.972 87.1775L196.077 83.3744L200.505 80.4568L201.149 80.0681C201.149 80.0681 201.336 81.121 201.543 82.4396Z" fill="#263238"/>
<path d="M190.434 76.3387C188.466 82.9069 192.195 84.8208 193.612 85.239C194.896 85.6178 199.324 86.7543 201.946 80.4223C204.569 74.0903 202.133 71.1087 199.235 70.0903C196.338 69.0719 192.372 69.7705 190.434 76.3387Z" fill="#EB9481"/>
<path d="M191.698 75.4826C191.856 75.5072 192.008 75.4826 192.19 75.5121C192.357 75.5444 192.529 75.522 192.682 75.4482C192.726 75.4153 192.757 75.369 192.771 75.3165C192.785 75.264 192.782 75.2082 192.761 75.1579C192.705 75.0664 192.626 74.9913 192.532 74.9403C192.438 74.8893 192.332 74.8642 192.225 74.8676C192.006 74.8372 191.784 74.8917 191.605 75.0201C191.565 75.0497 191.534 75.0899 191.517 75.1361C191.499 75.1823 191.495 75.2326 191.505 75.281C191.514 75.3295 191.538 75.3742 191.572 75.4099C191.606 75.4456 191.65 75.4708 191.698 75.4826Z" fill="#263238"/>
<path d="M196.234 76.7077C196.089 76.6435 195.948 76.5712 195.811 76.4913C195.653 76.4349 195.518 76.3276 195.427 76.1862C195.406 76.1368 195.402 76.0816 195.416 76.0297C195.431 75.9778 195.462 75.9323 195.506 75.9009C195.599 75.8468 195.704 75.8184 195.811 75.8184C195.918 75.8184 196.024 75.8468 196.116 75.9009C196.32 75.9894 196.483 76.1509 196.574 76.3535C196.598 76.4016 196.606 76.4558 196.598 76.5089C196.59 76.5619 196.566 76.6111 196.528 76.6499C196.491 76.6886 196.443 76.715 196.39 76.7253C196.338 76.7357 196.283 76.7295 196.234 76.7077Z" fill="#263238"/>
<path d="M194.744 78.041C194.744 78.041 194.773 78.0755 194.744 78.0951C194.596 78.533 194.502 79.0791 194.862 79.335C194.862 79.335 194.862 79.3694 194.862 79.3596C194.399 79.1431 194.532 78.4395 194.744 78.041Z" fill="#263238"/>
<path d="M195.28 77.6966C196.018 77.854 195.644 79.3153 194.96 79.1726C194.276 79.0299 194.665 77.5588 195.28 77.6966Z" fill="#263238"/>
<path d="M195.546 77.8442C195.654 77.9622 195.742 78.1394 195.89 78.1935C196.038 78.2476 196.239 78.1394 196.382 78.0213C196.382 78.0213 196.407 78.0213 196.382 78.0213C196.313 78.3017 196.136 78.5625 195.826 78.5133C195.516 78.4641 195.408 78.1836 195.413 77.8835C195.442 77.8638 195.506 77.7999 195.546 77.8442Z" fill="#263238"/>
<path d="M192.254 77.303C192.254 77.303 192.215 77.303 192.21 77.3325C192.111 77.7901 191.924 78.3165 191.477 78.346C191.993 78.4247 192.234 77.7359 192.254 77.303Z" fill="#263238"/>
<path d="M191.969 76.7519C191.255 76.5158 190.832 77.9622 191.477 78.1836C192.121 78.405 192.569 76.929 191.969 76.7519Z" fill="#263238"/>
<path d="M191.639 76.752C191.501 76.7963 191.349 76.8996 191.211 76.8701C191.073 76.8406 190.98 76.6438 190.921 76.4667C190.921 76.4667 190.921 76.4667 190.891 76.4667C190.83 76.5874 190.814 76.7259 190.845 76.8575C190.877 76.989 190.954 77.1051 191.063 77.185C191.29 77.3031 191.555 77.1161 191.683 76.8603C191.713 76.8062 191.693 76.7176 191.639 76.752Z" fill="#263238"/>
<path d="M193.848 81.7655C193.726 81.8768 193.57 81.9428 193.405 81.9524C193.236 81.9141 193.077 81.8403 192.938 81.736C192.938 81.736 192.908 81.736 192.913 81.736C192.961 81.8395 193.035 81.9283 193.129 81.9932C193.222 82.0582 193.331 82.0967 193.445 82.105C193.543 82.1006 193.638 82.0669 193.717 82.0081C193.796 81.9493 193.855 81.8683 193.888 81.7753C193.892 81.7704 193.848 81.7556 193.848 81.7655Z" fill="#263238"/>
<path d="M192.298 80.56C192.402 80.8695 192.585 81.1462 192.83 81.362C192.968 81.4795 193.141 81.5486 193.322 81.5588C193.71 81.5883 193.814 81.2636 193.858 80.9634C193.878 80.8 193.878 80.6348 193.858 80.4714C193.362 80.6696 192.814 80.7007 192.298 80.56Z" fill="#263238"/>
<path d="M192.83 81.362C192.968 81.4795 193.141 81.5486 193.322 81.5588C193.71 81.5883 193.814 81.2636 193.858 80.9635C193.667 80.9029 193.461 80.9094 193.274 80.9819C193.087 81.0543 192.93 81.1884 192.83 81.362Z" fill="#FF98B9"/>
<path d="M192.397 79.6301C192.397 79.6301 192.121 80.2796 192.038 80.6141C192.038 80.6437 192.101 80.6781 192.21 80.7125C192.469 80.8358 192.757 80.8854 193.043 80.8559C193.328 80.8264 193.6 80.7189 193.828 80.5453C193.835 80.5402 193.84 80.5328 193.841 80.5246C193.843 80.5163 193.841 80.5078 193.837 80.5005C193.833 80.4933 193.826 80.4878 193.818 80.4852C193.81 80.4825 193.802 80.4829 193.794 80.4862C193.318 80.6544 192.8 80.663 192.318 80.5108C192.318 80.4173 192.81 79.4186 192.776 79.3989C192.524 79.3561 192.267 79.3462 192.013 79.3694C192.544 78.0016 193.292 76.7322 193.799 75.3645C193.803 75.3543 193.803 75.343 193.798 75.3329C193.794 75.3228 193.787 75.3145 193.777 75.3096C193.767 75.3047 193.756 75.3036 193.746 75.3065C193.735 75.3094 193.726 75.316 193.72 75.3251C192.88 76.6607 192.175 78.0764 191.614 79.5514C191.536 79.7039 192.254 79.6498 192.397 79.6301Z" fill="#263238"/>
<path d="M201.277 80.4912C200.195 80.2796 200.574 77.9869 200.574 77.9869C200.574 77.9869 198.419 77.3916 198.571 74.1001C198.375 75.0448 198.459 76.0264 198.812 76.9242C198.812 76.9242 195.127 75.4482 194.414 71.8369C194.414 71.8369 194.601 73.6327 195.039 74.3756C194.156 73.8149 193.491 72.9696 193.154 71.9796C193.154 71.9796 191.979 73.6278 191.324 73.9869C191.324 73.9869 193.337 67.3892 199.295 69.8148C199.295 69.8148 203.078 71.1481 203.609 74.5872C204.141 78.0262 201.277 80.4912 201.277 80.4912Z" fill="#263238"/>
<path d="M201.228 82.8478C201.119 82.8621 201.008 82.8621 200.898 82.8478C200.791 82.8463 200.685 82.828 200.584 82.7937C200.447 82.7553 200.322 82.6844 200.219 82.5871C200.137 82.5162 200.066 82.4332 200.008 82.3411C199.923 82.2106 199.863 82.0654 199.831 81.913L200.569 80.1959C200.569 80.1959 202.468 78.4001 203.309 79.1185C204.151 79.8368 202.438 82.6559 201.228 82.8478Z" fill="#EB9481"/>
<path d="M201.228 82.5478C201.204 82.6062 201.163 82.656 201.11 82.6911C201.057 82.7261 200.995 82.7447 200.932 82.7446C200.869 82.7444 200.807 82.7256 200.755 82.6903C200.702 82.6551 200.661 82.605 200.637 82.5465C200.613 82.4881 200.607 82.4237 200.619 82.3617C200.632 82.2997 200.662 82.2428 200.707 82.1982C200.752 82.1535 200.809 82.1232 200.871 82.111C200.933 82.0988 200.997 82.1053 201.056 82.1296C201.134 82.1622 201.196 82.2246 201.229 82.303C201.261 82.3814 201.261 82.4695 201.228 82.5478Z" fill="white"/>
<path d="M201.937 82.2083C201.919 82.2496 201.89 82.2849 201.852 82.3096C201.815 82.3342 201.771 82.3472 201.726 82.3468C201.681 82.3464 201.637 82.3327 201.6 82.3073C201.563 82.282 201.535 82.2462 201.518 82.2045C201.501 82.1629 201.497 82.1172 201.507 82.0733C201.516 82.0294 201.538 81.9892 201.57 81.958C201.603 81.9267 201.644 81.9058 201.688 81.8978C201.732 81.8898 201.777 81.8951 201.819 81.9131C201.873 81.9369 201.916 81.9812 201.938 82.0364C201.96 82.0917 201.96 82.1534 201.937 82.2083Z" fill="white"/>
<path d="M205.607 89.9228C209.996 95.8563 218.369 109.908 215.56 113.003C210.94 118.09 199.816 122.395 196.372 123.335C194.896 123.738 189.873 112.811 191.295 111.96C192.997 110.936 204.903 107.295 204.874 106.282C204.874 105.706 203.614 100.87 202.591 94.7051C201.4 87.5366 203.516 87.084 205.607 89.9228Z" fill="#EB9481"/>
<path d="M196.707 111.345C196.707 111.345 192.22 109.908 189.243 109.106C187.58 108.658 184.662 108.122 183.295 108.373C181.243 108.717 172.889 111.463 173.509 113.499C174.075 115.349 180.953 112.078 180.953 112.078C180.953 112.078 173.72 114.764 174.808 116.865C175.895 118.966 183.172 114.233 183.172 114.233C183.172 114.233 175.792 117.16 177.268 119.153C178.37 120.653 185.209 116.742 185.209 116.742C185.209 116.742 178.891 119.3 179.959 120.894C181.145 122.656 187.678 119.418 187.678 119.418C191.083 123.01 194.173 123.354 196.397 123.295C196.938 123.305 196.707 111.345 196.707 111.345Z" fill="#EB9481"/>
<path d="M183.393 110.99C182.532 111.276 181.661 111.556 180.825 111.915C179.988 112.274 179.172 112.668 178.365 113.101C177.309 113.652 176.319 114.32 175.413 115.094C177.148 113.941 178.986 112.953 180.904 112.142C181.735 111.782 182.547 111.379 183.364 111.02L183.393 110.99Z" fill="#263238"/>
<path d="M184.751 113.972C183.664 114.385 182.576 114.754 181.509 115.212C180.441 115.669 179.482 116.196 178.453 116.722C178.375 116.761 178.424 116.791 178.508 116.757C179.551 116.265 180.559 115.896 181.607 115.423C182.655 114.951 183.698 114.439 184.761 113.996C184.776 113.992 184.766 113.967 184.751 113.972Z" fill="#263238"/>
<path d="M186.375 116.323C184.697 116.913 183.084 117.675 181.563 118.596C181.489 118.641 181.563 118.67 181.632 118.631C183.216 117.844 184.456 117.219 186.394 116.382C186.424 116.368 186.409 116.314 186.375 116.323Z" fill="#263238"/>
<path d="M187.487 108.683C187.009 108.49 186.515 108.342 186.011 108.24C185.537 108.127 185.055 108.049 184.569 108.009C183.519 107.923 182.463 108.051 181.464 108.388C179.458 109.036 177.534 109.912 175.728 111C175.688 111 175.728 111.089 175.757 111.074C177.596 110.215 179.483 109.466 181.41 108.83C182.39 108.486 183.423 108.319 184.461 108.338C184.997 108.368 185.528 108.447 186.06 108.525C186.529 108.626 187.004 108.701 187.482 108.752C187.511 108.776 187.526 108.698 187.487 108.683Z" fill="#263238"/>
<path d="M216.648 110.985L204.471 106.036C203.487 101.883 202.736 97.6776 202.222 93.4406C201.558 87.3743 203.157 85.8097 207.432 92.1171C211.708 98.4246 216.175 106.444 216.648 110.985Z" fill="#90CAF9"/>
<path d="M206.807 91.2217L206.97 91.448C206.935 91.5884 206.888 91.7251 206.827 91.8563C206.796 91.6462 206.789 91.4333 206.807 91.2217ZM206.507 101.278C206.463 101.582 206.463 101.89 206.507 102.193C206.63 101.912 206.712 101.616 206.753 101.313C206.795 101.009 206.795 100.701 206.753 100.397C206.632 100.679 206.55 100.975 206.507 101.278ZM207.088 106.557C206.784 106.513 206.476 106.513 206.173 106.557C206.452 106.684 206.749 106.767 207.053 106.803C207.357 106.848 207.665 106.848 207.968 106.803C207.688 106.679 207.392 106.596 207.088 106.557ZM209.725 97.0371C210.003 97.1633 210.298 97.2462 210.601 97.2831H210.738L210.591 97.0322C210.303 96.992 210.012 96.9936 209.725 97.0371ZM202.704 91.0199C202.886 91.2663 203.102 91.4865 203.344 91.6743C203.234 91.3883 203.083 91.1197 202.896 90.8773C202.715 90.6298 202.5 90.4095 202.256 90.2229C202.368 90.5079 202.519 90.7761 202.704 91.0199ZM210.625 102.336C210.805 102.583 211.021 102.802 211.265 102.985C211.152 102.701 211 102.434 210.812 102.193C210.633 101.945 210.417 101.724 210.173 101.539C210.292 101.825 210.451 102.093 210.645 102.336H210.625ZM212.101 108.397C212.349 108.216 212.569 108.001 212.756 107.758C212.186 107.991 211.686 108.367 211.304 108.85C211.592 108.736 211.862 108.582 212.106 108.392L212.101 108.397ZM206.03 95.6054C206.279 95.4257 206.499 95.2102 206.684 94.9658C206.399 95.0764 206.132 95.2289 205.892 95.4184C205.645 95.5976 205.425 95.8114 205.238 96.0531C205.523 95.9458 205.791 95.7983 206.035 95.6152L206.03 95.6054Z" fill="white"/>
<path d="M202.335 97.1994C202.518 97.5482 202.666 97.9141 202.778 98.2917L202.906 98.6705C202.797 97.967 202.699 97.2634 202.601 96.5598C202.601 96.5106 202.665 96.491 202.674 96.5598C202.98 98.1539 204.396 105.618 204.46 106.006C204.495 106.006 204.874 106.223 204.898 106.223C204.923 106.223 204.898 106.301 204.869 106.282C204.839 106.262 204.377 106.065 204.377 106.06C204.219 105.721 203.103 100.024 202.999 99.3298C202.981 99.3007 202.966 99.2693 202.955 99.2363L202.842 98.9411C202.773 98.7591 202.714 98.5721 202.65 98.3901C202.501 98.0149 202.382 97.6282 202.296 97.2339C202.296 97.1896 202.325 97.1748 202.335 97.1994Z" fill="#263238"/>
<path d="M204.697 104.668C205.181 104.778 205.658 104.919 206.124 105.091C206.616 105.239 207.073 105.377 207.541 105.534C208.451 105.829 209.346 106.154 210.242 106.484C212.047 107.133 213.819 107.871 215.55 108.698C215.559 108.701 215.565 108.709 215.569 108.717C215.572 108.726 215.571 108.736 215.568 108.744C215.564 108.753 215.557 108.759 215.548 108.763C215.539 108.766 215.529 108.765 215.521 108.762C213.686 108.122 211.88 107.394 210.06 106.715L207.373 105.731C206.926 105.564 206.478 105.386 206.03 105.239C205.571 105.098 205.12 104.933 204.677 104.747C204.672 104.698 204.672 104.663 204.697 104.668Z" fill="#263238"/>
<path d="M201.125 70.8038C201.174 71.5614 204.795 73.3671 207.373 71.4089C209.951 69.4508 208.849 65.6033 205.312 65.9969C203.073 66.2577 201.022 69.19 201.125 70.8038Z" fill="#263238"/>
<path d="M208.662 67.9649C208.271 67.0374 207.577 66.2694 206.694 65.7854C206.285 65.5496 205.821 65.4256 205.349 65.4256C204.876 65.4256 204.412 65.5496 204.003 65.7854C203.17 66.3064 202.491 67.04 202.035 67.9108C201.791 68.3517 201.588 68.8146 201.43 69.2933C201.245 69.7636 201.15 70.2642 201.149 70.7693C201.036 70.2539 201.036 69.7202 201.149 69.2048C201.254 68.6839 201.419 68.177 201.641 67.6943C202.068 66.6887 202.8 65.8421 203.732 65.2737C204.224 64.9906 204.784 64.8477 205.351 64.8604C205.91 64.8828 206.453 65.0525 206.926 65.3524C207.379 65.6455 207.767 66.0287 208.065 66.4782C208.364 66.9276 208.567 67.4337 208.662 67.9649Z" fill="#263238"/>
<path d="M78.843 220.805C77.8294 221.129 48.9786 220.755 47.8912 220.047C47.473 219.781 47.2812 215.575 47.1975 210.482V210.325C47.1975 209.277 47.1631 208.195 47.1631 207.102C47.1631 206.95 47.1631 206.797 47.1631 206.65L48.5653 191.678L67.8664 191.875L65.9624 206.699L65.9378 207.289L65.8246 210.359V210.674C65.8246 210.674 76.8061 215.757 77.9229 216.667C79.0398 217.577 79.8565 220.485 78.843 220.805Z" fill="#D3766A"/>
<path d="M78.843 220.805C77.8294 221.129 48.9786 220.756 47.8912 220.047C47.473 219.781 47.2812 215.575 47.1975 210.483V210.325C47.1975 209.277 47.1631 208.195 47.1631 207.103C47.1631 206.95 47.1631 206.798 47.1631 206.65L65.9624 206.699L65.9378 207.29L65.8246 210.36V210.674C65.8246 210.674 76.8061 215.757 77.9229 216.667C79.0398 217.577 79.8565 220.485 78.843 220.805Z" fill="#EBEBEB"/>
<path d="M78.8478 220.805C78.3263 220.972 70.4838 220.952 62.8234 220.805L58.2921 220.696C52.826 220.549 48.3143 220.323 47.8912 220.047C47.4681 219.771 47.286 215.698 47.2024 210.699C47.2024 210.63 47.2024 210.561 47.2024 210.487V210.325L65.8 210.36V210.679C65.8 210.679 76.7814 215.757 77.8934 216.667C79.0053 217.577 79.8564 220.48 78.8478 220.805Z" fill="#90CAF9"/>
<path d="M78.5329 219.683C73.6671 219.501 54.0412 219.22 49.2196 219.412C49.1802 219.412 49.1802 219.442 49.2196 219.442C54.0363 219.727 73.6671 219.845 78.528 219.762C78.6313 219.762 78.6313 219.688 78.5329 219.683Z" fill="#263238"/>
<path d="M67.896 210.438C65.987 210.054 63.6402 210.32 62.1592 211.663C62.1002 211.717 62.1592 211.796 62.238 211.776C64.0792 211.209 65.9761 210.841 67.896 210.679C67.9238 210.674 67.9488 210.659 67.9667 210.637C67.9847 210.615 67.9945 210.587 67.9945 210.559C67.9945 210.53 67.9847 210.503 67.9667 210.481C67.9488 210.459 67.9238 210.444 67.896 210.438Z" fill="#263238"/>
<path d="M69.2538 211.289C67.3449 210.906 65.003 211.171 63.522 212.514C63.463 212.569 63.522 212.647 63.6008 212.628C65.4371 212.061 67.329 211.693 69.244 211.53C69.2721 211.526 69.2978 211.512 69.3168 211.491C69.3357 211.47 69.3467 211.442 69.3478 211.414C69.349 211.386 69.3403 211.358 69.3231 211.335C69.306 211.312 69.2815 211.296 69.2538 211.289Z" fill="#263238"/>
<path d="M70.6265 212.141C68.7175 211.757 66.3707 212.018 64.8898 213.366C64.8357 213.415 64.8898 213.498 64.9734 213.479C66.8096 212.911 68.7016 212.544 70.6167 212.382C70.6448 212.377 70.6705 212.363 70.6894 212.342C70.7084 212.321 70.7194 212.294 70.7205 212.265C70.7217 212.237 70.7129 212.209 70.6958 212.186C70.6787 212.163 70.6542 212.147 70.6265 212.141Z" fill="#263238"/>
<path d="M62.8234 220.8L58.2921 220.692C52.826 220.544 48.3143 220.318 47.8912 220.042C47.4681 219.767 47.286 215.693 47.2024 210.694C47.2024 210.625 47.2024 210.556 47.2024 210.483V210.32C49.7657 212.106 58.7398 218.084 62.8234 220.8Z" fill="#263238"/>
<path d="M67.0793 210.423H46.2972C46.2972 210.423 50.4841 161.888 50.3218 161.041C50.1151 159.954 48.8851 155.044 47.2517 148.628C46.7597 146.616 46.189 144.466 45.6133 142.232C44.0685 136.195 42.3563 129.593 40.8705 123.851C38.6368 115.251 36.9 108.57 36.9 108.57H54.5087C54.5087 108.57 56.5603 115.074 59.1483 123.541C63.3647 137.317 68.9883 156.23 69.5491 160.835C70.4446 168.264 67.0793 210.423 67.0793 210.423Z" fill="#37474F"/>
<path d="M66.1592 206.876C62.9858 206.812 63.896 206.783 60.7472 206.753C59.1925 206.753 48.9884 206.65 47.537 206.891C47.5306 206.894 47.5252 206.898 47.5213 206.904C47.5174 206.909 47.5154 206.916 47.5154 206.923C47.5154 206.93 47.5174 206.937 47.5213 206.942C47.5252 206.948 47.5306 206.952 47.537 206.955C49.013 207.196 59.1925 207.107 60.7472 207.093C63.9206 207.063 63.0104 207.034 66.1592 206.97C66.1691 206.966 66.1777 206.96 66.1837 206.952C66.1898 206.943 66.1931 206.933 66.1931 206.923C66.1931 206.913 66.1898 206.902 66.1837 206.894C66.1777 206.886 66.1691 206.879 66.1592 206.876Z" fill="#263238"/>
<path d="M54.2282 158.075C53.5493 155.073 52.5308 152.126 51.6452 149.179C49.8445 143.187 48.0405 137.199 46.2332 131.216C45.3214 128.225 44.4079 125.234 43.4928 122.242C43.0254 120.732 42.5629 119.221 42.0906 117.716C41.6183 116.21 41.1066 114.764 40.6835 113.288C40.5162 112.683 40.4227 113.012 40.6392 113.78C41.0771 115.33 41.51 116.884 41.9627 118.429C42.8581 121.49 43.7585 124.55 44.6637 127.61C46.4645 133.698 48.2816 139.78 50.1151 145.858C51.0302 148.909 51.947 151.957 52.8654 155.005C53.3293 156.457 53.7055 157.935 53.9921 159.433C54.2347 160.998 54.2958 162.586 54.1741 164.166C53.9724 167.344 53.6083 170.517 53.3131 173.691L52.4275 183.226C51.8273 189.546 51.2434 195.875 50.676 202.212C50.6005 203.012 50.5317 203.814 50.4693 204.618C50.4693 204.888 50.858 204.869 50.8826 204.618C51.5665 198.365 52.0929 192.087 52.6784 185.823C53.2639 179.56 53.8494 173.356 54.4299 167.127C54.5775 165.563 54.7448 163.993 54.7448 162.424C54.7375 160.959 54.5642 159.5 54.2282 158.075Z" fill="#263238"/>
<path d="M52.5063 108.57C51.2812 118.026 48.954 135.762 47.2517 148.628C43.296 133.037 36.9 108.57 36.9 108.57H52.5063Z" fill="#263238"/>
<path d="M56.8309 221.085C55.8173 221.415 26.9665 221.144 25.8742 220.436C25.456 220.175 25.2494 215.968 25.1461 210.876V210.719C25.1461 209.671 25.1018 208.588 25.0969 207.496C25.0969 207.344 25.0969 207.191 25.0969 207.043C25.028 199.698 25.5593 192.072 25.5593 192.072L44.4177 192.195L43.8863 207.029V207.614L43.7879 210.684V210.999C43.7879 210.999 54.7841 216.042 55.901 216.947C57.0178 217.853 57.8395 220.755 56.8309 221.085Z" fill="#D3766A"/>
<path d="M56.8309 221.085C55.8174 221.415 26.9665 221.144 25.8743 220.436C25.4561 220.175 25.2494 215.968 25.1461 210.876V210.719C25.1461 209.671 25.1018 208.588 25.0969 207.496C25.0969 207.344 25.0969 207.191 25.0969 207.043H43.8913V207.629L43.788 210.684V210.999C43.788 210.999 54.7842 216.042 55.901 216.947C57.0179 217.853 57.8395 220.755 56.8309 221.085Z" fill="#EBEBEB"/>
<path d="M56.8309 221.085C55.8174 221.415 26.9665 221.144 25.8743 220.436C25.4561 220.175 25.2494 215.968 25.1461 210.876V210.719L43.788 210.684V210.999C43.788 210.999 54.7842 216.042 55.901 216.947C57.0179 217.853 57.8395 220.755 56.8309 221.085Z" fill="#90CAF9"/>
<path d="M56.516 219.963C51.6501 219.796 32.0242 219.589 27.2026 219.796C27.1633 219.796 27.1633 219.826 27.2026 219.826C32.0193 220.096 51.6501 220.145 56.516 220.042C56.6144 220.037 56.6193 219.963 56.516 219.963Z" fill="#263238"/>
<path d="M45.8347 210.758C43.9208 210.379 41.5789 210.655 40.1029 212.003C40.0488 212.057 40.1029 212.136 40.1865 212.116C42.0204 211.542 43.9108 211.168 45.8249 210.999C45.853 210.995 45.8787 210.981 45.8976 210.96C45.9166 210.938 45.9276 210.911 45.9287 210.883C45.9299 210.854 45.9212 210.826 45.904 210.804C45.8869 210.781 45.8624 210.765 45.8347 210.758Z" fill="#263238"/>
<path d="M47.2319 211.599C45.323 211.225 42.9761 211.496 41.5001 212.849C41.446 212.898 41.5001 212.982 41.5838 212.962C43.4182 212.39 45.3082 212.014 47.2221 211.84C47.2502 211.836 47.2759 211.822 47.2949 211.801C47.3138 211.78 47.3248 211.752 47.3259 211.724C47.3271 211.696 47.3184 211.668 47.3012 211.645C47.2841 211.622 47.2596 211.606 47.2319 211.599Z" fill="#263238"/>
<path d="M48.5801 212.446C46.6711 212.072 44.3292 212.342 42.8532 213.695C42.7942 213.744 42.8532 213.828 42.9319 213.808C44.7657 213.234 46.656 212.857 48.5702 212.687C48.5984 212.682 48.6241 212.668 48.643 212.647C48.662 212.626 48.6729 212.599 48.6741 212.57C48.6753 212.542 48.6665 212.514 48.6494 212.491C48.6322 212.468 48.6078 212.452 48.5801 212.446Z" fill="#263238"/>
<path d="M53.933 108.57C53.933 108.57 53.5296 116.993 51.6009 123.669C51.4435 124.22 51.2762 124.761 51.1089 125.283C49.3403 125.995 47.6407 126.868 46.0315 127.89C46.0315 127.89 45.8298 134.67 45.6231 142.232C45.4017 150.685 45.1656 160.111 45.2148 162.109C45.3919 169.592 44.28 210.728 44.28 210.728L23.5028 210.812C23.5028 210.812 27.2617 164.874 27.2322 162.134C27.1928 157.706 28.2408 138.257 29.0476 124.058C29.5396 115.31 29.948 108.57 29.948 108.57H53.933Z" fill="#37474F"/>
<path d="M43.5567 207.029C40.3833 206.979 41.2935 206.95 38.1447 206.93C36.59 206.93 26.3859 206.876 24.9345 207.122C24.905 207.122 24.905 207.186 24.9345 207.191C26.3859 207.422 36.5949 207.289 38.1447 207.27C41.323 207.225 40.4079 207.201 43.5567 207.122C43.5665 207.119 43.5751 207.113 43.5812 207.104C43.5873 207.096 43.5905 207.086 43.5905 207.075C43.5905 207.065 43.5873 207.055 43.5812 207.047C43.5751 207.038 43.5665 207.032 43.5567 207.029Z" fill="#263238"/>
<path d="M31.6847 111.581C31.301 123.167 30.8975 134.759 30.376 146.345C29.8545 157.932 29.1559 169.592 28.1817 181.189C27.6405 187.668 27.1288 196.78 26.4302 203.245C26.4302 203.289 26.4892 203.304 26.4941 203.245C28.0095 191.747 28.8508 177.533 29.5987 165.961C30.3465 154.39 30.8434 142.803 31.237 131.221C31.4633 124.668 31.6306 118.109 31.8274 111.541C31.8323 111.477 31.6847 111.487 31.6847 111.581Z" fill="#263238"/>
<path d="M51.96 124.781C49.8944 125.644 47.9075 126.684 46.0216 127.89C46.0053 127.899 45.993 127.914 45.9875 127.931C45.9819 127.949 45.9836 127.968 45.9921 127.984C46.0006 128 46.0152 128.013 46.0327 128.018C46.0502 128.024 46.0692 128.022 46.0855 128.013C48.088 127.029 50.1347 126.105 52.083 125.017C52.0985 125.009 52.1123 124.998 52.1235 124.985C52.1348 124.971 52.1433 124.956 52.1485 124.939C52.1538 124.922 52.1557 124.905 52.1542 124.887C52.1526 124.87 52.1477 124.853 52.1396 124.838C52.1315 124.822 52.1205 124.808 52.1071 124.797C52.0937 124.786 52.0782 124.777 52.0615 124.772C52.0449 124.767 52.0273 124.765 52.0099 124.767C51.9925 124.768 51.9755 124.773 51.96 124.781Z" fill="#263238"/>
<path d="M52.0782 117.632C51.9405 118.37 51.7633 119.108 51.5862 119.836C51.4091 120.565 51.3255 121.229 51.1434 121.908C50.9887 122.569 50.6471 123.172 50.1594 123.645C49.8888 123.895 49.5936 124.137 49.3033 124.348C49.1508 124.471 48.9835 124.589 48.8113 124.717C48.8113 124.619 48.8458 124.52 48.8655 124.417C48.9147 124.137 48.9639 123.856 49.0081 123.581C49.1115 122.956 49.2148 122.336 49.3083 121.711C49.4952 120.486 49.6674 119.251 49.9233 118.036C49.9233 117.987 49.8593 117.967 49.8495 118.036C49.5444 119.236 49.2049 120.427 48.9393 121.637C48.8113 122.232 48.3439 125.17 48.3243 125.376C48.3046 125.583 48.2849 125.804 48.2751 126.021C48.248 126.24 48.248 126.461 48.2751 126.68C48.2794 126.69 48.2863 126.698 48.295 126.703C48.3038 126.709 48.3139 126.712 48.3243 126.712C48.3346 126.712 48.3448 126.709 48.3535 126.703C48.3622 126.698 48.3691 126.69 48.3735 126.68C48.4631 126.476 48.5259 126.261 48.5604 126.041C48.6145 125.834 48.6637 125.622 48.6982 125.406C48.6982 125.332 48.6982 125.253 48.7326 125.175C49.0229 124.998 49.2935 124.766 49.5641 124.569C49.8347 124.373 50.1496 124.151 50.4251 123.92C50.9372 123.491 51.3063 122.916 51.4829 122.272C51.6593 121.581 51.7746 120.877 51.8273 120.166C51.9208 119.33 51.9897 118.493 52.1028 117.662C52.152 117.588 52.0881 117.588 52.0782 117.632Z" fill="#263238"/>
<path d="M44.6342 88.4665C47.8568 94.8625 56.0141 107.832 60.2207 107.915C65.4802 108.014 75.9647 100.348 78.5871 97.3569C79.7236 96.0531 70.6806 87.0594 69.3424 88.3337C67.5515 90.0409 61.4704 95.2217 61.2539 95.3102C60.8062 95.4873 53.0523 89.0667 48.3881 84.9241C43.1631 80.2845 42.1988 83.64 44.6342 88.4665Z" fill="#D3766A"/>
<path d="M76.0877 99.4185C76.0877 99.4185 80.0237 96.2057 82.528 94.0065C83.9154 92.7666 86.1048 90.4296 86.7051 89.057C87.6054 86.9955 90.0605 77.8098 87.8465 77.1653C85.8441 76.5848 84.7371 84.7421 84.7371 84.7421C84.7371 84.7421 86.5821 76.6094 84.0384 76.3486C81.4948 76.0878 81.4702 85.4801 81.4702 85.4801C81.4702 85.4801 83.1774 77.0768 80.5157 77.2293C78.4985 77.3424 78.0016 85.8442 78.0016 85.8442C78.0016 85.8442 79.4186 78.6118 77.3423 78.6364C75.0496 78.6659 74.0951 86.4838 74.0951 86.4838C68.8307 87.4678 66.7594 89.9278 65.4802 91.945C65.1653 92.4124 76.0877 99.4185 76.0877 99.4185Z" fill="#D3766A"/>
<path d="M84.2796 87.576C84.5305 86.6264 84.7716 85.667 84.9585 84.7027C85.1455 83.7384 85.2537 82.7593 85.3325 81.7851C85.4516 80.5073 85.4285 79.2202 85.2636 77.9475C85.3964 80.2255 84.8552 83.699 84.6879 84.6633C84.5207 85.6276 84.4075 86.6018 84.2402 87.571C84.2353 87.576 84.2697 87.576 84.2796 87.576Z" fill="#263238"/>
<path d="M80.7765 87.0397C81.0422 85.8146 81.3571 84.6092 81.5687 83.3694C81.7802 82.1296 81.8786 80.9537 82.0065 79.7138C82.0065 79.6154 81.9623 79.645 81.9475 79.7138C81.7704 80.9488 81.5096 82.0804 81.3177 83.3153C81.1259 84.5502 80.9832 85.7753 80.747 87.0102C80.7421 87.0545 80.7716 87.0545 80.7765 87.0397Z" fill="#263238"/>
<path d="M77.6868 87.1184C78.1429 85.2511 78.4067 83.3421 78.474 81.4211C78.474 81.3227 78.4101 81.3669 78.4002 81.4604C78.1739 83.3595 78.0115 84.8552 77.6228 87.0987C77.6179 87.1381 77.677 87.1578 77.6868 87.1184Z" fill="#263238"/>
<path d="M65.0768 91.6645L72.6881 104.058C72.6881 104.058 63.3007 109.091 59.7386 108.171C56.1766 107.251 47.3058 95.8366 44.28 88.5206C41.2542 81.2046 45.0377 81.7654 47.9897 84.255C50.9417 86.7445 61.1064 94.9756 61.2737 94.956C61.441 94.9363 65.0768 91.6645 65.0768 91.6645Z" fill="#90CAF9"/>
<path d="M66.4741 99.3201C65.9821 98.4197 65.4606 97.539 64.9489 96.6534C64.698 96.2254 64.4569 95.7974 64.1912 95.3841C63.9255 94.9708 63.6599 94.4493 63.345 94.0213C63.3403 94.0165 63.3342 94.0135 63.3277 94.0127C63.3211 94.0119 63.3144 94.0133 63.3088 94.0167C63.3031 94.0201 63.2987 94.0253 63.2964 94.0315C63.294 94.0377 63.2938 94.0445 63.2958 94.0508C63.4926 94.5428 63.7878 95.0348 63.9993 95.4874C64.2109 95.94 64.452 96.3632 64.6783 96.7961C65.1703 97.7014 65.6377 98.6067 66.1543 99.5021C67.1383 101.298 68.2059 103.054 69.2785 104.806C69.2848 104.811 69.2927 104.815 69.3011 104.815C69.3094 104.816 69.3178 104.814 69.3249 104.81C69.3321 104.805 69.3376 104.799 69.3408 104.791C69.3439 104.783 69.3445 104.775 69.3425 104.767C68.388 102.931 67.4679 101.116 66.4741 99.3201Z" fill="#263238"/>
<path d="M61.185 94.9559C60.3143 95.5946 59.4921 96.2968 58.725 97.0568C58.3068 97.4652 57.8985 97.8883 57.5049 98.3212C57.1113 98.7542 56.7324 99.2511 56.3339 99.7037C56.3293 99.7113 56.3274 99.7202 56.3284 99.7289C56.3294 99.7377 56.3334 99.7459 56.3397 99.7521C56.3459 99.7584 56.3541 99.7623 56.3628 99.7634C56.3716 99.7644 56.3805 99.7625 56.388 99.7579C56.8013 99.3397 57.254 98.9559 57.682 98.5525C58.11 98.149 58.5332 97.7456 58.9514 97.3372C59.7927 96.5205 60.4766 95.9203 61.2834 95.074C61.3326 94.9904 61.2539 94.8821 61.185 94.9559Z" fill="#263238"/>
<path d="M63.1285 107.95C62.03 108.28 60.8708 108.356 59.7387 108.171C56.1717 107.256 47.3058 95.8367 44.28 88.5207C43.796 87.4181 43.4442 86.262 43.2321 85.0767L63.1285 107.95Z" fill="#263238"/>
<path d="M27.4585 120.348C27.5323 120.422 57.9625 119.261 58.2281 118.926C58.5873 118.459 49.3721 86.4543 45.9281 82.5872C45.1951 81.7656 40.8753 80.8504 38.6269 83.0546C31.3551 90.2083 27.1879 120.078 27.4585 120.348Z" fill="#90CAF9"/>
<path d="M50.2234 91.6794C50.2234 91.6252 50.2923 91.5957 50.3119 91.6449C50.8039 92.8946 51.2959 94.1591 51.7338 95.4333C51.7338 95.2464 51.6945 95.0643 51.6797 94.8823C51.6403 94.3903 51.6453 93.8983 51.601 93.4358C51.601 93.3915 51.6748 93.3915 51.6748 93.4358C51.6748 93.9278 51.7929 94.4198 51.8667 94.9118C51.9405 95.4038 51.9897 95.7974 52.0684 96.2402C52.0684 96.3189 52.0684 96.3977 52.1028 96.4715C52.8408 98.5871 55.6108 108.309 56.6538 112.156C57.2393 114.326 57.7559 116.511 58.243 118.705C58.2402 118.712 58.2352 118.719 58.2286 118.724C58.222 118.728 58.2141 118.731 58.2061 118.731C58.1981 118.731 58.1902 118.728 58.1836 118.724C58.177 118.719 58.172 118.712 58.1692 118.705C57.0425 114.897 55.9503 111.079 54.8285 107.271C53.7953 103.812 50.8581 93.8196 50.2234 91.6794Z" fill="#263238"/>
<path d="M46.74 83.9352C46.9221 85.3128 47.232 88.5059 45.0672 88.4616C44.1864 88.3697 43.35 88.0283 42.6564 87.4776C41.941 86.9697 41.2813 86.3876 40.6884 85.7408C39.9996 85.0352 39.371 84.2732 38.809 83.4629C38.809 83.4284 38.7352 83.4629 38.7598 83.5072C39.3305 84.314 39.8225 85.1603 40.4719 85.918C41.0889 86.6518 41.8022 87.2988 42.5925 87.8417C43.3271 88.4224 44.2212 88.7656 45.1558 88.8257C45.5594 88.8162 45.9474 88.6675 46.254 88.4048C46.5606 88.1421 46.7671 87.7815 46.8384 87.3841C47.0639 86.2416 47.0303 85.063 46.74 83.9352Z" fill="#263238"/>
<path d="M45.0425 86.9856C43.4977 87.2464 40.708 84.5256 39.8027 82.5576C39.9139 81.5021 40.0781 80.4528 40.2947 79.4137C40.4571 78.4051 40.6145 77.2834 40.6834 76.2452L47.0794 78.2526C46.6232 79.5234 46.3242 80.8452 46.1889 82.1886C46.1762 82.331 46.1762 82.4742 46.1889 82.6166C46.1889 82.6166 46.1889 82.6609 46.1889 82.6904C46.2971 83.5268 46.5382 86.7347 45.0425 86.9856Z" fill="#D3766A"/>
<path d="M46.2135 82.6561C46.2135 82.6561 46.2135 82.7003 46.2135 82.7299C45.9892 82.7493 45.7637 82.7493 45.5394 82.7299C41.7215 82.3264 41.0032 77.9722 40.8704 76.3339L47.0843 78.3019C46.6287 79.5731 46.3281 80.8946 46.1889 82.2379C46.1849 82.3777 46.1931 82.5176 46.2135 82.6561Z" fill="#263238"/>
<path d="M38.8139 69.4409C38.4203 71.8271 40.5113 78.2969 42.3366 79.5417C44.9885 81.367 48.8802 81.0521 50.3217 77.9722C51.7141 74.9858 48.8457 66.6168 46.8384 65.5197C43.8962 63.901 39.3944 65.928 38.8139 69.4409Z" fill="#D3766A"/>
<path d="M46.0511 72.5404C46.0511 72.5404 46.0216 72.5748 46.0511 72.5896C46.1938 73.0226 46.2922 73.5441 45.938 73.8098C46.3906 73.6179 46.2479 72.9291 46.0511 72.5404Z" fill="#263238"/>
<path d="M45.5198 72.2059C44.8015 72.3634 45.1754 73.7951 45.8446 73.6426C46.5137 73.49 46.125 72.0682 45.5198 72.2059Z" fill="#263238"/>
<path d="M48.5309 71.8861C48.5309 71.8861 48.5752 71.8861 48.5752 71.9156C48.6785 72.3633 48.8704 72.8553 49.3082 72.8996C49.3082 72.8996 49.3082 72.9242 49.3082 72.9291C48.8064 72.9833 48.5604 72.324 48.5309 71.8861Z" fill="#263238"/>
<path d="M48.8063 71.3401C49.505 71.099 49.933 72.5111 49.2983 72.7325C48.6637 72.9539 48.2159 71.5221 48.8063 71.3401Z" fill="#263238"/>
<path d="M44.772 71.6991C44.9426 71.5959 45.1069 71.4826 45.264 71.3597C45.4558 71.2268 45.6231 71.1432 45.7117 70.9169C45.7287 70.8498 45.7235 70.779 45.6969 70.7151C45.6703 70.6513 45.6237 70.5977 45.5641 70.5626C45.4361 70.512 45.2969 70.4967 45.161 70.5183C45.0251 70.54 44.8975 70.5978 44.7916 70.6856C44.5561 70.8328 44.3815 71.0599 44.2996 71.3252C44.286 71.3866 44.2899 71.4506 44.3109 71.5099C44.3319 71.5691 44.3692 71.6213 44.4185 71.6603C44.4678 71.6994 44.5271 71.7237 44.5897 71.7306C44.6522 71.7374 44.7154 71.7265 44.772 71.6991Z" fill="#263238"/>
<path d="M49.1705 70.4544C48.9638 70.4544 48.7719 70.4544 48.5653 70.4544C48.3513 70.4842 48.1334 70.4427 47.9454 70.3363C47.8931 70.2912 47.857 70.2302 47.8428 70.1627C47.8286 70.0951 47.837 70.0247 47.8667 69.9624C47.9449 69.8493 48.0516 69.7588 48.176 69.7C48.3004 69.6413 48.4381 69.6164 48.5751 69.6278C48.8576 69.6082 49.137 69.696 49.3574 69.8738C49.4074 69.916 49.4437 69.9721 49.4617 70.0349C49.4797 70.0978 49.4786 70.1646 49.4586 70.2268C49.4385 70.289 49.4004 70.3439 49.3491 70.3844C49.2978 70.425 49.2356 70.4493 49.1705 70.4544Z" fill="#263238"/>
<path d="M48.2159 75.4089C48.094 75.7022 47.8972 75.9583 47.6452 76.1518C47.5018 76.2545 47.3297 76.3096 47.1532 76.3092C46.7744 76.3092 46.6612 75.9845 46.6612 75.6893C46.6598 75.5338 46.6763 75.3786 46.7104 75.2268C47.1796 75.4479 47.7076 75.5117 48.2159 75.4089Z" fill="#263238"/>
<path d="M47.6649 76.1518C47.5215 76.2546 47.3494 76.3096 47.1729 76.3092C46.7941 76.3092 46.6809 75.9845 46.6809 75.6893C46.8731 75.6405 47.0763 75.6599 47.2558 75.7443C47.4352 75.8286 47.5798 75.9727 47.6649 76.1518Z" fill="#FF98B9"/>
<path d="M40.1079 74.6315C41.7511 74.2576 41.3969 71.1875 41.3969 71.1875C41.3969 71.1875 44.1127 70.0904 44.0488 67.8764C44.0488 67.8764 47.109 68.9834 49.0426 67.7484C50.9761 66.5135 49.9971 64.2356 49.6527 63.778C49.3083 63.3204 48.3489 64.5258 48.3489 64.5258C48.3489 64.5258 47.9159 63.2122 47.5223 63.1532C47.1287 63.0941 46.927 63.9994 46.927 63.9994C45.1334 63.8372 43.3257 63.945 41.5642 64.3192C39.1042 64.944 38.4597 67.6943 38.4597 67.6943C38.4597 67.6943 37.2051 68.27 36.9837 69.2884C36.7623 70.3068 39.0648 74.8726 40.1079 74.6315Z" fill="#263238"/>
<path d="M43.9258 67.4974C44.0068 67.9332 44.0068 68.3802 43.9258 68.816C43.8449 69.2385 43.6511 69.6313 43.3649 69.9525C43.0604 70.2634 42.6998 70.5139 42.3022 70.6905C42.1054 70.7742 41.8938 70.848 41.6822 70.9218C41.4707 70.9956 41.2542 71.0349 41.0377 71.1038C41.2591 71.1038 41.4854 71.0497 41.7118 71.0251C41.9381 71.0005 42.1496 70.9168 42.3661 70.843C42.8045 70.6866 43.2015 70.4326 43.5272 70.1001C43.8406 69.7488 44.0367 69.3086 44.0881 68.8406C44.1463 68.3863 44.0905 67.9248 43.9258 67.4974Z" fill="#263238"/>
<path d="M38.5187 68.0534C38.5192 67.3284 38.7092 66.6161 39.0697 65.987C39.4364 65.374 39.9899 64.8946 40.649 64.6193C40.8093 64.5462 40.9736 64.4821 41.141 64.4274L41.6626 64.2995C42.0168 64.2355 42.376 64.2158 42.7351 64.1814C43.0943 64.147 43.4633 64.1814 43.8224 64.1814C44.1816 64.1814 44.5506 64.2503 44.9147 64.2749C44.5555 64.2011 44.1964 64.142 43.8323 64.0732C43.4682 64.0043 43.0992 64.024 42.7302 63.9994C41.9854 63.9899 41.2462 64.1287 40.5556 64.4077C39.8606 64.702 39.2851 65.222 38.9221 65.8837C38.5706 66.5493 38.4299 67.306 38.5187 68.0534Z" fill="#263238"/>
<path d="M45.446 75.2318C45.0515 75.288 44.6491 75.2326 44.2844 75.072C43.9196 74.9113 43.6071 74.6518 43.3822 74.3228C43.1573 73.9938 43.029 73.6084 43.0118 73.2102C42.9945 72.8121 43.089 72.417 43.2847 72.0698C43.4803 71.7226 43.7691 71.437 44.1186 71.2454C44.4681 71.0539 44.8642 70.9639 45.2621 70.9858C45.66 71.0076 46.0439 71.1404 46.3703 71.3691C46.6967 71.5978 46.9526 71.9132 47.109 72.2798C47.2396 72.5809 47.2988 72.9081 47.2818 73.2359C47.2648 73.5637 47.1721 73.883 47.011 74.169C46.8499 74.4549 46.6248 74.6997 46.3533 74.8841C46.0818 75.0685 45.7712 75.1875 45.446 75.2318ZM44.8704 71.2958C44.7186 71.32 44.5701 71.3613 44.4276 71.4188C43.9932 71.6001 43.6443 71.9402 43.4519 72.3698C43.2596 72.7994 43.2382 73.2862 43.3921 73.731C43.5461 74.1758 43.8638 74.5452 44.2806 74.7639C44.6974 74.9827 45.1819 75.0343 45.6354 74.9083C46.0889 74.7824 46.4774 74.4882 46.7216 74.0859C46.9659 73.6835 47.0476 73.2032 46.9501 72.7427C46.8526 72.2822 46.5832 71.8762 46.1968 71.6074C45.8104 71.3385 45.3361 71.2271 44.8704 71.2958Z" fill="#90CAF9"/>
<path d="M50.1839 73.9378C49.3721 74.0559 48.516 73.3376 48.2159 72.2601C48.0682 71.7479 48.0854 71.2023 48.2651 70.7004C48.3282 70.4801 48.4473 70.2798 48.6107 70.1191C48.7741 69.9584 48.9764 69.8426 49.1978 69.7832C49.4191 69.7238 49.6521 69.7227 49.8741 69.7799C50.096 69.8372 50.2994 69.9509 50.4644 70.11C50.8704 70.454 51.1579 70.917 51.286 71.4335C51.591 72.575 51.1532 73.682 50.302 73.8935L50.1839 73.9378ZM49.3918 70.0362L49.2885 70.0608C49.114 70.1141 48.9551 70.2092 48.8256 70.3378C48.6962 70.4664 48.6 70.6247 48.5456 70.7988C48.3864 71.2456 48.3727 71.7312 48.5062 72.1863C48.767 73.1703 49.5492 73.8246 50.243 73.6328C50.9367 73.4409 51.2909 72.4962 51.0252 71.5073C50.9113 71.0501 50.6587 70.6394 50.302 70.3314C50.1785 70.2211 50.0333 70.1378 49.8757 70.0869C49.7181 70.0361 49.5516 70.0188 49.3869 70.0362H49.3918Z" fill="#90CAF9"/>
<path d="M47.104 72.5552L46.8728 72.3929C47.1139 72.0436 47.7436 71.4974 48.3931 71.9009L48.2406 72.142C47.66 71.7828 47.1286 72.5257 47.104 72.5552Z" fill="#90CAF9"/>
<path d="M38.4793 75.5171L38.1989 75.4581C38.2284 75.3252 38.4941 74.1789 39.0845 73.9132C39.6749 73.6475 43.0205 73.0571 43.1631 73.0276L43.2074 73.308C41.8579 73.5245 40.521 73.8136 39.2025 74.1739C38.8139 74.3511 38.5482 75.2022 38.4793 75.5171Z" fill="#90CAF9"/>
<path d="M40.9491 74.6462C40.9491 74.6462 39.1287 72.7422 38.2382 73.4261C37.3477 74.11 38.9516 77.0275 40.1521 77.2735C40.3055 77.3193 40.4668 77.3331 40.6258 77.314C40.7848 77.295 40.9383 77.2435 41.0766 77.1628C41.2149 77.0821 41.3353 76.9739 41.4301 76.8448C41.525 76.7158 41.5923 76.5686 41.6281 76.4125L40.9491 74.6462Z" fill="#D3766A"/>
<path d="M46.248 82.5969L44.6588 86.4198L39.9406 81.4998L38.5679 83.0446C38.5679 83.0446 43.1533 90.8232 43.1878 90.4738L44.8064 87.1774L47.0647 89.5095L46.9466 83.7236L46.248 82.5969Z" fill="#EBEBEB"/>
<path d="M47.1631 86.651C47.1139 85.6965 47.0893 84.7322 46.9909 83.7826C46.9909 83.7482 46.9368 83.7334 46.927 83.7826C46.7252 84.7026 46.927 88.3533 46.927 89.2241C46.8335 89.1257 44.831 87.1725 44.8114 87.202C44.462 87.7235 43.2714 90.1245 43.1927 90.341C42.4645 89.1061 39.6847 84.6141 38.8237 83.453C38.8226 83.4475 38.8202 83.4423 38.8167 83.438C38.8132 83.4336 38.8087 83.4302 38.8035 83.428C38.7984 83.4257 38.7927 83.4248 38.7872 83.4253C38.7816 83.4257 38.7762 83.4275 38.7714 83.4306C38.7667 83.4336 38.7628 83.4377 38.76 83.4426C38.7572 83.4474 38.7557 83.4529 38.7555 83.4585C38.7553 83.4641 38.7565 83.4697 38.759 83.4747C38.7614 83.4797 38.7651 83.4841 38.7696 83.4874C39.4043 84.7912 43.0844 90.8379 43.1386 90.8231C43.7654 89.6927 44.3319 88.53 44.836 87.3398C45.1754 87.7629 47.1926 89.9621 47.2025 89.7998C47.2438 88.7502 47.2307 87.6992 47.1631 86.651Z" fill="#263238"/>
<path d="M35.4732 92.0631C35.9652 99.9006 37.9824 114.661 42.5974 117.805C47.5174 121.14 61.564 121.603 65.4557 121.563C67.1039 121.563 66.1543 109.318 64.4373 108.914C62.7202 108.511 50.6612 108.004 49.4411 107.468C48.2209 106.931 44.3391 96.3238 41.328 90.1443C37.8348 82.8774 35.0845 85.6917 35.4732 92.0631Z" fill="#D3766A"/>
<path d="M72.5404 109.834C71.7335 109.583 71.8615 109.16 73.2587 108.629C74.656 108.097 80.6387 107.182 80.1467 105.121C79.6547 103.059 71.2219 104.471 68.9587 105.534C66.6955 106.597 63.4138 109.111 63.4138 109.111C65.1112 109.165 69.2145 109.686 72.5404 109.834Z" fill="#D3766A"/>
<path d="M70.7988 117.755L87.4432 118.346L91.4186 94.9018L74.7742 94.3114L70.7988 117.755Z" fill="#263238"/>
<path d="M71.6155 117.785L88.2598 118.375L92.2401 94.9265L75.5958 94.3411L71.6155 117.785Z" fill="#455A64"/>
<path d="M84.132 105.406C84.0719 105.842 83.8539 106.242 83.5194 106.528C83.1848 106.815 82.7569 106.968 82.3165 106.961C82.1095 106.955 81.906 106.906 81.7193 106.816C81.5326 106.727 81.3668 106.599 81.2327 106.441C81.0986 106.283 80.9992 106.099 80.941 105.901C80.8827 105.702 80.8669 105.493 80.8946 105.288C80.9558 104.851 81.1748 104.452 81.5101 104.166C81.8455 103.879 82.2741 103.725 82.715 103.733C82.9216 103.74 83.1245 103.789 83.3106 103.879C83.4967 103.969 83.6619 104.097 83.7955 104.254C83.9291 104.412 84.028 104.596 84.086 104.795C84.144 104.993 84.1596 105.201 84.132 105.406Z" fill="white"/>
<path d="M64.3929 121.568C69.1752 121.544 75.1284 121.804 79.7679 119.044C80.2911 118.751 80.7002 118.29 80.9291 117.736C83.0299 116.535 83.0939 115.182 83.0939 115.182C84.7076 113.465 84.5699 112.078 84.5699 112.078C84.5699 112.078 87.0299 110.641 86.4001 109.012C85.7064 107.192 82.4001 109.563 79.7876 109.755C73.7901 110.203 65.1457 109.155 63.4089 109.111L64.3929 121.568Z" fill="#D3766A"/>
<path d="M73.8393 114.636C75.5947 114.529 77.3405 114.301 79.0643 113.952C80.9276 113.455 82.7514 112.82 84.5206 112.053C84.5747 112.028 84.6092 112.102 84.56 112.137C81.293 113.96 77.5881 114.852 73.8491 114.715C73.7606 114.715 73.7507 114.636 73.8393 114.636Z" fill="#263238"/>
<path d="M73.5835 118.292C75.2858 118.036 78.2821 117.568 83.0643 115.133C83.0643 115.133 83.0988 115.133 83.0643 115.158C80.2619 117.092 76.975 118.207 73.5737 118.375C73.4851 118.38 73.4703 118.311 73.5835 118.292Z" fill="#263238"/>
<path d="M73.4801 120.26C76.3633 119.713 78.1098 119.005 80.9093 117.731C80.9093 117.731 80.9438 117.731 80.9093 117.76C77.8786 119.541 76.5748 119.846 73.4654 120.363C73.3768 120.383 73.367 120.284 73.4801 120.26Z" fill="#263238"/>
<path d="M59.4237 108.329L60.2945 122.469C60.2945 122.469 44.7719 121.691 40.8359 117.022C36.8999 112.353 34.868 97.111 35.1238 90.7937C35.3797 84.4764 38.6219 83.8368 41.3771 89.6621C44.1323 95.4874 49.1753 106.513 49.4263 106.818C49.6772 107.123 59.4237 108.329 59.4237 108.329Z" fill="#90CAF9"/>
<path d="M57.8837 115.231C57.8493 114.208 57.7952 113.185 57.7411 112.161C57.7115 111.669 57.6919 111.177 57.6476 110.685C57.6033 110.193 57.5984 109.613 57.5147 109.091C57.5147 109.083 57.5116 109.076 57.5061 109.07C57.5006 109.065 57.4931 109.062 57.4852 109.062C57.4774 109.062 57.4699 109.065 57.4644 109.07C57.4588 109.076 57.4557 109.083 57.4557 109.091C57.4065 109.618 57.4557 110.159 57.4557 110.69C57.4557 111.222 57.4557 111.674 57.4557 112.166C57.4557 113.19 57.4803 114.213 57.5197 115.236C57.5885 117.288 57.7214 119.33 57.8788 121.376C57.8788 121.387 57.883 121.397 57.8904 121.404C57.8977 121.412 57.9077 121.416 57.9182 121.416C57.9286 121.416 57.9386 121.412 57.946 121.404C57.9534 121.397 57.9575 121.387 57.9575 121.376C57.9526 119.33 57.9477 117.283 57.8837 115.231Z" fill="#263238"/>
<path d="M45.2246 119.654C43.7231 119.27 42.3596 118.472 41.2886 117.352C40.1482 116.107 39.3187 114.61 38.8679 112.983C37.6973 109.435 36.8105 105.799 36.2161 102.11C35.8815 100.014 35.6011 97.8982 35.4338 95.7777C35.4338 95.7699 35.4307 95.7624 35.4251 95.7568C35.4196 95.7513 35.4121 95.7482 35.4043 95.7482C35.3964 95.7482 35.3889 95.7513 35.3834 95.7568C35.3779 95.7624 35.3747 95.7699 35.3747 95.7777C35.4043 97.2898 35.4928 98.7904 35.6404 100.279C35.6109 100.181 35.5814 100.078 35.5568 99.9744C35.4092 99.3496 35.2419 98.7297 35.0648 98.1048C35.0648 98.0163 34.9172 98.0606 34.9319 98.1442C35.0286 98.7839 35.16 99.4179 35.3255 100.043C35.4535 100.501 35.5715 100.993 35.7437 101.45C35.9691 103.411 36.2976 105.359 36.7277 107.286C37.1558 109.18 37.6625 111.064 38.2726 112.914C38.8187 114.557 39.4633 116.146 40.6982 117.401C41.9285 118.604 43.4886 119.414 45.1803 119.728C45.1901 119.734 45.2018 119.736 45.2129 119.733C45.224 119.73 45.2335 119.723 45.2393 119.713C45.2452 119.704 45.247 119.692 45.2442 119.681C45.2414 119.67 45.2344 119.66 45.2246 119.654Z" fill="#263238"/>
<path d="M54.8973 107.714C53.6525 107.428 52.393 107.222 51.1335 106.995L50.2331 106.848C49.8936 106.794 49.6034 106.779 49.4361 106.439C49.1409 105.849 48.89 105.229 48.6194 104.624C47.6354 102.4 46.6071 100.196 45.5542 97.972C45.2885 97.17 45.0327 96.3582 44.7916 95.5513C44.7916 95.5422 44.788 95.5335 44.7815 95.527C44.7751 95.5205 44.7663 95.5169 44.7572 95.5169C44.748 95.5169 44.7393 95.5205 44.7328 95.527C44.7263 95.5335 44.7227 95.5422 44.7227 95.5513C44.8359 96.0679 44.9786 96.5747 45.1311 97.0765C44.6128 96.004 44.0815 94.938 43.537 93.8785C43.5075 93.8293 43.4238 93.8785 43.4435 93.9179C44.4275 96.3779 45.5148 98.8084 46.6218 101.224C47.1827 102.444 47.7387 103.684 48.3094 104.88C48.58 105.455 48.8309 106.051 49.1212 106.616C49.4115 107.182 49.9674 107.143 50.5086 107.227C51.9846 107.443 53.4213 107.659 54.8874 107.787C54.9416 107.812 54.9465 107.748 54.8973 107.714Z" fill="#263238"/>
</svg>
