<svg width="610" height="455" viewBox="0 0 610 455" fill="none" xmlns="http://www.w3.org/2000/svg">
<path d="M610 399.528H0V399.833H610V399.528Z" fill="#EBEBEB"/>
<path d="M289.14 345.116H53.5702C51.7248 345.113 49.956 344.377 48.6522 343.071C47.3485 341.765 46.6162 339.995 46.6162 338.15V7.0052C46.6323 5.17035 47.3716 3.41593 48.6737 2.12302C49.9757 0.830117 51.7353 0.103142 53.5702 0.0999985H289.14C290.988 0.0999985 292.759 0.833936 294.066 2.14035C295.372 3.44677 296.106 5.21865 296.106 7.0662V338.15C296.106 339.997 295.372 341.769 294.066 343.076C292.759 344.382 290.988 345.116 289.14 345.116ZM53.5702 0.343999C51.8057 0.347231 50.1145 1.05046 48.8679 2.29933C47.6213 3.54819 46.9212 5.24065 46.9212 7.0052V338.15C46.9212 339.914 47.6213 341.607 48.8679 342.856C50.1145 344.105 51.8057 344.808 53.5702 344.811H289.14C290.906 344.808 292.598 344.105 293.847 342.856C295.095 341.608 295.798 339.915 295.801 338.15V7.0052C295.798 5.23953 295.095 3.5471 293.847 2.29858C292.598 1.05006 290.906 0.347224 289.14 0.343999H53.5702Z" fill="#EBEBEB"/>
<path d="M553.038 345.116H317.456C315.61 345.113 313.84 344.378 312.534 343.072C311.228 341.766 310.493 339.996 310.49 338.15V7.0052C310.509 5.16924 311.251 3.41483 312.555 2.12226C313.859 0.829691 315.62 0.103107 317.456 0.0999985H553.038C554.871 0.106348 556.627 0.834742 557.927 2.12731C559.226 3.41987 559.964 5.17246 559.98 7.0052V338.15C559.98 339.993 559.249 341.761 557.948 343.067C556.647 344.373 554.882 345.11 553.038 345.116ZM317.456 0.343999C315.691 0.347224 313.998 1.05006 312.75 2.29858C311.501 3.5471 310.798 5.23953 310.795 7.0052V338.15C310.798 339.915 311.501 341.608 312.75 342.856C313.998 344.105 315.691 344.808 317.456 344.811H553.038C554.804 344.808 556.496 344.105 557.745 342.856C558.993 341.608 559.696 339.915 559.699 338.15V7.0052C559.696 5.23953 558.993 3.5471 557.745 2.29858C556.496 1.05006 554.804 0.347224 553.038 0.343999H317.456Z" fill="#EBEBEB"/>
<path d="M115.766 411.142H64.0012V411.447H115.766V411.142Z" fill="#EBEBEB"/>
<path d="M244.537 407.836H148.437V408.141H244.537V407.836Z" fill="#EBEBEB"/>
<path d="M129.051 422.476H116.986V422.781H129.051V422.476Z" fill="#EBEBEB"/>
<path d="M548.878 420.427H504.47V420.732H548.878V420.427Z" fill="#EBEBEB"/>
<path d="M493.612 420.427H477.593V420.732H493.612V420.427Z" fill="#EBEBEB"/>
<path d="M290.226 415.278H223.663V415.583H290.226V415.278Z" fill="#EBEBEB"/>
<path d="M265.545 51.0716H89.4749V399.528H265.545V51.0716Z" fill="#F0F0F0"/>
<path d="M265.557 51.0716H93.1956V399.528H265.557V51.0716Z" fill="#F5F5F5"/>
<path d="M255.053 391.622L255.053 58.9772L103.7 58.9772L103.7 391.622H255.053Z" fill="#F0F0F0"/>
<path d="M231.483 371.553H127.258C124.791 371.55 122.427 370.568 120.684 368.823C118.941 367.077 117.962 364.711 117.962 362.245V300.22C117.962 297.753 118.941 295.387 120.684 293.642C122.427 291.897 124.791 290.915 127.258 290.911H231.483C233.95 290.915 236.316 291.896 238.061 293.641C239.806 295.386 240.788 297.752 240.791 300.22V362.294C240.775 364.753 239.788 367.106 238.044 368.841C236.301 370.575 233.942 371.55 231.483 371.553ZM127.258 292.083C126.193 292.084 125.138 292.296 124.155 292.706C123.172 293.117 122.28 293.717 121.529 294.473C120.779 295.229 120.185 296.126 119.782 297.112C119.379 298.099 119.175 299.155 119.182 300.22V362.294C119.182 364.437 120.032 366.492 121.546 368.009C123.061 369.525 125.115 370.379 127.258 370.382H231.483C233.627 370.379 235.682 369.526 237.199 368.01C238.715 366.493 239.568 364.438 239.571 362.294V300.22C239.568 298.076 238.715 296.02 237.199 294.504C235.682 292.988 233.627 292.135 231.483 292.131L127.258 292.083Z" fill="white"/>
<path d="M163.48 281.835H127.258C124.791 281.831 122.427 280.849 120.684 279.104C118.941 277.359 117.962 274.993 117.962 272.526V93.186C117.962 90.7193 118.941 88.3535 120.684 86.6081C122.427 84.8628 124.791 83.8806 127.258 83.8774H163.48C165.947 83.8806 168.311 84.8628 170.054 86.6081C171.797 88.3535 172.776 90.7193 172.776 93.186V272.526C172.776 274.993 171.797 277.359 170.054 279.104C168.311 280.849 165.947 281.831 163.48 281.835ZM127.258 85.1218C125.115 85.125 123.061 85.9786 121.546 87.4952C120.032 89.0118 119.182 91.0673 119.182 93.2104V272.55C119.182 274.694 120.032 276.749 121.546 278.266C123.061 279.782 125.115 280.636 127.258 280.639H163.48C165.623 280.636 167.677 279.782 169.191 278.266C170.706 276.749 171.556 274.694 171.556 272.55V93.2104C171.556 91.0673 170.706 89.0118 169.191 87.4952C167.677 85.9786 165.623 85.125 163.48 85.1218H127.258Z" fill="white"/>
<path d="M231.483 281.835H195.2C192.733 281.831 190.369 280.849 188.626 279.104C186.883 277.359 185.904 274.993 185.904 272.526V93.186C185.904 90.7193 186.883 88.3535 188.626 86.6081C190.369 84.8628 192.733 83.8806 195.2 83.8774H231.458C233.926 83.8806 236.292 84.8624 238.037 86.6074C239.782 88.3524 240.764 90.7182 240.767 93.186V272.526C240.764 274.99 239.785 277.352 238.046 279.096C236.306 280.84 233.946 281.825 231.483 281.835ZM195.2 85.1218C193.057 85.125 191.003 85.9786 189.488 87.4952C187.974 89.0118 187.124 91.0673 187.124 93.2104V272.55C187.124 274.694 187.974 276.749 189.488 278.266C191.003 279.782 193.057 280.636 195.2 280.639H231.458C233.603 280.636 235.658 279.783 237.174 278.266C238.691 276.75 239.544 274.695 239.547 272.55V93.2104C239.544 91.0662 238.691 89.0107 237.174 87.4945C235.658 85.9783 233.603 85.125 231.458 85.1218H195.2Z" fill="white"/>
<path d="M220.32 211.611H243.097C243.893 211.611 244.656 211.295 245.219 210.732C245.782 210.17 246.098 209.406 246.098 208.61C246.095 207.815 245.778 207.054 245.216 206.492C244.653 205.929 243.892 205.612 243.097 205.609H220.32C219.524 205.609 218.76 205.925 218.197 206.488C217.635 207.051 217.318 207.814 217.318 208.61C217.318 209.406 217.635 210.17 218.197 210.732C218.76 211.295 219.524 211.611 220.32 211.611Z" fill="#E0E0E0"/>
<path d="M255.053 391.622L255.053 58.9772H252.333L252.333 391.622H255.053Z" fill="#F0F0F0"/>
<path d="M487.841 32.0884H344.699V202.681H487.841V32.0884Z" fill="#E6E6E6"/>
<path d="M498.773 32.0884H348.347V202.681H498.773V32.0884Z" fill="#F5F5F5"/>
<path d="M486.182 44.691H360.949V190.078H486.182V44.691Z" fill="white"/>
<path d="M437.053 119.416C436.954 119.418 436.856 119.4 436.764 119.363C436.673 119.326 436.589 119.272 436.519 119.202C436.448 119.133 436.393 119.051 436.354 118.959C436.316 118.868 436.297 118.771 436.297 118.672V72.141C436.32 71.9585 436.409 71.7907 436.547 71.6691C436.685 71.5475 436.863 71.4805 437.047 71.4805C437.231 71.4805 437.409 71.5475 437.547 71.6691C437.685 71.7907 437.774 71.9585 437.797 72.141V118.672C437.797 118.869 437.719 119.058 437.579 119.198C437.44 119.338 437.25 119.416 437.053 119.416Z" fill="#E6E6E6"/>
<path d="M366 190.091L386.899 153.356C387.206 152.814 387.636 152.35 388.154 152.001C388.671 151.653 389.263 151.43 389.882 151.349C390.501 151.269 391.13 151.333 391.719 151.538C392.309 151.742 392.843 152.081 393.279 152.527L404.162 163.641L433.381 114.133C433.746 113.519 434.267 113.012 434.892 112.665C435.517 112.318 436.222 112.143 436.937 112.158C437.651 112.173 438.349 112.377 438.959 112.75C439.569 113.123 440.069 113.651 440.408 114.28L481.07 190.091H366Z" fill="#F0F0F0"/>
<path d="M437.419 98.0172C426.11 97.7854 414.788 95.382 403.466 95.1502C403.001 95.1438 402.558 94.9546 402.231 94.6235C401.905 94.2925 401.722 93.8462 401.722 93.3812V72.6412C401.72 72.4048 401.766 72.1704 401.856 71.9519C401.947 71.7334 402.08 71.5353 402.248 71.3693C402.417 71.2032 402.617 71.0726 402.836 70.9851C403.056 70.8976 403.291 70.8551 403.527 70.86C414.837 71.104 426.158 73.4952 437.48 73.7392C437.944 73.7424 438.387 73.9289 438.714 74.258C439.041 74.5872 439.225 75.0322 439.225 75.496V96.236C439.226 96.4724 439.18 96.7068 439.09 96.9253C439 97.1438 438.866 97.3419 438.698 97.5079C438.53 97.674 438.33 97.8046 438.11 97.8921C437.89 97.9795 437.655 98.0221 437.419 98.0172Z" fill="#F0F0F0"/>
<path d="M536.409 264.535H505.543V399.528H536.409V264.535Z" fill="#E6E6E6"/>
<path d="M523.038 399.528H536.41V377.129H522.709L523.038 399.528Z" fill="#F5F5F5"/>
<path d="M358.473 264.535H327.607V399.528H358.473V264.535Z" fill="#E6E6E6"/>
<path d="M536.41 264.535H346.809V391.818H536.41V264.535Z" fill="#F5F5F5"/>
<path d="M360.168 399.528H346.809V377.129H360.498L360.168 399.528Z" fill="#F5F5F5"/>
<path d="M522.026 275.247H361.193C358.976 275.247 357.179 277.044 357.179 279.26V318.178C357.179 320.395 358.976 322.192 361.193 322.192H522.026C524.243 322.192 526.04 320.395 526.04 318.178V279.26C526.04 277.044 524.243 275.247 522.026 275.247Z" fill="#EBEBEB"/>
<path d="M494.1 309.253C501.084 307.604 505.409 300.606 503.761 293.622C502.112 286.639 495.114 282.313 488.13 283.962C481.146 285.61 476.821 292.608 478.469 299.592C480.118 306.576 487.116 310.901 494.1 309.253Z" fill="white"/>
<path d="M522.026 333.526H361.193C358.976 333.526 357.179 335.323 357.179 337.54V376.458C357.179 378.675 358.976 380.472 361.193 380.472H522.026C524.243 380.472 526.04 378.675 526.04 376.458V337.54C526.04 335.323 524.243 333.526 522.026 333.526Z" fill="#EBEBEB"/>
<path d="M491.123 367.869C498.299 367.869 504.116 362.052 504.116 354.876C504.116 347.7 498.299 341.883 491.123 341.883C483.947 341.883 478.13 347.7 478.13 354.876C478.13 362.052 483.947 367.869 491.123 367.869Z" fill="white"/>
<path d="M395.061 309.25C402.045 307.602 406.37 300.604 404.722 293.62C403.074 286.636 396.076 282.311 389.092 283.959C382.108 285.607 377.783 292.605 379.431 299.589C381.079 306.573 388.077 310.898 395.061 309.25Z" fill="white"/>
<path d="M392.084 367.869C399.259 367.869 405.077 362.052 405.077 354.876C405.077 347.7 399.259 341.883 392.084 341.883C384.908 341.883 379.091 347.7 379.091 354.876C379.091 362.052 384.908 367.869 392.084 367.869Z" fill="white"/>
<path d="M305 454.623C435.641 454.623 541.546 448.44 541.546 440.813C541.546 433.186 435.641 427.002 305 427.002C174.36 427.002 68.4543 433.186 68.4543 440.813C68.4543 448.44 174.36 454.623 305 454.623Z" fill="#F5F5F5"/>
<path d="M285.724 198.96V188.944L291.909 187.175C292.284 183.81 292.945 180.484 293.886 177.232L288.847 173.206L292.666 163.97L299.058 164.702C300.718 161.746 302.611 158.927 304.719 156.272L301.596 150.636L308.648 143.56L314.308 146.683C316.951 144.571 319.767 142.686 322.726 141.047L321.994 134.654L331.242 130.811L335.244 135.849C338.51 134.932 341.842 134.272 345.211 133.873L346.98 127.688H356.972L358.777 133.873C362.138 134.274 365.462 134.935 368.72 135.849L372.734 130.811L381.97 134.654L381.238 141.047C384.203 142.683 387.023 144.568 389.668 146.683L395.304 143.56L402.392 150.636L399.257 156.26C401.362 158.912 403.247 161.731 404.893 164.69L411.286 163.958L415.129 173.194L410.066 177.22C411.012 180.47 411.674 183.797 412.043 187.163L418.265 188.932V198.96L412.043 200.729C411.677 204.099 411.016 207.43 410.066 210.684L415.129 214.698L411.286 223.933L404.893 223.226C403.247 226.177 401.362 228.988 399.257 231.632L402.392 237.292L395.28 244.307L389.643 241.172C386.996 243.29 384.176 245.184 381.213 246.833L381.945 253.226L372.71 257.044L368.696 252.006C365.443 252.944 362.117 253.605 358.753 253.982L356.947 260.18H346.956L345.26 253.982C341.887 253.607 338.553 252.946 335.292 252.006L331.291 257.044L322.043 253.226L322.775 246.833C319.818 245.181 317.003 243.287 314.357 241.172L308.66 244.307L301.608 237.244L304.731 231.583C302.623 228.937 300.73 226.126 299.071 223.177L292.678 223.885L288.859 214.649L293.898 210.635C292.954 207.38 292.293 204.049 291.921 200.68L285.724 198.96ZM351.982 240.111C361.111 240.111 370.034 237.403 377.624 232.332C385.214 227.26 391.13 220.051 394.623 211.617C398.115 203.183 399.029 193.903 397.247 184.95C395.465 175.997 391.068 167.773 384.613 161.319C378.157 154.865 369.932 150.47 360.979 148.691C352.025 146.911 342.745 147.827 334.312 151.322C325.879 154.817 318.671 160.735 313.602 168.326C308.532 175.917 305.827 184.842 305.829 193.97C305.842 206.201 310.711 217.926 319.365 226.569C328.02 235.212 339.751 240.065 351.982 240.062V240.111Z" fill="#92E3A9"/>
<path opacity="0.7" d="M285.724 198.96V188.944L291.909 187.175C292.284 183.81 292.945 180.484 293.886 177.232L288.847 173.206L292.666 163.97L299.058 164.702C300.718 161.746 302.611 158.927 304.719 156.272L301.596 150.636L308.648 143.56L314.308 146.683C316.951 144.571 319.767 142.686 322.726 141.047L321.994 134.654L331.242 130.811L335.244 135.849C338.51 134.932 341.842 134.272 345.211 133.873L346.98 127.688H356.972L358.777 133.873C362.138 134.274 365.462 134.935 368.72 135.849L372.734 130.811L381.97 134.654L381.238 141.047C384.203 142.683 387.023 144.568 389.668 146.683L395.304 143.56L402.392 150.636L399.257 156.26C401.362 158.912 403.247 161.731 404.893 164.69L411.286 163.958L415.129 173.194L410.066 177.22C411.012 180.47 411.674 183.797 412.043 187.163L418.265 188.932V198.96L412.043 200.729C411.677 204.099 411.016 207.43 410.066 210.684L415.129 214.698L411.286 223.933L404.893 223.226C403.247 226.177 401.362 228.988 399.257 231.632L402.392 237.292L395.28 244.307L389.643 241.172C386.996 243.29 384.176 245.184 381.213 246.833L381.945 253.226L372.71 257.044L368.696 252.006C365.443 252.944 362.117 253.605 358.753 253.982L356.947 260.18H346.956L345.26 253.982C341.887 253.607 338.553 252.946 335.292 252.006L331.291 257.044L322.043 253.226L322.775 246.833C319.818 245.181 317.003 243.287 314.357 241.172L308.66 244.307L301.608 237.244L304.731 231.583C302.623 228.937 300.73 226.126 299.071 223.177L292.678 223.885L288.859 214.649L293.898 210.635C292.954 207.38 292.293 204.049 291.921 200.68L285.724 198.96ZM351.982 240.111C361.111 240.111 370.034 237.403 377.624 232.332C385.214 227.26 391.13 220.051 394.623 211.617C398.115 203.183 399.029 193.903 397.247 184.95C395.465 175.997 391.068 167.773 384.613 161.319C378.157 154.865 369.932 150.47 360.979 148.691C352.025 146.911 342.745 147.827 334.312 151.322C325.879 154.817 318.671 160.735 313.602 168.326C308.532 175.917 305.827 184.842 305.829 193.97C305.842 206.201 310.711 217.926 319.365 226.569C328.02 235.212 339.751 240.065 351.982 240.062V240.111Z" fill="white"/>
<path d="M254.065 270.367C254.743 268.192 255.639 266.091 256.737 264.096L255.395 257.996L264.496 248.895L270.596 250.237C272.592 249.138 274.692 248.243 276.867 247.565L280.832 241.367H293.727L297.68 247.565C299.858 248.243 301.963 249.138 303.963 250.237L310.063 248.895L319.176 257.996L317.834 264.096C318.928 266.094 319.823 268.194 320.506 270.367L326.692 274.332V287.215L320.506 291.18C319.818 293.355 318.923 295.458 317.834 297.463L319.176 303.563L310.063 312.676L303.963 311.334C301.961 312.427 299.856 313.322 297.68 314.006L293.727 320.191H280.856L276.94 314.018C274.768 313.335 272.667 312.44 270.669 311.346L264.569 312.688L255.468 303.575L256.81 297.475C255.716 295.473 254.821 293.369 254.138 291.192L247.953 287.227V274.332L254.065 270.367ZM287.298 298.622C290.829 298.624 294.281 297.579 297.217 295.62C300.154 293.66 302.444 290.873 303.797 287.612C305.149 284.351 305.505 280.762 304.817 277.299C304.13 273.836 302.431 270.654 299.935 268.157C297.44 265.659 294.259 263.958 290.797 263.268C287.334 262.579 283.745 262.932 280.483 264.282C277.22 265.633 274.432 267.92 272.47 270.856C270.509 273.791 269.461 277.243 269.461 280.773C269.461 285.505 271.34 290.043 274.685 293.39C278.03 296.737 282.566 298.619 287.298 298.622Z" fill="#92E3A9"/>
<path opacity="0.5" d="M254.065 270.367C254.743 268.192 255.639 266.091 256.737 264.096L255.395 257.996L264.496 248.895L270.596 250.237C272.592 249.138 274.692 248.243 276.867 247.565L280.832 241.367H293.727L297.68 247.565C299.858 248.243 301.963 249.138 303.963 250.237L310.063 248.895L319.176 257.996L317.834 264.096C318.928 266.094 319.823 268.194 320.506 270.367L326.692 274.332V287.215L320.506 291.18C319.818 293.355 318.923 295.458 317.834 297.463L319.176 303.563L310.063 312.676L303.963 311.334C301.961 312.427 299.856 313.322 297.68 314.006L293.727 320.191H280.856L276.94 314.018C274.768 313.335 272.667 312.44 270.669 311.346L264.569 312.688L255.468 303.575L256.81 297.475C255.716 295.473 254.821 293.369 254.138 291.192L247.953 287.227V274.332L254.065 270.367ZM287.298 298.622C290.829 298.624 294.281 297.579 297.217 295.62C300.154 293.66 302.444 290.873 303.797 287.612C305.149 284.351 305.505 280.762 304.817 277.299C304.13 273.836 302.431 270.654 299.935 268.157C297.44 265.659 294.259 263.958 290.797 263.268C287.334 262.579 283.745 262.932 280.483 264.282C277.22 265.633 274.432 267.92 272.47 270.856C270.509 273.791 269.461 277.243 269.461 280.773C269.461 285.505 271.34 290.043 274.685 293.39C278.03 296.737 282.566 298.619 287.298 298.622Z" fill="white"/>
<path d="M497.211 53.78V213.429C519.915 213.429 541.46 184.784 541.46 133.568C541.46 82.3524 519.915 53.78 497.211 53.78Z" fill="#263238"/>
<path d="M478.569 59.6482L478.045 59.0626C479.117 58.0958 480.241 57.1876 481.412 56.342L481.875 56.9886C480.72 57.8068 479.616 58.695 478.569 59.6482Z" fill="#92E3A9"/>
<path d="M466.394 76.2036L465.698 75.8498C467.908 71.461 470.601 67.3322 473.726 63.54L474.336 64.0524C471.239 67.7909 468.575 71.8671 466.394 76.2036Z" fill="#92E3A9"/>
<path d="M497.211 213.429C519.911 213.429 538.313 177.674 538.313 133.568C538.313 89.4619 519.911 53.7068 497.211 53.7068C474.511 53.7068 456.109 89.4619 456.109 133.568C456.109 177.674 474.511 213.429 497.211 213.429Z" fill="#92E3A9"/>
<path d="M497.211 197.459C515.376 197.459 530.102 168.854 530.102 133.568C530.102 98.2817 515.376 69.6766 497.211 69.6766C479.045 69.6766 464.32 98.2817 464.32 133.568C464.32 168.854 479.045 197.459 497.211 197.459Z" fill="white"/>
<path d="M497.211 181.49C510.835 181.49 521.879 160.034 521.879 133.568C521.879 107.102 510.835 85.6464 497.211 85.6464C483.587 85.6464 472.542 107.102 472.542 133.568C472.542 160.034 483.587 181.49 497.211 181.49Z" fill="#92E3A9"/>
<path d="M497.211 165.508C506.293 165.508 513.656 151.208 513.656 133.568C513.656 115.928 506.293 101.628 497.211 101.628C488.128 101.628 480.765 115.928 480.765 133.568C480.765 151.208 488.128 165.508 497.211 165.508Z" fill="white"/>
<path d="M497.211 149.538C501.752 149.538 505.434 142.388 505.434 133.568C505.434 124.748 501.752 117.598 497.211 117.598C492.669 117.598 488.988 124.748 488.988 133.568C488.988 142.388 492.669 149.538 497.211 149.538Z" fill="#92E3A9"/>
<path d="M459.94 204.657L403.82 246.003L428.403 249.346L380.433 329.244L311.442 317.044C310.606 316.894 309.745 316.965 308.945 317.249C308.145 317.534 307.433 318.022 306.879 318.666L249.539 384.986L170.032 372.42C169.191 372.287 168.331 372.345 167.516 372.59C166.7 372.835 165.951 373.261 165.322 373.835L103.2 430.76C102.017 431.865 101.322 433.394 101.267 435.012C101.212 436.63 101.802 438.203 102.907 439.385C104.012 440.568 105.542 441.263 107.159 441.318C108.777 441.373 110.35 440.783 111.533 439.678L170.971 384.095L250.759 396.014C251.659 396.158 252.581 396.067 253.435 395.751C254.29 395.434 255.049 394.903 255.639 394.209L312.442 327.182L381.86 338.967C382.782 339.124 383.729 338.996 384.577 338.602C385.424 338.207 386.132 337.565 386.606 336.759L435.589 253.726L450.229 273.734L459.94 204.657Z" fill="#263238"/>
<path d="M209.303 147.647L208.669 147.964L207.888 148.367C207.363 148.659 206.814 148.94 206.277 149.257C205.204 149.867 204.13 150.538 203.069 151.246C200.934 152.624 198.872 154.162 196.835 155.76C194.797 157.358 192.87 159.09 190.954 160.859L188.16 163.58L186.794 164.995L186.123 165.715L185.867 165.983C185.008 167.456 184.685 169.18 184.952 170.863C185.148 173.29 185.61 175.687 186.33 178.013C187.9 183.07 189.862 187.998 192.199 192.75L187.624 195.739C184.012 191.167 180.984 186.163 178.608 180.843C177.331 178.002 176.409 175.015 175.863 171.949C175.565 170.201 175.491 168.421 175.643 166.654C175.814 164.554 176.466 162.522 177.546 160.713C177.842 160.226 178.172 159.761 178.535 159.322L179.218 158.468L180.609 156.785C181.548 155.662 182.524 154.576 183.512 153.503C185.525 151.362 187.647 149.326 189.868 147.403C192.113 145.456 194.476 143.651 196.944 141.998C198.164 141.169 199.458 140.376 200.8 139.631C201.446 139.241 202.129 138.887 202.825 138.533L203.911 138.009C204.301 137.826 204.594 137.692 205.131 137.46L209.303 147.647Z" fill="#B55B52"/>
<path d="M226.444 104.178C226.858 110.681 227.834 124.918 222.784 128.578C222.784 128.578 223.674 135.239 235.459 136.789C248.428 138.485 242.499 131.165 242.499 131.165C235.642 128.554 236.509 123.32 238.387 118.562L226.444 104.178Z" fill="#B55B52"/>
<path d="M220.295 131.86C220.295 131.86 219.148 128.2 218.733 126.065C218.319 123.93 234.337 124.625 239.644 125.98C244.951 127.334 246.635 133.556 246.635 133.556L220.295 131.86Z" fill="#263238"/>
<path d="M250.173 99.6276C251.151 101.522 252.383 103.275 253.833 104.837C253.428 105.2 252.948 105.468 252.427 105.622C251.906 105.776 251.357 105.812 250.82 105.728L250.173 99.6276Z" fill="#A02724"/>
<path d="M246.44 93.9668C246.359 93.9638 246.28 93.943 246.208 93.9058C246.149 93.8738 246.096 93.8305 246.053 93.7782C246.011 93.7259 245.979 93.6657 245.96 93.6011C245.941 93.5365 245.934 93.4688 245.941 93.4017C245.948 93.3347 245.968 93.2697 246 93.2104C246.361 92.4841 246.89 91.8547 247.544 91.375C248.198 90.8952 248.957 90.5792 249.758 90.4532C249.892 90.443 250.025 90.4859 250.127 90.5726C250.23 90.6594 250.295 90.783 250.307 90.9168C250.316 90.9835 250.31 91.0512 250.292 91.1159C250.274 91.1806 250.243 91.2409 250.201 91.2933C250.158 91.3457 250.106 91.3891 250.047 91.4208C249.988 91.4525 249.923 91.472 249.856 91.478C249.223 91.5834 248.625 91.8389 248.111 92.2231C247.597 92.6073 247.183 93.109 246.903 93.6862C246.859 93.7707 246.792 93.8416 246.71 93.891C246.629 93.9404 246.535 93.9667 246.44 93.9668Z" fill="#263238"/>
<path d="M249.246 98.2246C249.331 99.0908 249.868 99.7374 250.466 99.6886C251.063 99.6398 251.417 98.8834 251.332 98.0172C251.246 97.151 250.71 96.4922 250.112 96.5532C249.514 96.6142 249.16 97.3584 249.246 98.2246Z" fill="#263238"/>
<path d="M249.868 96.6264L251.881 95.809C251.881 95.809 250.978 97.5414 249.868 96.6264Z" fill="#263238"/>
<path d="M166.981 369.919L177.388 372.737L187.245 349.545L176.839 346.726L166.981 369.919Z" fill="#B55B52"/>
<path d="M181.036 364.88L169.068 362.989C168.862 362.956 168.651 362.998 168.474 363.108C168.297 363.218 168.166 363.388 168.104 363.587L165.249 372.834C165.186 373.07 165.173 373.316 165.211 373.556C165.249 373.797 165.337 374.027 165.469 374.231C165.601 374.436 165.775 374.61 165.979 374.744C166.182 374.877 166.412 374.967 166.652 375.006C170.837 375.592 172.886 375.665 178.144 376.494C181.377 377.007 186.062 378.093 190.527 378.788C194.993 379.483 195.932 375.128 194.187 374.42C186.123 371.309 185.196 368.625 182.756 365.88C182.319 365.354 181.709 364.999 181.036 364.88Z" fill="#263238"/>
<path opacity="0.2" d="M176.839 346.726L187.245 349.557L182.158 361.513L171.751 358.682L176.839 346.726Z" fill="black"/>
<path d="M214.341 130.774C210.071 129.115 197.164 139.875 197.164 139.875L202.922 159.713C202.922 159.713 217.379 151.319 218.672 145.5C220.027 139.448 219.392 132.738 214.341 130.774Z" fill="#92E3A9"/>
<path d="M262.361 140.742C262.361 147.671 262.617 160.518 258.103 183.442C257.286 187.602 258.896 189.456 258.176 193.702C257.7 196.483 256.139 196.069 255.919 197.423H212.146C212.146 196.13 210.23 195.434 209.779 192.616C208.766 186.174 212.499 185.638 212.377 181.575C212.072 171.327 210.572 159.798 206.094 139.57C205.866 138.582 205.846 137.558 206.035 136.562C206.223 135.565 206.617 134.619 207.19 133.783C207.764 132.947 208.505 132.239 209.366 131.704C210.227 131.17 211.191 130.82 212.194 130.677C215.342 130.225 219.124 129.786 222.955 129.603C229.575 129.127 236.221 129.127 242.841 129.603C246.72 129.957 250.832 130.555 254.175 131.104C256.461 131.477 258.54 132.652 260.04 134.418C261.539 136.183 262.362 138.425 262.361 140.742Z" fill="#92E3A9"/>
<path opacity="0.2" d="M250.271 146.768C252.223 151.429 258.445 158.419 261.446 161.64C261.909 157.151 262.141 153.344 262.263 150.123L250.271 146.768Z" fill="black"/>
<path d="M263.52 137.277C267.106 140.937 271.01 144.67 274.902 148.123C278.684 151.567 282.735 154.704 287.017 157.504C287.529 157.858 288.054 158.102 288.566 158.419L289.335 158.859C289.445 158.92 289.335 158.859 289.335 158.859H289.249H289.103C288.786 158.859 289.493 158.993 290.323 158.688C292.448 157.854 294.45 156.738 296.277 155.369C300.511 152.274 304.564 148.938 308.416 145.378L312.6 148.879C309.443 153.637 305.76 158.025 301.62 161.957C299.344 164.18 296.734 166.032 293.885 167.447C292.976 167.878 292.023 168.209 291.043 168.436C289.77 168.727 288.452 168.769 287.163 168.558C286.783 168.491 286.408 168.398 286.041 168.277C285.846 168.223 285.655 168.158 285.467 168.082L284.992 167.874L283.955 167.386C283.284 167.045 282.552 166.728 281.917 166.362C276.863 163.548 272.102 160.238 267.704 156.48C263.369 152.862 259.266 148.974 255.419 144.841L263.52 137.277Z" fill="#B55B52"/>
<path d="M311.356 141.62C309.357 143.078 307.758 145.016 306.708 147.256L307.623 151.356C307.647 151.459 307.694 151.556 307.761 151.639C307.827 151.722 307.912 151.789 308.008 151.835C308.104 151.881 308.21 151.904 308.316 151.903C308.423 151.903 308.528 151.878 308.623 151.831L315.175 148.611L317.907 147.22C318.201 147.07 318.441 146.831 318.592 146.538C318.743 146.245 318.798 145.911 318.749 145.585L318.298 142.474C318.244 142.09 318.049 141.741 317.751 141.493C317.454 141.245 317.074 141.116 316.687 141.132L312.442 141.266C312.053 141.277 311.676 141.4 311.356 141.62Z" fill="#B55B52"/>
<path d="M193.724 196.215C193.452 198.674 192.571 201.026 191.162 203.059L187.148 204.279C187.046 204.311 186.939 204.319 186.834 204.303C186.729 204.287 186.628 204.248 186.54 204.188C186.453 204.129 186.379 204.05 186.326 203.958C186.273 203.866 186.241 203.763 186.233 203.657L185.757 196.337L185.574 192.604C185.567 192.469 185.601 192.336 185.674 192.222C185.746 192.108 185.852 192.02 185.977 191.969L190.283 190.261C190.433 190.204 190.599 190.203 190.75 190.259C190.9 190.315 191.025 190.425 191.101 190.566L193.541 195.044C193.713 195.408 193.776 195.815 193.724 196.215Z" fill="#B55B52"/>
<path d="M149.755 232.327L193.516 237.451C194.569 237.527 195.618 237.266 196.512 236.707C197.407 236.148 198.101 235.319 198.494 234.34L207.815 208.561C207.999 208.142 208.079 207.685 208.047 207.228C208.016 206.771 207.874 206.329 207.634 205.939C207.394 205.549 207.063 205.224 206.67 204.99C206.276 204.756 205.832 204.621 205.375 204.596L161.613 199.472C160.561 199.397 159.512 199.657 158.617 200.216C157.722 200.775 157.029 201.604 156.636 202.583L147.315 228.362C147.131 228.781 147.051 229.239 147.082 229.695C147.114 230.152 147.256 230.594 147.496 230.984C147.735 231.374 148.066 231.7 148.46 231.934C148.853 232.168 149.298 232.303 149.755 232.327Z" fill="#263238"/>
<path d="M154.94 241.318L208.62 247.553C209.837 247.685 211.058 247.346 212.033 246.607C213.009 245.867 213.664 244.783 213.866 243.575L219.087 210.745C219.187 210.162 219.167 209.565 219.027 208.99C218.887 208.415 218.631 207.874 218.274 207.402C217.918 206.93 217.468 206.536 216.953 206.244C216.438 205.953 215.869 205.77 215.281 205.707L161.601 199.472C160.383 199.344 159.162 199.685 158.187 200.426C157.212 201.168 156.557 202.254 156.355 203.462L151.133 236.292C151.033 236.875 151.054 237.471 151.194 238.046C151.334 238.62 151.59 239.159 151.947 239.63C152.304 240.102 152.753 240.495 153.268 240.785C153.783 241.075 154.352 241.257 154.94 241.318Z" fill="#92E3A9"/>
<path opacity="0.3" d="M154.94 241.318L208.62 247.553C209.837 247.685 211.058 247.346 212.033 246.607C213.009 245.867 213.664 244.783 213.866 243.575L219.087 210.745C219.187 210.162 219.167 209.565 219.027 208.99C218.887 208.415 218.631 207.874 218.274 207.402C217.918 206.93 217.468 206.536 216.953 206.244C216.438 205.953 215.869 205.77 215.281 205.707L161.601 199.472C160.383 199.344 159.162 199.685 158.187 200.426C157.212 201.168 156.557 202.254 156.355 203.462L151.133 236.292C151.033 236.875 151.054 237.471 151.194 238.046C151.334 238.62 151.59 239.159 151.947 239.63C152.304 240.102 152.753 240.495 153.268 240.785C153.783 241.075 154.352 241.257 154.94 241.318Z" fill="black"/>
<path d="M196.883 212.612H196.591L181.011 210.794C180.677 210.759 180.355 210.655 180.063 210.489C179.771 210.323 179.517 210.099 179.315 209.83C179.109 209.563 178.96 209.256 178.878 208.929C178.796 208.601 178.783 208.26 178.84 207.927L179.974 200.851C180.194 199.534 180.909 198.35 181.972 197.543C183.036 196.735 184.368 196.365 185.696 196.508L196.115 197.728C196.798 197.805 197.458 198.02 198.055 198.36C198.652 198.699 199.175 199.157 199.59 199.704C200.005 200.252 200.305 200.878 200.471 201.545C200.637 202.212 200.666 202.905 200.556 203.584L199.458 210.44C199.352 211.047 199.036 211.597 198.565 211.994C198.094 212.391 197.499 212.61 196.883 212.612ZM181.292 208.366L196.871 210.172C196.913 210.176 196.954 210.164 196.988 210.14C197.022 210.115 197.045 210.079 197.054 210.038L198.14 203.169C198.202 202.818 198.191 202.458 198.107 202.111C198.023 201.765 197.868 201.439 197.652 201.156C197.434 200.871 197.16 200.634 196.848 200.458C196.535 200.282 196.191 200.171 195.834 200.131L185.44 198.96C184.735 198.897 184.033 199.1 183.471 199.529C182.908 199.958 182.527 200.582 182.402 201.278L181.28 208.354L181.182 209.574L181.292 208.366Z" fill="#92E3A9"/>
<path d="M214.342 248.224L160.662 241.989C159.44 241.829 158.321 241.219 157.525 240.278C156.728 239.338 156.311 238.134 156.355 236.902L158.014 203.657C158.035 203.07 158.178 202.494 158.434 201.965C158.69 201.437 159.054 200.967 159.502 200.587C159.949 200.207 160.472 199.925 161.035 199.758C161.598 199.591 162.19 199.544 162.772 199.619L216.452 205.853C217.681 205.997 218.81 206.602 219.61 207.547C220.409 208.491 220.82 209.704 220.759 210.94L219.1 244.185C219.079 244.772 218.936 245.349 218.68 245.877C218.424 246.406 218.06 246.875 217.613 247.255C217.165 247.635 216.643 247.918 216.079 248.085C215.516 248.251 214.924 248.299 214.342 248.224Z" fill="#92E3A9"/>
<path d="M255.199 131.518C263.483 133.519 272.06 141.681 272.06 141.681L264.74 159.713C264.74 159.713 247.66 149.294 246.074 143.548C244 135.91 247.208 129.591 255.199 131.518Z" fill="#92E3A9"/>
<path d="M219.856 98.2612C221.6 108.814 222.125 113.316 228.042 118.22C236.96 125.54 249.551 121.124 250.99 110.266C252.283 100.506 249.209 84.8656 238.375 81.7058C235.99 81.0108 233.466 80.9345 231.043 81.4841C228.62 82.0336 226.376 83.1909 224.524 84.8469C222.671 86.5029 221.271 88.6033 220.454 90.9501C219.637 93.2968 219.432 95.8129 219.856 98.2612Z" fill="#B55B52"/>
<path d="M245.94 82.5476C238.937 81.7546 226.42 71.5676 219.295 81.9986C212.78 91.6122 209.474 92.9786 199.397 96.8948C182.585 103.361 191.942 110.217 184.757 120.587C177.571 130.957 165.432 127.907 163.712 141.925C161.064 163.385 198.274 189.712 220.539 165.508C242.804 141.303 228.14 133.08 238.168 126.163C250.868 117.354 247.66 102.69 243.292 100.689C248.075 95.809 254.797 83.5724 245.94 82.5476Z" fill="#263238"/>
<path d="M247.062 98.5174C248.55 100.132 249.457 102.197 249.636 104.386C249.795 107.131 247.196 107.35 245.025 105.606C243.024 104.068 240.523 100.726 241.365 98.4808C242.206 96.236 245.22 96.48 247.062 98.5174Z" fill="#B55B52"/>
<path d="M244.366 197.472C244.366 197.472 240.072 261.863 223.443 294.901C216.672 308.321 185.745 358.28 185.745 358.28L170.617 355.767C170.617 355.767 192.492 301.44 205.912 288.667C207.315 252.738 196.823 215.052 212.146 197.435L244.366 197.472Z" fill="#263238"/>
<path opacity="0.4" d="M229.848 214.82C229.372 230.046 231.156 245.258 235.142 259.96C237.582 249.59 239.388 239.037 240.767 229.631C237.743 224.268 234.076 219.294 229.848 214.82Z" fill="black"/>
<path d="M186.818 360.464L168.75 355.559L170.946 349.349L190.393 353.937L186.818 360.464Z" fill="#263238"/>
<path d="M308.038 312.322L319.018 313.933L316.822 289.13L305.842 287.508L308.038 312.322Z" fill="#B55B52"/>
<path d="M319.054 306.54L307.086 304.71C306.88 304.677 306.67 304.719 306.493 304.829C306.316 304.939 306.184 305.109 306.122 305.307L303.316 314.579C303.255 314.816 303.245 315.062 303.285 315.303C303.326 315.543 303.416 315.773 303.55 315.976C303.685 316.18 303.861 316.353 304.066 316.484C304.272 316.615 304.502 316.702 304.744 316.739C308.928 317.3 310.978 317.361 316.248 318.154C319.481 318.654 324.166 319.703 328.631 320.387C333.096 321.07 334.024 316.727 332.218 315.995C324.142 312.932 323.202 310.248 320.738 307.455C320.305 306.956 319.707 306.631 319.054 306.54Z" fill="#263238"/>
<path opacity="0.2" d="M305.829 287.508L316.834 289.13L317.846 300.72L306.964 300.305L305.829 287.508Z" fill="black"/>
<path d="M255.919 197.472C255.919 197.472 328.131 209.672 325.276 230.863C320.774 264.328 319.017 295.34 319.017 295.34L305 294.12C305 294.12 299.119 261.18 303.17 239.122C286.297 231.497 214.878 261.143 223.699 197.472H255.919Z" fill="#263238"/>
<path d="M320.555 298.829L301.95 296.633L301.743 289.996L321.507 291.643L320.555 298.829Z" fill="#263238"/>
<path d="M211.487 194.91L209.51 198.826C209.352 199.131 209.718 199.436 210.218 199.436H256.2C256.59 199.436 256.92 199.253 256.944 198.997L257.347 195.08C257.347 194.812 257.029 194.58 256.59 194.58H212.194C212.058 194.569 211.921 194.594 211.797 194.652C211.673 194.71 211.566 194.798 211.487 194.91Z" fill="white"/>
<path d="M217.44 199.863H216.22C215.976 199.863 215.793 199.741 215.818 199.594L216.367 194.507C216.367 194.348 216.598 194.226 216.83 194.226H218.05C218.294 194.226 218.477 194.348 218.453 194.507L217.904 199.594C217.879 199.741 217.672 199.863 217.44 199.863Z" fill="#263238"/>
<path d="M246.22 199.863H245C244.756 199.863 244.585 199.741 244.598 199.594L245.159 194.507C245.159 194.348 245.378 194.226 245.61 194.226H246.83C247.062 194.226 247.245 194.348 247.221 194.507L246.672 199.594C246.659 199.741 246.44 199.863 246.22 199.863Z" fill="#263238"/>
</svg>
