<svg width="270" height="77" viewBox="0 0 270 77" fill="none" xmlns="http://www.w3.org/2000/svg">
<rect y="33.7639" width="36.9294" height="33.764" fill="#175A80"/>
<path d="M36.9296 0H73.859V33.764H36.9296V0Z" fill="#175A80"/>
<rect x="64.3629" y="4.22046" width="5.27563" height="5.27563" fill="#87C38F"/>
<path d="M76.6945 39.7842C76.6945 40.7165 76.9216 41.5293 77.3758 42.2226C77.83 42.9158 78.3798 43.5015 79.0253 43.9796C79.6707 44.4338 80.5791 45.0195 81.7505 45.7366C82.9935 46.4777 83.9617 47.0992 84.6549 47.6012C85.3482 48.1032 85.9339 48.7487 86.412 49.5376C86.914 50.3025 87.165 51.2229 87.165 52.2986C87.165 53.4461 86.8781 54.4859 86.3044 55.4182C85.7307 56.3505 84.882 57.0916 83.7585 57.6414C82.6588 58.1673 81.3321 58.4303 79.7783 58.4303C77.9376 58.4303 76.2523 58.012 74.7223 57.1753C74.6028 57.1036 74.5191 57.0199 74.4713 56.9243C74.4474 56.8286 74.4235 56.6852 74.3996 56.494L73.9334 51.6173C73.9095 51.5217 73.9574 51.4619 74.0769 51.438C74.2203 51.4141 74.304 51.45 74.3279 51.5456C74.7104 53.2668 75.4156 54.7489 76.4435 55.992C77.4953 57.235 78.8818 57.8566 80.603 57.8566C81.7983 57.8566 82.8023 57.5338 83.6151 56.8884C84.4517 56.2191 84.8701 55.1672 84.8701 53.7329C84.8701 52.6572 84.631 51.7249 84.1529 50.936C83.6748 50.1471 83.0891 49.5017 82.3959 48.9997C81.7265 48.4738 80.8062 47.8642 79.6348 47.1709C78.4874 46.4777 77.579 45.8801 76.9096 45.3781C76.2642 44.876 75.7144 44.2426 75.2602 43.4776C74.806 42.7126 74.5789 41.8162 74.5789 40.7883C74.5789 39.593 74.8897 38.577 75.5112 37.7403C76.1566 36.8798 76.9814 36.2463 77.9854 35.8399C79.0133 35.4096 80.101 35.1944 81.2484 35.1944C82.6588 35.1944 84.0573 35.4813 85.4438 36.055C85.8024 36.1745 85.9817 36.3777 85.9817 36.6646L86.2327 40.7883C86.2327 40.8839 86.1729 40.9317 86.0534 40.9317C85.9339 40.9317 85.8621 40.8839 85.8382 40.7883C85.647 39.5452 85.133 38.3977 84.2964 37.3459C83.4597 36.2702 82.2525 35.7323 80.6747 35.7323C79.336 35.7323 78.332 36.1267 77.6627 36.9156C77.0172 37.6806 76.6945 38.6368 76.6945 39.7842ZM100.261 40.7883C101.169 40.7883 102.137 40.8839 103.165 41.0751C104.217 41.2664 105.066 41.5174 105.711 41.8281C105.878 41.8998 105.986 41.9716 106.034 42.0433C106.082 42.115 106.117 42.2465 106.141 42.4377L106.5 46.1311C106.5 46.2028 106.428 46.2506 106.285 46.2745C106.165 46.2984 106.094 46.2625 106.07 46.1669C105.639 44.5175 104.85 43.2983 103.703 42.5094C102.579 41.7206 101.181 41.3261 99.5076 41.3261C98.2646 41.3261 97.141 41.6608 96.137 42.3301C95.1569 42.9995 94.38 43.9198 93.8062 45.0912C93.2564 46.2386 92.9815 47.5415 92.9815 48.9997C92.9815 50.4818 93.2564 51.9161 93.8062 53.3026C94.38 54.6652 95.2286 55.7768 96.3521 56.6374C97.4996 57.498 98.8741 57.9283 100.476 57.9283C103.488 57.9283 105.46 56.2788 106.392 52.9799C106.392 52.9082 106.452 52.8723 106.572 52.8723C106.619 52.8723 106.667 52.8962 106.715 52.944C106.787 52.968 106.823 52.9919 106.823 53.0158L106.356 56.8167C106.333 57.0079 106.297 57.1394 106.249 57.2111C106.201 57.2828 106.07 57.3665 105.854 57.4621C104.014 58.1076 102.101 58.4303 100.117 58.4303C97.8462 58.4303 95.9816 57.9761 94.5234 57.0677C93.0652 56.1593 92.0133 55.0238 91.3679 53.6612C90.7225 52.2986 90.3997 50.9241 90.3997 49.5376C90.3997 47.912 90.83 46.4299 91.6906 45.0912C92.5512 43.7525 93.7345 42.7007 95.2405 41.9357C96.7466 41.1707 98.4199 40.7883 100.261 40.7883ZM128.34 57.5697C128.436 57.5697 128.484 57.6414 128.484 57.7849C128.484 57.9283 128.436 58 128.34 58C127.91 58 127.217 57.9761 126.261 57.9283C125.304 57.8805 124.611 57.8566 124.181 57.8566C123.798 57.8566 123.296 57.8805 122.675 57.9283C122.053 57.9761 121.575 58 121.241 58C121.145 58 121.097 57.9283 121.097 57.7849C121.097 57.6414 121.145 57.5697 121.241 57.5697C121.862 57.5697 122.316 57.498 122.603 57.3546C122.914 57.1872 123.069 56.9004 123.069 56.494C123.069 56.1354 122.926 55.6334 122.639 54.9879L120.201 49.7527H115.181L113.639 53.5895C113.256 54.4979 113.065 55.2509 113.065 55.8485C113.065 56.4701 113.28 56.9123 113.71 57.1753C114.141 57.4382 114.798 57.5697 115.683 57.5697C115.802 57.5697 115.862 57.6414 115.862 57.7849C115.862 57.9283 115.802 58 115.683 58C115.324 58 114.834 57.9761 114.212 57.9283C113.543 57.8805 112.922 57.8566 112.348 57.8566C111.75 57.8566 111.045 57.8805 110.232 57.9283C109.515 57.9761 108.941 58 108.511 58C108.391 58 108.332 57.9283 108.332 57.7849C108.332 57.6414 108.391 57.5697 108.511 57.5697C109.252 57.5697 109.838 57.4741 110.268 57.2828C110.698 57.0677 111.093 56.6613 111.451 56.0637C111.834 55.466 112.288 54.5337 112.814 53.2668L117.977 40.6807C118.025 40.5851 118.097 40.5372 118.193 40.5372C118.288 40.5372 118.348 40.5851 118.372 40.6807L124.145 53.0875C124.767 54.4262 125.257 55.3943 125.615 55.992C125.998 56.5896 126.38 57.0079 126.763 57.247C127.169 57.4621 127.695 57.5697 128.34 57.5697ZM115.432 49.1073H119.914L117.511 43.9437L115.432 49.1073ZM134.529 54.9521C134.529 55.6453 134.589 56.1593 134.709 56.494C134.852 56.8286 135.103 57.0677 135.462 57.2111C135.844 57.3546 136.406 57.4263 137.147 57.4263H139.513C140.78 57.4263 141.784 57.0318 142.526 56.243C143.29 55.4541 143.804 54.3664 144.067 52.9799C144.067 52.9321 144.115 52.9082 144.211 52.9082C144.283 52.9082 144.342 52.9201 144.39 52.944C144.462 52.968 144.498 53.0038 144.498 53.0516C144.33 54.1513 144.247 55.6214 144.247 57.4621C144.247 57.6534 144.199 57.7968 144.103 57.8924C144.032 57.9641 143.9 58 143.709 58H129.688C129.641 58 129.617 57.9283 129.617 57.7849C129.617 57.6414 129.641 57.5697 129.688 57.5697C130.477 57.5697 131.051 57.5099 131.41 57.3904C131.768 57.2709 132.007 57.0438 132.127 56.7091C132.246 56.3505 132.306 55.8127 132.306 55.0955V44.123C132.306 43.4059 132.234 42.88 132.091 42.5453C131.971 42.2106 131.732 41.9835 131.374 41.864C131.015 41.7206 130.453 41.6488 129.688 41.6488C129.641 41.6488 129.617 41.5771 129.617 41.4337C129.617 41.2903 129.641 41.2185 129.688 41.2185L131.302 41.2544C132.21 41.3022 132.916 41.3261 133.418 41.3261C134.015 41.3261 134.768 41.3022 135.677 41.2544L137.183 41.2185C137.254 41.2185 137.29 41.2903 137.29 41.4337C137.29 41.5771 137.254 41.6488 137.183 41.6488C136.394 41.6488 135.82 41.7206 135.462 41.864C135.103 41.9835 134.852 42.2226 134.709 42.5811C134.589 42.9158 134.529 43.4417 134.529 44.1589V54.9521ZM159.805 53.2309C159.805 53.1592 159.865 53.1233 159.984 53.1233C160.128 53.1233 160.199 53.1592 160.199 53.2309C160.032 54.9521 159.948 56.3625 159.948 57.4621C159.948 57.6534 159.913 57.7968 159.841 57.8924C159.769 57.9641 159.626 58 159.411 58H146.287C146.239 58 146.215 57.9283 146.215 57.7849C146.215 57.6414 146.239 57.5697 146.287 57.5697C147.076 57.5697 147.649 57.5099 148.008 57.3904C148.366 57.2709 148.605 57.0438 148.725 56.7091C148.868 56.3505 148.94 55.8127 148.94 55.0955V44.123C148.94 43.4059 148.868 42.88 148.725 42.5453C148.605 42.2106 148.366 41.9835 148.008 41.864C147.649 41.7206 147.076 41.6488 146.287 41.6488C146.239 41.6488 146.215 41.5771 146.215 41.4337C146.215 41.2903 146.239 41.2185 146.287 41.2185H158.765C159.004 41.2185 159.124 41.3142 159.124 41.5054L159.16 43.7286C159.184 44.1828 159.195 44.7565 159.195 45.4498C159.195 45.5215 159.124 45.5573 158.98 45.5573C158.837 45.5573 158.765 45.5215 158.765 45.4498C158.67 44.3501 158.263 43.4537 157.546 42.7604C156.853 42.0433 155.992 41.6847 154.964 41.6847H153.96C153.124 41.6847 152.514 41.7564 152.131 41.8998C151.749 42.0194 151.486 42.2465 151.343 42.5811C151.199 42.9158 151.127 43.4417 151.127 44.1589V49.0714C153.446 49.0475 155.024 48.9877 155.861 48.8921C156.721 48.7726 157.211 48.7128 157.331 48.7128C157.45 48.7128 157.51 48.9638 157.51 49.4658C157.51 50.0157 157.45 50.2906 157.331 50.2906C157.235 50.2906 156.757 50.2308 155.897 50.1113C155.036 49.9679 153.446 49.8722 151.127 49.8244V54.9521C151.127 55.6453 151.199 56.1713 151.343 56.5298C151.486 56.8645 151.749 57.1036 152.131 57.247C152.538 57.3665 153.147 57.4263 153.96 57.4263H155.681C156.638 57.4263 157.498 57.0438 158.263 56.2788C159.028 55.49 159.542 54.474 159.805 53.2309ZM168.299 54.9521C168.299 55.6453 168.37 56.1473 168.514 56.4581C168.657 56.7689 168.92 56.984 169.303 57.1036C169.685 57.1992 170.307 57.247 171.167 57.247H175.076C176.438 57.247 177.526 56.8286 178.339 55.992C179.152 55.1553 179.689 53.9959 179.952 52.5138C179.952 52.442 180.012 52.4181 180.132 52.442C180.275 52.442 180.347 52.4779 180.347 52.5496C180.132 54.5337 180.024 56.1713 180.024 57.4621C180.024 57.6534 179.988 57.7968 179.917 57.8924C179.845 57.9641 179.701 58 179.486 58H162.92C162.872 58 162.848 57.9283 162.848 57.7849C162.848 57.6414 162.872 57.5697 162.92 57.5697C163.828 57.5697 164.486 57.5099 164.892 57.3904C165.322 57.2709 165.609 57.0438 165.753 56.7091C165.896 56.3505 165.968 55.8127 165.968 55.0955V38.4934C165.968 37.7762 165.896 37.2503 165.753 36.9156C165.609 36.5809 165.322 36.3538 164.892 36.2343C164.486 36.0909 163.828 36.0192 162.92 36.0192C162.872 36.0192 162.848 35.9474 162.848 35.804C162.848 35.6606 162.872 35.5889 162.92 35.5889L164.677 35.6247C165.681 35.6725 166.494 35.6964 167.115 35.6964C167.785 35.6964 168.621 35.6725 169.625 35.6247L171.347 35.5889C171.418 35.5889 171.454 35.6606 171.454 35.804C171.454 35.9474 171.418 36.0192 171.347 36.0192C170.462 36.0192 169.805 36.0909 169.374 36.2343C168.968 36.3538 168.681 36.5929 168.514 36.9515C168.37 37.2861 168.299 37.8121 168.299 38.5292V54.9521ZM195.558 53.2309C195.558 53.1592 195.618 53.1233 195.737 53.1233C195.881 53.1233 195.952 53.1592 195.952 53.2309C195.785 54.9521 195.701 56.3625 195.701 57.4621C195.701 57.6534 195.665 57.7968 195.594 57.8924C195.522 57.9641 195.379 58 195.163 58H182.039C181.992 58 181.968 57.9283 181.968 57.7849C181.968 57.6414 181.992 57.5697 182.039 57.5697C182.828 57.5697 183.402 57.5099 183.761 57.3904C184.119 57.2709 184.358 57.0438 184.478 56.7091C184.621 56.3505 184.693 55.8127 184.693 55.0955V44.123C184.693 43.4059 184.621 42.88 184.478 42.5453C184.358 42.2106 184.119 41.9835 183.761 41.864C183.402 41.7206 182.828 41.6488 182.039 41.6488C181.992 41.6488 181.968 41.5771 181.968 41.4337C181.968 41.2903 181.992 41.2185 182.039 41.2185H194.518C194.757 41.2185 194.877 41.3142 194.877 41.5054L194.912 43.7286C194.936 44.1828 194.948 44.7565 194.948 45.4498C194.948 45.5215 194.877 45.5573 194.733 45.5573C194.59 45.5573 194.518 45.5215 194.518 45.4498C194.422 44.3501 194.016 43.4537 193.299 42.7604C192.606 42.0433 191.745 41.6847 190.717 41.6847H189.713C188.876 41.6847 188.267 41.7564 187.884 41.8998C187.502 42.0194 187.239 42.2465 187.095 42.5811C186.952 42.9158 186.88 43.4417 186.88 44.1589V49.0714C189.199 49.0475 190.777 48.9877 191.613 48.8921C192.474 48.7726 192.964 48.7128 193.084 48.7128C193.203 48.7128 193.263 48.9638 193.263 49.4658C193.263 50.0157 193.203 50.2906 193.084 50.2906C192.988 50.2906 192.51 50.2308 191.649 50.1113C190.789 49.9679 189.199 49.8722 186.88 49.8244V54.9521C186.88 55.6453 186.952 56.1713 187.095 56.5298C187.239 56.8645 187.502 57.1036 187.884 57.247C188.291 57.3665 188.9 57.4263 189.713 57.4263H191.434C192.39 57.4263 193.251 57.0438 194.016 56.2788C194.781 55.49 195.295 54.474 195.558 53.2309ZM208.067 58.4303C206.155 58.4303 204.482 58.0359 203.047 57.247C201.637 56.4342 200.561 55.3704 199.82 54.0556C199.079 52.7409 198.709 51.3544 198.709 49.8961C198.709 48.0315 199.127 46.4179 199.964 45.0553C200.8 43.6688 201.996 42.617 203.549 41.8998C205.103 41.1588 206.932 40.7883 209.036 40.7883C210.04 40.7883 210.996 40.8839 211.904 41.0751C212.813 41.2664 213.578 41.5413 214.199 41.8998C214.343 41.9716 214.426 42.0672 214.45 42.1867C214.498 42.3062 214.534 42.4736 214.558 42.6887L214.916 46.0594C214.916 46.1311 214.845 46.1789 214.701 46.2028C214.582 46.2028 214.51 46.1669 214.486 46.0952C213.96 44.4457 213.171 43.2385 212.119 42.4736C211.068 41.7086 209.753 41.3261 208.175 41.3261C206.071 41.3261 204.386 42.0552 203.119 43.5134C201.876 44.9478 201.254 46.9199 201.254 49.43C201.254 51.0794 201.565 52.5496 202.187 53.8405C202.808 55.1075 203.693 56.0995 204.84 56.8167C206.012 57.5338 207.374 57.8924 208.928 57.8924C210.123 57.8924 210.996 57.7849 211.546 57.5697C212.119 57.3546 212.502 56.9482 212.693 56.3505C212.884 55.729 212.98 54.7728 212.98 53.4819C212.98 52.8604 212.908 52.4301 212.765 52.191C212.645 51.9281 212.37 51.7607 211.94 51.689C211.534 51.5934 210.817 51.5456 209.789 51.5456C209.645 51.5456 209.573 51.45 209.573 51.2587C209.573 51.187 209.585 51.1273 209.609 51.0794C209.657 51.0077 209.705 50.9719 209.753 50.9719C210.996 51.0675 212.251 51.1153 213.518 51.1153C214.092 51.1153 215.048 51.0914 216.386 51.0436C216.434 51.0436 216.47 51.0794 216.494 51.1512C216.542 51.199 216.566 51.2468 216.566 51.2946C216.566 51.4619 216.506 51.5456 216.386 51.5456C215.908 51.5217 215.574 51.5575 215.382 51.6532C215.191 51.7488 215.072 51.952 215.024 52.2628C214.976 52.5496 214.952 53.0755 214.952 53.8405C214.952 54.9162 214.976 55.6692 215.024 56.0995C215.072 56.5298 215.096 56.8286 215.096 56.996C215.096 57.1394 215.072 57.235 215.024 57.2828C215 57.3067 214.892 57.3546 214.701 57.4263C213.123 58.0956 210.912 58.4303 208.067 58.4303ZM237.315 57.5697C237.41 57.5697 237.458 57.6414 237.458 57.7849C237.458 57.9283 237.41 58 237.315 58C236.884 58 236.191 57.9761 235.235 57.9283C234.279 57.8805 233.585 57.8566 233.155 57.8566C232.773 57.8566 232.271 57.8805 231.649 57.9283C231.027 57.9761 230.549 58 230.215 58C230.119 58 230.071 57.9283 230.071 57.7849C230.071 57.6414 230.119 57.5697 230.215 57.5697C230.836 57.5697 231.29 57.498 231.577 57.3546C231.888 57.1872 232.043 56.9004 232.043 56.494C232.043 56.1354 231.9 55.6334 231.613 54.9879L229.175 49.7527H224.155L222.613 53.5895C222.23 54.4979 222.039 55.2509 222.039 55.8485C222.039 56.4701 222.254 56.9123 222.685 57.1753C223.115 57.4382 223.772 57.5697 224.657 57.5697C224.776 57.5697 224.836 57.6414 224.836 57.7849C224.836 57.9283 224.776 58 224.657 58C224.298 58 223.808 57.9761 223.187 57.9283C222.517 57.8805 221.896 57.8566 221.322 57.8566C220.724 57.8566 220.019 57.8805 219.206 57.9283C218.489 57.9761 217.915 58 217.485 58C217.366 58 217.306 57.9283 217.306 57.7849C217.306 57.6414 217.366 57.5697 217.485 57.5697C218.226 57.5697 218.812 57.4741 219.242 57.2828C219.672 57.0677 220.067 56.6613 220.425 56.0637C220.808 55.466 221.262 54.5337 221.788 53.2668L226.952 40.6807C226.999 40.5851 227.071 40.5372 227.167 40.5372C227.262 40.5372 227.322 40.5851 227.346 40.6807L233.119 53.0875C233.741 54.4262 234.231 55.3943 234.589 55.992C234.972 56.5896 235.354 57.0079 235.737 57.247C236.143 57.4621 236.669 57.5697 237.315 57.5697ZM224.406 49.1073H228.888L226.485 43.9437L224.406 49.1073ZM243.503 54.9521C243.503 55.6453 243.563 56.1593 243.683 56.494C243.826 56.8286 244.077 57.0677 244.436 57.2111C244.818 57.3546 245.38 57.4263 246.121 57.4263H248.488C249.755 57.4263 250.759 57.0318 251.5 56.243C252.265 55.4541 252.779 54.3664 253.042 52.9799C253.042 52.9321 253.089 52.9082 253.185 52.9082C253.257 52.9082 253.316 52.9201 253.364 52.944C253.436 52.968 253.472 53.0038 253.472 53.0516C253.304 54.1513 253.221 55.6214 253.221 57.4621C253.221 57.6534 253.173 57.7968 253.077 57.8924C253.006 57.9641 252.874 58 252.683 58H238.663C238.615 58 238.591 57.9283 238.591 57.7849C238.591 57.6414 238.615 57.5697 238.663 57.5697C239.451 57.5697 240.025 57.5099 240.384 57.3904C240.742 57.2709 240.981 57.0438 241.101 56.7091C241.22 56.3505 241.28 55.8127 241.28 55.0955V44.123C241.28 43.4059 241.208 42.88 241.065 42.5453C240.945 42.2106 240.706 41.9835 240.348 41.864C239.989 41.7206 239.428 41.6488 238.663 41.6488C238.615 41.6488 238.591 41.5771 238.591 41.4337C238.591 41.2903 238.615 41.2185 238.663 41.2185L240.276 41.2544C241.185 41.3022 241.89 41.3261 242.392 41.3261C242.989 41.3261 243.742 41.3022 244.651 41.2544L246.157 41.2185C246.229 41.2185 246.264 41.2903 246.264 41.4337C246.264 41.5771 246.229 41.6488 246.157 41.6488C245.368 41.6488 244.794 41.7206 244.436 41.864C244.077 41.9835 243.826 42.2226 243.683 42.5811C243.563 42.9158 243.503 43.4417 243.503 44.1589V54.9521Z" fill="#175A80"/>
<path d="M195.609 72.5029C195.283 72.5029 195.021 72.4049 194.825 72.2089C194.629 72.0129 194.531 71.7597 194.531 71.4493C194.531 71.1389 194.629 70.8939 194.825 70.7142C195.021 70.5182 195.283 70.4202 195.609 70.4202C195.952 70.4202 196.214 70.51 196.393 70.6897C196.589 70.8694 196.687 71.1226 196.687 71.4493C196.687 71.776 196.589 72.0374 196.393 72.2334C196.214 72.4131 195.952 72.5029 195.609 72.5029ZM211.641 71.9394C211.706 71.9394 211.739 71.9884 211.739 72.0864C211.739 72.1844 211.706 72.2334 211.641 72.2334C211.347 72.2334 210.873 72.2171 210.22 72.1844C209.566 72.1517 209.092 72.1354 208.798 72.1354C208.537 72.1354 208.194 72.1517 207.769 72.1844C207.345 72.2171 207.018 72.2334 206.789 72.2334C206.724 72.2334 206.691 72.1844 206.691 72.0864C206.691 71.9884 206.724 71.9394 206.789 71.9394C207.214 71.9394 207.524 71.8904 207.72 71.7923C207.933 71.678 208.039 71.482 208.039 71.2043C208.039 70.9593 207.941 70.6162 207.745 70.1752L206.079 66.5977H202.648L201.595 69.2195C201.333 69.8403 201.203 70.3548 201.203 70.7632C201.203 71.1879 201.35 71.4901 201.644 71.6698C201.938 71.8495 202.387 71.9394 202.991 71.9394C203.073 71.9394 203.114 71.9884 203.114 72.0864C203.114 72.1844 203.073 72.2334 202.991 72.2334C202.746 72.2334 202.411 72.2171 201.987 72.1844C201.529 72.1517 201.105 72.1354 200.712 72.1354C200.304 72.1354 199.822 72.1517 199.267 72.1844C198.777 72.2171 198.385 72.2334 198.091 72.2334C198.009 72.2334 197.968 72.1844 197.968 72.0864C197.968 71.9884 198.009 71.9394 198.091 71.9394C198.597 71.9394 198.997 71.874 199.291 71.7433C199.585 71.5963 199.855 71.3186 200.1 70.9102C200.361 70.5019 200.672 69.8648 201.031 68.999L204.559 60.3985C204.592 60.3332 204.641 60.3005 204.706 60.3005C204.772 60.3005 204.813 60.3332 204.829 60.3985L208.774 68.8765C209.199 69.7913 209.533 70.4529 209.779 70.8612C210.04 71.2696 210.301 71.5555 210.563 71.7188C210.84 71.8659 211.2 71.9394 211.641 71.9394ZM202.82 66.1567H205.883L204.241 62.6283L202.82 66.1567ZM221.358 62.4813C221.375 62.7916 221.383 63.1837 221.383 63.6574C221.383 63.7064 221.334 63.7309 221.236 63.7309C221.138 63.7309 221.089 63.7064 221.089 63.6574C221.007 62.8733 220.738 62.2526 220.28 61.7952C219.823 61.3215 219.227 61.0846 218.492 61.0846H217.805C217.234 61.0846 216.817 61.1336 216.556 61.2316C216.294 61.3133 216.115 61.4685 216.017 61.6972C215.919 61.9259 215.87 62.2852 215.87 62.7753V66.4017C217.438 66.3854 218.508 66.3446 219.08 66.2792C219.668 66.2139 220.003 66.1812 220.084 66.1812C220.166 66.1812 220.207 66.3527 220.207 66.6958C220.207 67.0715 220.166 67.2593 220.084 67.2593C220.019 67.2593 219.692 67.2185 219.104 67.1368C218.532 67.0388 217.454 66.9735 215.87 66.9408V70.1507C215.87 70.6734 215.927 71.0573 216.041 71.3023C216.156 71.531 216.376 71.6943 216.703 71.7923C217.046 71.8904 217.577 71.9394 218.296 71.9394C218.345 71.9394 218.369 71.9884 218.369 72.0864C218.369 72.1844 218.345 72.2334 218.296 72.2334C217.707 72.2334 217.258 72.2252 216.948 72.2089L215.11 72.1844L213.787 72.2089C213.509 72.2252 213.101 72.2334 212.562 72.2334C212.529 72.2334 212.513 72.1844 212.513 72.0864C212.513 71.9884 212.529 71.9394 212.562 71.9394C213.101 71.9394 213.493 71.8985 213.738 71.8169C213.983 71.7352 214.146 71.58 214.228 71.3513C214.326 71.1063 214.375 70.7387 214.375 70.2487V62.7508C214.375 62.2607 214.326 61.9014 214.228 61.6727C214.146 61.444 213.983 61.2888 213.738 61.2071C213.493 61.1091 213.101 61.0601 212.562 61.0601C212.529 61.0601 212.513 61.0111 212.513 60.9131C212.513 60.8151 212.529 60.7661 212.562 60.7661H221.089C221.252 60.7661 221.334 60.8314 221.334 60.9621L221.358 62.4813ZM235.466 71.9394C235.499 71.9394 235.515 71.9884 235.515 72.0864C235.515 72.1844 235.499 72.2334 235.466 72.2334H232.599C232.305 72.2334 231.783 71.7433 231.031 70.7632C230.296 69.7831 229.406 68.4273 228.36 66.6958C228.05 66.7611 227.699 66.7938 227.307 66.7938C226.898 66.7938 226.588 66.7774 226.376 66.7448V70.2487C226.376 70.7551 226.416 71.1226 226.498 71.3513C226.58 71.58 226.743 71.7352 226.988 71.8169C227.233 71.8985 227.633 71.9394 228.189 71.9394C228.221 71.9394 228.238 71.9884 228.238 72.0864C228.238 72.1844 228.221 72.2334 228.189 72.2334C227.731 72.2334 227.38 72.2252 227.135 72.2089L225.591 72.1844L224.146 72.2089C223.868 72.2252 223.492 72.2334 223.019 72.2334C222.986 72.2334 222.97 72.1844 222.97 72.0864C222.97 71.9884 222.986 71.9394 223.019 71.9394C223.558 71.9394 223.95 71.8985 224.195 71.8169C224.456 71.7352 224.636 71.58 224.734 71.3513C224.832 71.1063 224.881 70.7387 224.881 70.2487V62.7508C224.881 62.2607 224.832 61.9014 224.734 61.6727C224.652 61.444 224.481 61.2888 224.219 61.2071C223.974 61.1091 223.582 61.0601 223.043 61.0601C223.01 61.0601 222.994 61.0111 222.994 60.9131C222.994 60.8151 223.01 60.7661 223.043 60.7661L224.17 60.7906C224.758 60.8232 225.232 60.8396 225.591 60.8396C225.885 60.8396 226.155 60.8314 226.4 60.8151C226.661 60.7987 226.882 60.7824 227.062 60.7661C227.568 60.7171 228.05 60.6926 228.507 60.6926C229.569 60.6926 230.378 60.8968 230.933 61.3051C231.488 61.7135 231.766 62.3016 231.766 63.0693C231.766 63.7227 231.578 64.3272 231.203 64.8825C230.827 65.4379 230.321 65.8872 229.683 66.2302C230.598 67.733 231.366 68.8928 231.987 69.7096C232.624 70.51 233.204 71.0818 233.726 71.4248C234.265 71.7678 234.845 71.9394 235.466 71.9394ZM226.376 66.3037C226.67 66.3527 227.037 66.3772 227.478 66.3772C228.491 66.3772 229.193 66.1567 229.585 65.7156C229.994 65.2583 230.198 64.5967 230.198 63.7309C230.198 61.934 229.422 61.0356 227.87 61.0356C227.249 61.0356 226.841 61.1663 226.645 61.4276C226.465 61.689 226.376 62.1464 226.376 62.7998V66.3037ZM239.588 70.2487C239.588 70.7551 239.628 71.1226 239.71 71.3513C239.808 71.58 239.98 71.7352 240.225 71.8169C240.47 71.8985 240.87 71.9394 241.425 71.9394C241.458 71.9394 241.474 71.9884 241.474 72.0864C241.474 72.1844 241.458 72.2334 241.425 72.2334C240.968 72.2334 240.609 72.2252 240.347 72.2089L238.803 72.1844L237.358 72.2089C237.08 72.2252 236.704 72.2334 236.231 72.2334C236.198 72.2334 236.182 72.1844 236.182 72.0864C236.182 71.9884 236.198 71.9394 236.231 71.9394C236.786 71.9394 237.186 71.8985 237.431 71.8169C237.676 71.7352 237.84 71.58 237.921 71.3513C238.019 71.1226 238.068 70.7551 238.068 70.2487V62.7508C238.068 62.2607 238.019 61.9014 237.921 61.6727C237.84 61.444 237.668 61.2888 237.407 61.2071C237.162 61.1091 236.77 61.0601 236.231 61.0601C236.198 61.0601 236.182 61.0111 236.182 60.9131C236.182 60.8151 236.198 60.7661 236.231 60.7661L237.358 60.7906C237.946 60.8232 238.428 60.8396 238.803 60.8396C239.228 60.8396 239.751 60.8232 240.372 60.7906L241.425 60.7661C241.458 60.7661 241.474 60.8151 241.474 60.9131C241.474 61.0111 241.458 61.0601 241.425 61.0601C240.903 61.0601 240.51 61.1091 240.249 61.2071C239.988 61.3051 239.808 61.4767 239.71 61.7217C239.628 61.9504 239.588 62.3098 239.588 62.7998V70.2487ZM250.025 60.472C250.646 60.472 251.307 60.5374 252.01 60.6681C252.728 60.7987 253.308 60.9703 253.749 61.1826C253.864 61.2316 253.937 61.2806 253.97 61.3296C254.003 61.3786 254.027 61.4685 254.043 61.5992L254.288 64.123C254.288 64.172 254.239 64.2046 254.141 64.221C254.06 64.2373 254.011 64.2128 253.994 64.1475C253.7 63.0203 253.161 62.1872 252.377 61.6482C251.61 61.1091 250.654 60.8396 249.51 60.8396C248.661 60.8396 247.893 61.0683 247.207 61.5257C246.537 61.983 246.007 62.612 245.614 63.4124C245.239 64.1965 245.051 65.0867 245.051 66.0832C245.051 67.096 245.239 68.0761 245.614 69.0235C246.007 69.9546 246.586 70.7142 247.354 71.3023C248.138 71.8904 249.078 72.1844 250.172 72.1844C252.23 72.1844 253.578 71.0573 254.215 68.803C254.215 68.754 254.256 68.7295 254.337 68.7295C254.37 68.7295 254.403 68.7458 254.436 68.7785C254.485 68.7948 254.509 68.8112 254.509 68.8275L254.19 71.4248C254.174 71.5555 254.15 71.6453 254.117 71.6943C254.084 71.7433 253.994 71.8005 253.847 71.8659C252.59 72.3069 251.283 72.5274 249.927 72.5274C248.375 72.5274 247.101 72.2171 246.105 71.5963C245.108 70.9756 244.389 70.1997 243.948 69.2686C243.507 68.3374 243.287 67.3982 243.287 66.4507C243.287 65.3399 243.581 64.3272 244.169 63.4124C244.757 62.4976 245.565 61.7789 246.595 61.2561C247.624 60.7334 248.767 60.472 250.025 60.472ZM269.213 71.9394C269.278 71.9394 269.311 71.9884 269.311 72.0864C269.311 72.1844 269.278 72.2334 269.213 72.2334C268.919 72.2334 268.445 72.2171 267.792 72.1844C267.138 72.1517 266.665 72.1354 266.37 72.1354C266.109 72.1354 265.766 72.1517 265.341 72.1844C264.917 72.2171 264.59 72.2334 264.361 72.2334C264.296 72.2334 264.263 72.1844 264.263 72.0864C264.263 71.9884 264.296 71.9394 264.361 71.9394C264.786 71.9394 265.096 71.8904 265.292 71.7923C265.505 71.678 265.611 71.482 265.611 71.2043C265.611 70.9593 265.513 70.6162 265.317 70.1752L263.651 66.5977H260.22L259.167 69.2195C258.905 69.8403 258.775 70.3548 258.775 70.7632C258.775 71.1879 258.922 71.4901 259.216 71.6698C259.51 71.8495 259.959 71.9394 260.563 71.9394C260.645 71.9394 260.686 71.9884 260.686 72.0864C260.686 72.1844 260.645 72.2334 260.563 72.2334C260.318 72.2334 259.983 72.2171 259.559 72.1844C259.101 72.1517 258.677 72.1354 258.285 72.1354C257.876 72.1354 257.394 72.1517 256.839 72.1844C256.349 72.2171 255.957 72.2334 255.663 72.2334C255.581 72.2334 255.54 72.1844 255.54 72.0864C255.54 71.9884 255.581 71.9394 255.663 71.9394C256.169 71.9394 256.569 71.874 256.863 71.7433C257.157 71.5963 257.427 71.3186 257.672 70.9102C257.933 70.5019 258.244 69.8648 258.603 68.999L262.132 60.3985C262.164 60.3332 262.213 60.3005 262.279 60.3005C262.344 60.3005 262.385 60.3332 262.401 60.3985L266.346 68.8765C266.771 69.7913 267.106 70.4529 267.351 70.8612C267.612 71.2696 267.873 71.5555 268.135 71.7188C268.412 71.8659 268.772 71.9394 269.213 71.9394ZM260.392 66.1567H263.455L261.813 62.6283L260.392 66.1567Z" fill="#175A80"/>
</svg>
