<svg width="83" height="64" viewBox="0 0 83 64" fill="none" xmlns="http://www.w3.org/2000/svg">
<path d="M18.8413 24.662C18.8413 20.6951 15.222 18.593 11.1558 18.593C8.81324 18.5829 6.50201 19.1314 4.41378 20.193L2.1131 19.0344L3.41516 3.86205C3.6193 1.5062 4.41378 0.446895 6.78066 0.446895H19.9447C22.3061 0.446895 23.3599 1.5062 23.3599 3.86757V9.291H17.3848V7.12825C17.4004 6.97951 17.3826 6.82916 17.3326 6.68819C17.2827 6.54722 17.2019 6.41918 17.0961 6.31343C16.9904 6.20767 16.8623 6.12688 16.7214 6.07695C16.5804 6.02701 16.4301 6.0092 16.2813 6.0248H10.4C10.2521 6.01319 10.1035 6.03376 9.96432 6.0851C9.82517 6.13644 9.69881 6.21734 9.59393 6.32222C9.48905 6.4271 9.40815 6.55346 9.35681 6.69261C9.30547 6.83176 9.2849 6.98039 9.29652 7.12825L8.82755 12.0551C8.77118 12.6108 8.68647 13.1632 8.57376 13.7103H8.67859C9.88717 13.2827 11.1594 13.0626 12.4413 13.0593C20.6344 13.0593 25.5061 18.2344 25.5061 24.7613C25.5061 30.9902 20.6344 36.7723 12.2924 36.7723C10.1222 36.7943 7.97129 36.3642 5.97653 35.5093C3.98176 34.6544 2.18688 33.3935 0.706204 31.8068L4.01654 26.8413C5.06207 28.0055 6.33685 28.9412 7.76096 29.5896C9.18506 30.238 10.7278 30.5853 12.2924 30.6095C16.2758 30.593 18.8413 27.9282 18.8413 24.662ZM9.74893 60.226C6.96273 60.226 4.34757 58.4274 4.34757 54.8963C4.34757 51.7681 6.48825 49.495 9.47858 49.495C10.5324 49.495 11.9558 49.9033 11.9558 50.8522V51.8012H15.7627V49.7653C15.7627 46.775 11.7186 45.8591 9.47858 45.8591C3.53102 45.8591 0 50.0357 0 54.9294C0 59.9556 3.66895 63.9998 9.37927 63.9998C10.7466 64.0093 12.1012 63.7364 13.3582 63.1981C14.6152 62.6598 15.7474 61.8677 16.6841 60.8715L14.8965 57.8867C14.8965 57.8867 12.6896 60.226 9.74893 60.226ZM82.5762 46.2674V49.9364H82.1017C81.8954 49.8993 81.6827 49.9419 81.5066 50.0555C81.3304 50.1692 81.204 50.3455 81.1528 50.5488L77.0094 63.5915H72.1487L69.1915 53.7046C69.0168 53.0921 68.8804 52.4693 68.7832 51.8398H68.717C68.717 51.8398 68.5459 52.7888 68.2756 53.7046L65.357 63.5915H60.4632L56.3308 50.5488C56.1598 50.0357 55.8894 49.9364 55.3763 49.9364H54.0357C55.0113 51.4077 55.5261 53.1365 55.5143 54.9019C55.5143 60.237 51.2991 63.9722 46.0026 63.9722C45.0136 63.9735 44.0293 63.836 43.0785 63.5639H32.375C30.7806 63.5639 30.102 62.8853 30.102 61.2522V53.335C30.102 51.2274 29.5226 49.7984 27.3433 49.7984C26.2747 49.8015 25.2368 50.1558 24.3893 50.8068C23.5419 51.4579 22.9321 52.3694 22.6537 53.4012C22.4551 54.1307 22.3641 54.8853 22.3834 55.6412V63.5915H18.0744V39.4702H20.0772C21.6772 39.4702 22.3889 40.1874 22.3889 41.7488V47.8177C22.3889 48.6674 22.3227 49.2798 22.3227 49.2798H22.3889C22.9717 48.2187 23.8344 47.3377 24.883 46.7326C25.9316 46.1276 27.1261 45.8217 28.3364 45.8481C32.1985 45.8481 34.4054 47.8509 34.4054 52.4357V59.1998C34.395 59.3001 34.4071 59.4016 34.4409 59.4966C34.4747 59.5917 34.5292 59.6781 34.6005 59.7494C34.6719 59.8208 34.7583 59.8753 34.8533 59.9091C34.9484 59.9428 35.0498 59.955 35.1502 59.9446H38.0302C37.045 58.4548 36.5281 56.7044 36.5461 54.9184C36.5461 49.6164 40.7557 45.8481 46.0246 45.8481C47.0137 45.8468 47.998 45.9842 48.9488 46.2564H57.8812C59.3046 46.2564 59.9832 46.6978 60.3253 48.0219L62.8742 57.6384C63.0255 58.2414 63.1398 58.8531 63.2163 59.4701H63.2825C63.3785 58.8513 63.5149 58.2394 63.6908 57.6384L66.8632 46.3447H70.6646L73.8921 57.6605C74.0635 58.2606 74.1889 58.873 74.2673 59.4922H74.3335C74.41 58.8752 74.5243 58.2635 74.6756 57.6605L77.1859 48.044C77.528 46.7198 78.2066 46.2784 79.6356 46.2784L82.5762 46.2674ZM51.1667 54.9294C51.1667 51.735 48.8219 49.5281 46.0026 49.5281C43.1833 49.5281 40.8716 51.735 40.8716 54.9294C40.8716 58.1239 43.2164 60.3308 46.0026 60.3308C48.7888 60.3308 51.1667 58.157 51.1667 54.9294ZM40.7447 36.7226C50.4881 36.7226 53.655 28.4799 53.655 18.2344C53.655 8.82755 50.9791 1.19172 42.9957 0L42.4826 7.80687C42.2549 9.95029 42.8725 12.098 44.204 13.7931C45.3141 15.619 45.8752 17.7258 45.8205 19.862C45.8205 24.4247 43.5474 28.1378 40.7447 28.1378C37.9419 28.1378 35.6633 24.4468 35.6633 19.862C35.6177 17.7217 36.1925 15.6139 37.3185 13.7931C38.6371 12.1026 39.2483 9.9665 39.0233 7.83445L38.4936 0C30.5047 1.18069 27.8344 8.82755 27.8344 18.2068C27.8344 28.4799 30.9957 36.7226 40.7447 36.7226ZM68.9763 36.7226C78.7197 36.7226 81.8866 28.4799 81.8866 18.2344C81.8866 8.78893 79.1942 1.13103 71.1501 0.0275861L70.7142 5.29101C70.4893 7.42563 71.1026 9.56411 72.4245 11.2551C73.5391 13.0796 74.1042 15.1867 74.0521 17.3241C74.0521 17.5392 74.0521 17.7489 74.0521 17.9586C74.0521 20.4192 72.7997 28.1158 72.7997 28.1158H71.5308V16.6399H70.2011L69.677 28.0661H68.3032L67.7515 16.6399H66.4218V28.0661H65.1528C65.1528 28.0661 63.9004 20.3696 63.9004 17.9089C63.9004 17.6992 63.9004 17.4896 63.9004 17.2744C63.8539 15.134 64.4288 13.0259 65.5556 11.2055C66.8756 9.51364 67.4869 7.37524 67.2604 5.24136L66.8025 0C58.7529 1.14206 56.066 8.78893 56.066 18.2344C56.066 28.4799 59.2274 36.7226 68.9652 36.7226H68.9763Z" fill="#EF354C"/>
</svg>
