<svg width="232" height="70" viewBox="0 0 232 70" fill="none" xmlns="http://www.w3.org/2000/svg">
<rect width="232" height="70" fill="#407BFF"/>
<path d="M85.936 30.672C84.5707 29.072 82.7573 28.272 80.496 28.272C78.896 28.272 77.6373 28.624 76.72 29.328C75.8027 30.032 75.344 31.0133 75.344 32.272C75.344 33.936 76.4853 35.152 78.768 35.92L83.408 37.456C85.2853 38.0747 86.64 38.9067 87.472 39.952C88.3253 40.976 88.752 42.2347 88.752 43.728C88.752 45.776 87.9947 47.3867 86.48 48.56C84.9653 49.7333 82.896 50.32 80.272 50.32C78.352 50.32 76.656 49.9787 75.184 49.296C73.7333 48.6133 72.56 47.6213 71.664 46.32C71.5787 46.1493 71.536 46.0427 71.536 46C71.536 45.8507 71.6427 45.7013 71.856 45.552L73.008 44.752C73.2 44.624 73.3493 44.56 73.456 44.56C73.584 44.56 73.7013 44.624 73.808 44.752C74.7253 45.9253 75.632 46.7573 76.528 47.248C77.424 47.7387 78.6293 47.984 80.144 47.984C81.936 47.984 83.3227 47.664 84.304 47.024C85.3067 46.384 85.808 45.392 85.808 44.048C85.808 43.216 85.5413 42.512 85.008 41.936C84.496 41.3387 83.5573 40.784 82.192 40.272L77.328 38.608C75.6427 38.032 74.3947 37.2107 73.584 36.144C72.7947 35.056 72.4 33.8613 72.4 32.56C72.4 31.2373 72.7307 30.0747 73.392 29.072C74.0747 28.0693 75.024 27.3013 76.24 26.768C77.4773 26.2133 78.896 25.936 80.496 25.936C82.0533 25.936 83.4613 26.2133 84.72 26.768C86 27.3227 87.088 28.1013 87.984 29.104C88.0907 29.2107 88.144 29.3173 88.144 29.424C88.144 29.5307 88.0907 29.6267 87.984 29.712L86.512 30.864C86.448 30.928 86.384 30.96 86.32 30.96C86.256 30.96 86.128 30.864 85.936 30.672ZM92.452 50C92.1533 50 92.004 49.8613 92.004 49.584V33.456C92.004 33.1787 92.1213 33.04 92.356 33.04H94.276C94.4893 33.04 94.596 33.1573 94.596 33.392V35.248C94.596 35.504 94.7027 35.536 94.916 35.344C96.068 34.4053 97.0493 33.7333 97.86 33.328C98.6707 32.9227 99.5773 32.72 100.58 32.72C101.775 32.72 102.756 32.9867 103.524 33.52C104.313 34.0533 104.847 34.7253 105.124 35.536C105.167 35.6 105.209 35.632 105.252 35.632C105.316 35.632 105.423 35.5787 105.572 35.472C106.681 34.5333 107.673 33.84 108.548 33.392C109.444 32.944 110.383 32.72 111.364 32.72C112.9 32.72 114.095 33.1573 114.948 34.032C115.823 34.9067 116.26 36.0907 116.26 37.584V49.488C116.26 49.8293 116.1 50 115.78 50H113.988C113.711 50 113.572 49.8613 113.572 49.584V38.16C113.572 37.0933 113.316 36.272 112.804 35.696C112.292 35.12 111.524 34.832 110.5 34.832C109.647 34.832 108.847 35.0453 108.1 35.472C107.353 35.8773 106.628 36.3893 105.924 37.008C105.753 37.1787 105.636 37.328 105.572 37.456C105.508 37.584 105.476 37.744 105.476 37.936V49.488C105.476 49.8293 105.316 50 104.996 50H103.204C102.927 50 102.788 49.8613 102.788 49.584V38.16C102.788 35.9413 101.764 34.832 99.716 34.832C98.8627 34.832 98.0733 35.0347 97.348 35.44C96.644 35.824 95.7587 36.4853 94.692 37.424V49.52C94.692 49.6907 94.6493 49.8187 94.564 49.904C94.5 49.968 94.3827 50 94.212 50H92.452ZM122.86 29.392C122.86 29.6053 122.817 29.7653 122.732 29.872C122.647 29.9573 122.497 30 122.284 30H120.428C120.108 30 119.948 29.8187 119.948 29.456V26.768C119.948 26.4267 120.097 26.256 120.396 26.256H122.412C122.54 26.256 122.647 26.2987 122.732 26.384C122.817 26.4693 122.86 26.5867 122.86 26.736V29.392ZM122.732 49.456C122.732 49.6693 122.689 49.8187 122.604 49.904C122.519 49.968 122.369 50 122.156 50H120.524C120.332 50 120.204 49.968 120.14 49.904C120.076 49.84 120.044 49.7227 120.044 49.552V33.488C120.044 33.1893 120.172 33.04 120.428 33.04H122.38C122.615 33.04 122.732 33.1787 122.732 33.456V49.456ZM129.46 49.456C129.46 49.6693 129.418 49.8187 129.332 49.904C129.247 49.968 129.098 50 128.884 50H127.22C127.028 50 126.9 49.968 126.836 49.904C126.772 49.84 126.74 49.7227 126.74 49.552L126.772 26.704C126.772 26.4053 126.9 26.256 127.156 26.256H129.076C129.332 26.256 129.46 26.3947 129.46 26.672V49.456ZM135.228 42.576C135.228 43.6 135.474 44.5493 135.964 45.424C136.477 46.2987 137.159 46.992 138.013 47.504C138.866 48.016 139.805 48.272 140.829 48.272C142.962 48.272 144.626 47.3867 145.821 45.616C145.906 45.5307 145.981 45.488 146.045 45.488C146.109 45.4667 146.183 45.4773 146.269 45.52L147.613 46.192C147.783 46.2987 147.804 46.448 147.677 46.64C146.845 47.92 145.853 48.8587 144.701 49.456C143.549 50.032 142.173 50.32 140.573 50.32C139.015 50.32 137.618 49.9573 136.381 49.232C135.143 48.5067 134.173 47.4933 133.468 46.192C132.786 44.8693 132.444 43.3653 132.444 41.68C132.444 39.8667 132.796 38.288 133.5 36.944C134.204 35.5787 135.165 34.5333 136.381 33.808C137.618 33.0827 139.005 32.72 140.541 32.72C142.077 32.72 143.421 33.0613 144.573 33.744C145.746 34.4267 146.653 35.4293 147.293 36.752C147.933 38.0533 148.253 39.6 148.253 41.392V41.52C148.253 41.712 148.221 41.8613 148.156 41.968C148.093 42.0533 147.965 42.096 147.773 42.096H135.516C135.324 42.096 135.228 42.256 135.228 42.576ZM145.021 40.336C145.255 40.336 145.405 40.3147 145.469 40.272C145.533 40.208 145.565 40.08 145.565 39.888C145.565 38.9493 145.362 38.0853 144.957 37.296C144.573 36.4853 143.997 35.8453 143.229 35.376C142.482 34.8853 141.607 34.64 140.605 34.64C139.517 34.64 138.567 34.9173 137.757 35.472C136.946 36.0053 136.327 36.7093 135.901 37.584C135.474 38.4373 135.271 39.3547 135.293 40.336H145.021Z" fill="white"/>
<path d="M169.374 33.328C169.374 35.6107 168.596 37.3493 167.038 38.544C165.502 39.7387 163.444 40.336 160.862 40.336H155.614C155.401 40.336 155.294 40.4427 155.294 40.656V49.456C155.294 49.8187 155.102 50 154.718 50H151.934C151.593 50 151.422 49.84 151.422 49.52V26.736C151.422 26.5653 151.454 26.448 151.518 26.384C151.582 26.2987 151.7 26.256 151.87 26.256H160.414C163.102 26.256 165.268 26.8533 166.91 28.048C168.553 29.2213 169.374 30.9813 169.374 33.328ZM165.406 33.232C165.406 30.48 163.668 29.104 160.19 29.104H155.774C155.604 29.104 155.476 29.136 155.39 29.2C155.326 29.264 155.294 29.3813 155.294 29.552V37.008C155.294 37.328 155.412 37.488 155.646 37.488H160.414C161.972 37.488 163.188 37.136 164.062 36.432C164.958 35.7067 165.406 34.64 165.406 33.232ZM175.654 49.392C175.654 49.6267 175.601 49.7867 175.494 49.872C175.409 49.9573 175.238 50 174.982 50H172.806C172.593 50 172.443 49.968 172.358 49.904C172.273 49.8187 172.23 49.68 172.23 49.488L172.294 26.736C172.294 26.416 172.433 26.256 172.71 26.256H175.238C175.515 26.256 175.654 26.416 175.654 26.736V49.392ZM185.351 47.76C186.823 47.76 188.37 46.9173 189.991 45.232V33.584C189.991 33.2213 190.194 33.04 190.599 33.04H192.903C193.245 33.04 193.415 33.2107 193.415 33.552L193.351 49.552C193.351 49.8507 193.223 50 192.967 50H190.471C190.215 50 190.087 49.8613 190.087 49.584V47.792C190.087 47.536 189.981 47.504 189.767 47.696C188.722 48.656 187.751 49.3387 186.855 49.744C185.959 50.128 185.021 50.32 184.039 50.32C182.567 50.32 181.362 49.872 180.423 48.976C179.485 48.0587 179.015 46.8533 179.015 45.36V33.616C179.015 33.232 179.207 33.04 179.591 33.04H181.927C182.247 33.04 182.407 33.2107 182.407 33.552V44.656C182.407 45.5947 182.674 46.352 183.207 46.928C183.741 47.4827 184.455 47.76 185.351 47.76ZM212.808 32.624C213.213 32.624 213.416 32.816 213.416 33.2V34.64C213.416 35.0667 213.234 35.28 212.872 35.28C212.53 35.28 212.21 35.2907 211.912 35.312C211.613 35.3333 211.357 35.376 211.144 35.44C210.866 35.5253 210.674 35.632 210.568 35.76C210.482 35.8667 210.461 36.0053 210.504 36.176C210.525 36.24 210.6 36.4533 210.728 36.816C210.877 37.1787 210.952 37.616 210.952 38.128C210.952 39.6427 210.333 40.8907 209.096 41.872C207.88 42.832 206.109 43.312 203.784 43.312C202.376 43.312 201.352 43.4293 200.712 43.664C200.072 43.8987 199.752 44.208 199.752 44.592C199.752 44.912 199.954 45.1467 200.36 45.296C200.765 45.424 201.448 45.5093 202.408 45.552L206.664 45.808C208.584 45.9147 210.013 46.3627 210.952 47.152C211.912 47.9413 212.392 48.9973 212.392 50.32C212.392 51.9627 211.645 53.2533 210.152 54.192C208.68 55.1307 206.589 55.6 203.88 55.6C201.064 55.6 198.92 55.2267 197.448 54.48C195.997 53.7333 195.272 52.6453 195.272 51.216C195.272 50.4907 195.528 49.8507 196.04 49.296C196.552 48.7413 197.298 48.24 198.28 47.792C198.536 47.664 198.536 47.5467 198.28 47.44C197.213 46.9493 196.68 46.2667 196.68 45.392C196.68 44.88 196.914 44.4 197.384 43.952C197.874 43.504 198.546 43.1307 199.4 42.832C199.528 42.7893 199.592 42.736 199.592 42.672C199.592 42.5867 199.528 42.512 199.4 42.448C198.44 41.9573 197.725 41.36 197.256 40.656C196.786 39.952 196.552 39.1093 196.552 38.128C196.552 36.464 197.202 35.1627 198.504 34.224C199.826 33.264 201.682 32.784 204.072 32.784C206.162 32.784 207.794 33.264 208.968 34.224C209.117 34.3307 209.234 34.384 209.32 34.384C209.448 34.384 209.576 34.32 209.704 34.192C210.109 33.7653 210.6 33.4027 211.176 33.104C211.773 32.784 212.317 32.624 212.808 32.624ZM203.784 41.392C205.128 41.392 206.13 41.1147 206.792 40.56C207.474 39.984 207.816 39.1733 207.816 38.128C207.816 37.0613 207.474 36.2293 206.792 35.632C206.109 35.0347 205.106 34.736 203.784 34.736C202.482 34.736 201.469 35.0453 200.744 35.664C200.018 36.2613 199.656 37.0827 199.656 38.128C199.656 39.152 200.008 39.952 200.712 40.528C201.437 41.104 202.461 41.392 203.784 41.392ZM201.096 48.272C200.69 48.2507 200.253 48.3467 199.784 48.56C199.336 48.7733 198.952 49.0827 198.632 49.488C198.333 49.872 198.184 50.3093 198.184 50.8C198.184 52.7413 200.189 53.712 204.2 53.712C205.864 53.712 207.133 53.4667 208.008 52.976C208.882 52.5067 209.32 51.792 209.32 50.832C209.32 49.4453 208.317 48.688 206.312 48.56L201.096 48.272Z" fill="#F2C94C"/>
<path d="M60.6667 40.6668C60.6667 46.8552 58.2083 52.7901 53.8325 57.166C49.4566 61.5418 43.5217 64.0002 37.3333 64.0002C31.145 64.0002 25.21 61.5418 20.8342 57.166C16.4583 52.7901 14 46.8552 14 40.6668H17.1033C17.1033 46.0322 19.2347 51.1777 23.0286 54.9716C26.8224 58.7655 31.968 60.8968 37.3333 60.8968C42.6987 60.8968 47.8442 58.7655 51.6381 54.9716C55.432 51.1777 57.5633 46.0322 57.5633 40.6668H60.6667Z" fill="#F2C94C"/>
<path d="M53.1115 17.92C51.1503 15.2777 49.0898 14.047 46.6273 14.047C45.033 14.047 43.4859 14.5584 41.9925 15.0518L41.943 15.0681C40.3497 15.5913 38.8448 16.0858 37.221 16.0858C35.5937 16.0858 33.9988 15.5505 32.4465 15.0299C30.9237 14.5234 29.3492 14 27.7732 14C25.2985 14 23.2864 15.2556 21.4422 17.9499C18.541 22.1751 20.1882 26.6997 21.5169 30.3486C22.1086 31.9721 22.6674 33.5053 22.6674 34.663C22.6674 40.6073 23.9209 50.6669 28.6195 50.6669C31.8351 50.6669 32.8244 46.9307 33.6996 43.6252C34.6289 40.1454 35.4336 37.6823 37.3351 37.6823C38.9756 37.6823 39.6033 39.277 40.4735 43.0999C41.2265 46.4401 42.1637 50.5965 46.1156 50.5965C51.6299 50.5965 52.0585 38.395 52.0585 34.6554C52.0585 33.5578 52.5987 32.0374 53.171 30.4276L53.1937 30.3633C54.5101 26.6392 56.1484 22.0047 53.1115 17.92ZM50.3522 29.3587L50.3313 29.4182C49.6697 31.2797 49.0448 33.038 49.0448 34.6552C49.0448 38.2045 48.6715 41.6449 48.0203 44.0943C47.2596 46.9558 46.3874 47.5825 46.1156 47.5825C44.9052 47.5825 44.3244 46.4764 43.4104 42.4226C42.6654 39.15 41.6453 34.668 37.3351 34.668C32.9723 34.668 31.7097 39.3953 30.7838 42.8629C30.2787 44.7702 29.5156 47.6526 28.6197 47.6526C28.4807 47.6526 27.6052 47.0483 26.8038 44.1761C26.0905 41.6204 25.6816 38.1528 25.6816 34.6626C25.6816 32.9729 25.0342 31.1967 24.3445 29.304C23.1448 26.0091 21.9043 22.6019 23.9284 19.6539C25.5203 17.3275 26.7654 17.0138 27.7732 17.0138C28.8614 17.0138 30.1409 17.4392 31.4975 17.8903C33.1869 18.4571 35.1014 19.0996 37.2208 19.0996C39.3266 19.0996 41.2163 18.4792 42.8834 17.9316L42.9354 17.9146C44.2635 17.4755 45.5182 17.061 46.6273 17.061C47.6623 17.061 48.9546 17.3765 50.6922 19.7174C52.7719 22.5143 51.5419 25.9938 50.3522 29.3587Z" fill="white"/>
<circle cx="46" cy="24" r="2" fill="#F2C94C"/>
</svg>
