<svg width="131" height="130" viewBox="0 0 131 130" fill="none" xmlns="http://www.w3.org/2000/svg">
<path d="M65.8551 0L75.2389 17.8242L90.7295 4.94783L92.578 25.0063L111.817 19.0381L105.849 38.2771L125.907 40.1256L113.031 55.6162L130.855 65L113.031 74.3838L125.907 89.8744L105.849 91.7229L111.817 110.962L92.578 104.994L90.7295 125.052L75.2389 112.176L65.8551 130L56.4713 112.176L40.9807 125.052L39.1322 104.994L19.8932 110.962L25.8614 91.7229L5.80293 89.8744L18.6793 74.3838L0.855103 65L18.6793 55.6162L5.80293 40.1256L25.8614 38.2771L19.8932 19.0381L39.1322 25.0063L40.9807 4.94783L56.4713 17.8242L65.8551 0Z" fill="#FFC359"/>
<path d="M42.0057 56.3777L40.5661 56.3745L40.5797 50.2909L37.5785 50.2842L37.565 56.3678L33.783 56.3594L29.5917 50.2664L26.8915 50.2604L26.8779 56.344L25.4139 56.3408L25.4103 57.9674L26.8743 57.9707L26.8701 59.8576L25.4061 59.8543L25.4025 61.481L26.8665 61.4842L26.8544 66.9172L29.8718 66.9239L29.8839 61.4909L34.1132 61.5004L37.8586 66.9417L40.5426 66.9477L40.5547 61.5147L41.9943 61.5179L41.9979 59.8913L40.5583 59.8881L40.5625 58.0012L42.0021 58.0044L42.0057 56.3777ZM31.6892 57.9814L32.9944 59.8712L29.8875 59.8643L29.8917 57.9774L31.6892 57.9814ZM37.5614 57.9945L37.5572 59.8814L36.1989 59.8784L34.9018 57.9886L37.5614 57.9945ZM29.8953 56.3507L29.8971 55.5781L30.0353 55.5784L30.5704 56.3523L29.8953 56.3507ZM37.3177 61.5075L37.5535 61.508L37.5532 61.6382L37.4068 61.6378L37.3177 61.5075ZM50.6913 50.3134L47.8203 50.307L43.6746 52.9573L43.6684 55.7226L47.5698 53.2425L47.6674 53.2428L47.6368 66.9635L50.6542 66.9702L50.6913 50.3134ZM57.4607 64.7081L54.8581 64.7023L54.7991 65.6131C54.6559 67.8169 54.0735 70.0604 53.8354 71.0439L55.8199 71.0484C56.2126 70.0244 57.1207 67.6516 57.353 65.6025L57.4607 64.7081ZM66.3102 67.2328C69.8319 67.2407 72.2934 64.855 72.3008 61.5448C72.3079 58.3403 70.0846 56.0255 67.059 56.0187C65.7089 56.0157 64.5121 56.5498 63.8924 57.2805L63.7948 57.2802L64.2845 52.865L71.4498 52.8809L71.4554 50.3596L61.7932 50.3381L60.9038 58.9249L63.6274 59.3783C64.19 58.7614 65.2482 58.3489 66.2486 58.3593C68.0786 58.3715 69.3931 59.7246 69.3808 61.6114C69.3848 63.474 68.0968 64.7968 66.3156 64.7929C64.811 64.7895 63.6012 63.8352 63.4985 62.4686L60.5706 62.4621C60.6457 65.2276 63.0569 67.2256 66.3102 67.2328ZM81.1694 67.3554C85.1872 67.3725 87.5935 64.2059 87.6057 58.7403C87.6178 53.3073 85.2092 50.1625 81.2077 50.1536C77.2061 50.1447 74.7917 53.2706 74.7715 58.7117C74.7593 64.1691 77.1516 67.3464 81.1694 67.3554ZM81.175 64.8097C79.1011 64.8051 77.8044 62.7201 77.8214 58.7185C77.8384 54.7495 79.1362 52.6622 81.2021 52.6668C83.2761 52.6714 84.5646 54.7645 84.5639 58.7336C84.555 62.7351 83.2571 64.8143 81.175 64.8097ZM96.4456 67.3894C100.463 67.4065 102.87 64.2399 102.882 58.7744C102.894 53.3414 100.485 50.1966 96.4839 50.1876C92.4824 50.1787 90.068 53.3047 90.0477 58.7458C90.0355 64.2032 92.4278 67.3805 96.4456 67.3894ZM96.4513 64.8437C94.3773 64.8391 93.0806 62.7541 93.0977 58.7526C93.1146 54.7836 94.4125 52.6962 96.4783 52.7008C98.5523 52.7054 99.8408 54.7985 99.8401 58.7676C99.8312 62.7691 98.5334 64.8484 96.4513 64.8437Z" fill="#003E63"/>
<path d="M34.9459 86.9152L41.6013 86.93L41.6042 85.6217L37.0521 85.6115L37.0522 85.5375L39.0664 83.4387C40.922 81.5716 41.4523 80.6792 41.4548 79.5486C41.4584 77.9242 40.138 76.6771 38.2322 76.6728C36.3413 76.6686 34.9561 77.89 34.952 79.7365L36.4085 79.7397C36.406 78.6535 37.1086 77.9441 38.1998 77.9466C39.2267 77.9489 40.0054 78.5826 40.0031 79.5898C40.0011 80.4834 39.4665 81.124 38.3777 82.272L34.9484 85.8093L34.9459 86.9152ZM46.8887 87.0801C48.992 87.0847 50.4807 85.8933 50.4942 84.2541C50.4872 82.9803 49.596 81.9069 48.4658 81.702L48.4659 81.6427C49.449 81.4079 50.1175 80.4862 50.1298 79.3951C50.1234 77.8497 48.7633 76.6963 46.9118 76.6922C45.0406 76.688 43.6754 77.8353 43.6818 79.3807C43.6695 80.4669 44.334 81.3966 45.3357 81.6358L45.3356 81.695C44.1848 81.8949 43.2888 82.9643 43.2958 84.2381C43.2823 85.8772 44.7657 87.0753 46.8887 87.0801ZM46.8915 85.831C45.6276 85.8281 44.8292 85.1549 44.8414 84.1428C44.8338 83.0911 45.7044 82.3426 46.8993 82.3453C48.0743 82.3479 48.9416 83.1003 48.9491 84.1519C48.937 85.164 48.1406 85.8337 46.8915 85.831ZM46.902 81.1258C45.88 81.1235 45.1556 80.4751 45.1677 79.5124C45.1599 78.5644 45.8624 77.939 46.9091 77.9413C47.936 77.9436 48.6357 78.5722 48.6435 79.5201C48.6314 80.4829 47.9092 81.128 46.902 81.1258ZM55.9499 89.8059L57.4261 89.8091L57.4351 85.7853L57.5239 85.7855C57.7895 86.27 58.3307 87.1154 59.7131 87.1185C61.5497 87.1226 62.8861 85.6543 62.8915 83.2005C62.897 80.7417 61.5474 79.2921 59.7157 79.2881C58.3086 79.2849 57.7982 80.1429 57.5354 80.6113L57.412 80.611L57.4148 79.3817L55.9731 79.3785L55.9499 89.8059ZM57.4112 83.1735C57.4148 81.5886 58.1083 80.5385 59.3969 80.5414C60.7349 80.5444 61.4039 81.6765 61.4005 83.1823C61.3971 84.703 60.7033 85.8617 59.3851 85.8588C58.1162 85.856 57.4077 84.7682 57.4112 83.1735ZM66.7436 87.1539C67.9977 87.1567 68.7051 86.5214 68.9878 85.9542L69.0471 85.9544L69.0447 86.9912L70.4864 86.9944L70.4976 81.9584C70.5025 79.7515 68.7656 79.3082 67.5609 79.3055C66.1884 79.3025 64.9232 79.8526 64.4264 81.2339L65.8131 81.553C66.0315 81.0153 66.5856 80.4982 67.578 80.5004C68.5309 80.5025 69.0186 81.0022 69.0167 81.8613L69.0166 81.8959C69.0154 82.434 68.4624 82.4229 67.0994 82.5779C65.6623 82.7426 64.1902 83.1145 64.1864 84.8376C64.183 86.3286 65.302 87.1507 66.7436 87.1539ZM67.0672 85.9697C66.2328 85.9678 65.6313 85.5913 65.6329 84.8606C65.6347 84.0706 66.3364 83.7907 67.1908 83.6791C67.6698 83.616 68.8057 83.4901 69.0185 83.2783L69.0163 84.2559C69.0143 85.1544 68.2966 85.9724 67.0672 85.9697ZM75.6255 90.0077C77.556 90.012 79.049 89.1315 79.0533 87.1813L79.0706 79.4299L77.624 79.4267L77.6212 80.6561L77.5126 80.6558C77.252 80.1862 76.7306 79.326 75.3185 79.3228C73.4868 79.3187 72.1357 80.7623 72.1304 83.1766C72.125 85.5959 73.4996 86.8875 75.2918 86.8915C76.6841 86.8946 77.224 86.1108 77.4917 85.6276L77.5855 85.6278L77.5822 87.1188C77.5795 88.3087 76.7637 88.8203 75.643 88.8178C74.4136 88.8151 73.9361 88.1969 73.6754 87.7618L72.4054 88.2823C72.8032 89.2114 73.8136 90.0036 75.6255 90.0077ZM75.6204 85.6678C74.3021 85.6649 73.6181 84.6512 73.6214 83.1602C73.6247 81.7037 74.2987 80.5746 75.6317 80.5776C76.9203 80.5804 77.6092 81.6336 77.6058 83.1691C77.6023 84.7342 76.8942 85.6707 75.6204 85.6678ZM84.3016 87.1782C85.9556 87.1819 87.1275 86.3699 87.466 85.1363L86.0693 84.8814C85.8011 85.5967 85.1585 85.9606 84.3191 85.9587C83.0552 85.9559 82.2078 85.1345 82.1716 83.673L87.563 83.685L87.5642 83.1616C87.5703 80.4215 85.9335 79.3464 84.2154 79.3426C82.1023 79.3379 80.7064 80.9443 80.7012 83.2747C80.6959 85.6298 82.0651 87.1732 84.3016 87.1782ZM82.179 82.567C82.2406 81.4909 83.0228 80.5595 84.2225 80.5621C85.368 80.5647 86.1165 81.4156 86.1189 82.5758L82.179 82.567ZM94.889 81.3166C94.5855 80.1359 93.664 79.3637 92.0248 79.36C90.3116 79.3562 89.095 80.257 89.092 81.5999C89.0896 82.6762 89.7398 83.3936 91.161 83.7127L92.444 83.997C93.1744 84.1616 93.5143 84.4882 93.5133 84.9622C93.5119 85.5497 92.8839 86.0074 91.9162 86.0053C91.0324 86.0033 90.4655 85.6219 90.2894 84.876L88.8621 85.09C89.106 86.4335 90.2201 87.1914 91.9234 87.1952C93.7551 87.1993 95.0262 86.2295 95.0292 84.8569C95.0316 83.7855 94.3517 83.1224 92.9602 82.7984L91.7561 82.5192C90.9222 82.3199 90.5624 82.0377 90.5684 81.5242C90.5648 80.9416 91.1977 80.5283 92.037 80.5302C92.9553 80.5322 93.3788 81.0417 93.5505 81.5506L94.889 81.3166Z" fill="#003E63"/>
</svg>
