<svg width="130" height="130" viewBox="0 0 130 130" fill="none" xmlns="http://www.w3.org/2000/svg">
<path d="M65 0L74.3838 17.8242L89.8744 4.94783L91.7229 25.0063L110.962 19.0381L104.994 38.2771L125.052 40.1256L112.176 55.6162L130 65L112.176 74.3838L125.052 89.8744L104.994 91.7229L110.962 110.962L91.7229 104.994L89.8744 125.052L74.3838 112.176L65 130L55.6162 112.176L40.1256 125.052L38.2771 104.994L19.0381 110.962L25.0063 91.7229L4.94783 89.8744L17.8242 74.3838L0 65L17.8242 55.6162L4.94783 40.1256L25.0063 38.2771L19.0381 19.0381L38.2771 25.0063L40.1256 4.94783L55.6162 17.8242L65 0Z" fill="#FFC359"/>
<path d="M41.9856 56.3777L40.546 56.3745L40.5595 50.2909L37.5584 50.2842L37.5448 56.3678L33.7629 56.3594L29.5716 50.2664L26.8713 50.2604L26.8578 56.344L25.3938 56.3408L25.3902 57.9674L26.8542 57.9707L26.85 59.8576L25.386 59.8543L25.3824 61.481L26.8463 61.4842L26.8342 66.9172L29.8517 66.9239L29.8638 61.4909L34.093 61.5004L37.8385 66.9417L40.5224 66.9477L40.5345 61.5147L41.9741 61.5179L41.9778 59.8913L40.5382 59.8881L40.5424 58.0012L41.982 58.0044L41.9856 56.3777ZM31.669 57.9814L32.9743 59.8712L29.8674 59.8643L29.8716 57.9774L31.669 57.9814ZM37.5412 57.9945L37.537 59.8814L36.1788 59.8784L34.8816 57.9886L37.5412 57.9945ZM29.8752 56.3507L29.8769 55.5781L30.0152 55.5784L30.5503 56.3523L29.8752 56.3507ZM37.2975 61.5075L37.5334 61.508L37.5331 61.6382L37.3867 61.6378L37.2975 61.5075ZM50.6712 50.3134L47.8001 50.307L43.6544 52.9573L43.6483 55.7226L47.5496 53.2425L47.6472 53.2428L47.6167 66.9635L50.6341 66.9702L50.6712 50.3134ZM57.4406 64.7081L54.8379 64.7023L54.779 65.6131C54.6358 67.8169 54.0533 70.0604 53.8153 71.0439L55.7998 71.0484C56.1925 70.0244 57.1005 67.6516 57.3328 65.6025L57.4406 64.7081ZM66.2085 67.3221C70.2263 67.3392 72.6327 64.1726 72.6448 58.7071C72.6569 53.2741 70.2484 50.1293 66.2468 50.1203C62.2453 50.1114 59.8309 53.2374 59.8106 58.6785C59.7984 64.1359 62.1907 67.3132 66.2085 67.3221ZM66.2142 64.7764C64.1402 64.7718 62.8435 62.6868 62.8606 58.6853C62.8775 54.7163 64.1754 52.6289 66.2412 52.6335C68.3152 52.6381 69.6037 54.7312 69.603 58.7003C69.5941 62.7018 68.2963 64.7811 66.2142 64.7764ZM81.4847 67.3561C85.5025 67.3732 87.9089 64.2066 87.9211 58.7411C87.9332 53.3081 85.5246 50.1633 81.523 50.1544C77.5215 50.1455 75.1071 53.2714 75.0868 58.7125C75.0747 64.1699 77.4669 67.3472 81.4847 67.3561ZM81.4904 64.8104C79.4164 64.8058 78.1197 62.7208 78.1368 58.7193C78.1538 54.7503 79.4516 52.6629 81.5174 52.6675C83.5914 52.6722 84.8799 54.7653 84.8792 58.7343C84.8703 62.7359 83.5725 64.8151 81.4904 64.8104ZM96.761 67.3902C100.779 67.4072 103.185 64.2406 103.197 58.7751C103.209 53.3421 100.801 50.1973 96.7993 50.1884C92.7977 50.1795 90.3833 53.3054 90.3631 58.7465C90.3509 64.2039 92.7431 67.3812 96.761 67.3902ZM96.7666 64.8445C94.6926 64.8398 93.396 62.7548 93.413 58.7533C93.43 54.7843 94.7278 52.697 96.7937 52.7016C98.8676 52.7062 100.156 54.7993 100.155 58.7683C100.147 62.7699 98.8487 64.8491 96.7666 64.8445Z" fill="#003E63"/>
<path d="M30.3358 82.5417L36.8853 85.7359L36.8887 84.2251L32.0995 82.0322L32.0997 81.9532L36.8986 79.7767L36.902 78.2708L30.3383 81.4358L30.3358 82.5417ZM42.7256 87.0819C44.7893 87.0865 46.3078 85.8556 46.3066 84.1769C46.3144 82.8982 45.5413 81.9782 44.1988 81.7678L44.199 81.6888C45.2562 81.4196 45.9443 80.5917 45.9419 79.4561C45.9501 77.97 44.7335 76.6985 42.7882 76.6941C40.9318 76.69 39.4383 77.8074 39.3852 79.4514L40.8615 79.4547C40.8981 78.5266 41.7732 77.9657 42.7656 77.9679C43.7975 77.9702 44.4725 78.5987 44.4655 79.5318C44.4682 80.5094 43.6818 81.1495 42.561 81.147L41.7069 81.1451L41.7041 82.3893L42.5583 82.3912C43.9604 82.3943 44.7686 83.1071 44.7663 84.1241C44.7641 85.1066 43.9085 85.7713 42.7186 85.7686C41.6226 85.7662 40.7697 85.2014 40.7124 84.3027L39.1621 84.2993C39.2227 85.9484 40.6816 87.0774 42.7256 87.0819ZM51.6865 87.1315C54.0218 87.1367 55.3937 85.234 55.4011 81.9211C55.4084 78.6329 54.0253 76.7192 51.7097 76.714C49.3892 76.7088 48.0026 78.6115 47.9903 81.9046C47.9829 85.2126 49.3463 87.1214 51.6865 87.1315ZM51.6895 85.8133C50.3219 85.8102 49.5004 84.4358 49.506 81.908C49.5166 79.39 50.3442 78.0045 51.7069 78.0075C53.0646 78.0106 53.8909 79.3998 53.8853 81.9178C53.8797 84.4456 53.0521 85.8163 51.6895 85.8133ZM60.8342 89.8279L62.3104 89.8312L62.3193 85.8073L62.4082 85.8075C62.6737 86.292 63.215 87.1374 64.5974 87.1405C66.434 87.1446 67.7703 85.6763 67.7758 83.2225C67.7813 80.7638 66.4317 79.3141 64.6 79.3101C63.1929 79.3069 62.6825 80.1649 62.4197 80.6333L62.2963 80.6331L62.299 79.4037L60.8574 79.4005L60.8342 89.8279ZM62.2955 83.1955C62.2991 81.6106 62.9926 80.5605 64.2812 80.5634C65.6192 80.5664 66.2882 81.6985 66.2848 83.2044C66.2814 84.725 65.5876 85.8837 64.2694 85.8808C63.0005 85.878 62.292 84.7902 62.2955 83.1955ZM71.6279 87.1759C72.882 87.1787 73.5894 86.5434 73.8721 85.9762L73.9313 85.9764L73.929 87.0132L75.3707 87.0164L75.3819 81.9804C75.3868 79.7735 73.6499 79.3302 72.4452 79.3275C71.0727 79.3245 69.8075 79.8746 69.3107 81.256L70.6974 81.575C70.9158 81.0374 71.4699 80.5202 72.4623 80.5224C73.4152 80.5245 73.9029 81.0243 73.901 81.8833L73.9009 81.9179C73.8997 82.4561 73.3467 82.4449 71.9837 82.5999C70.5466 82.7646 69.0745 83.1365 69.0707 84.8596C69.0673 86.3506 70.1863 87.1727 71.6279 87.1759ZM71.9515 85.9917C71.1171 85.9899 70.5156 85.6133 70.5172 84.8826C70.519 84.0926 71.2207 83.8128 72.0751 83.7011C72.5541 83.638 73.69 83.5122 73.9027 83.3003L73.9006 84.2779C73.8986 85.1765 73.1808 85.9944 71.9515 85.9917ZM80.5098 90.0297C82.4403 90.034 83.9333 89.1535 83.9376 87.2033L83.9549 79.4519L82.5083 79.4487L82.5055 80.6781L82.3969 80.6778C82.1363 80.2082 81.6149 79.348 80.2028 79.3448C78.3711 79.3407 77.02 80.7843 77.0147 83.1986C77.0093 85.6179 78.3839 86.9095 80.1761 86.9135C81.5684 86.9166 82.1083 86.1328 82.376 85.6496L82.4698 85.6498L82.4665 87.1408C82.4638 88.3307 81.648 88.8423 80.5273 88.8398C79.2979 88.8371 78.8204 88.2189 78.5597 87.7838L77.2897 88.3043C77.6875 89.2334 78.6979 90.0256 80.5098 90.0297ZM80.5047 85.6898C79.1864 85.6869 78.5024 84.6732 78.5057 83.1822C78.509 81.7257 79.183 80.5966 80.516 80.5996C81.8046 80.6024 82.4935 81.6556 82.4901 83.1911C82.4866 84.7562 81.7785 85.6927 80.5047 85.6898ZM89.1859 87.2002C90.8399 87.2039 92.0118 86.3919 92.3503 85.1583L90.9536 84.9034C90.6854 85.6187 90.0428 85.9826 89.2034 85.9808C87.9395 85.9779 87.0921 85.1565 87.0559 83.695L92.4473 83.707L92.4485 83.1836C92.4546 80.4435 90.8178 79.3685 89.0997 79.3646C86.9865 79.3599 85.5907 80.9664 85.5855 83.2967C85.5802 85.6518 86.9493 87.1952 89.1859 87.2002ZM87.0633 82.5891C87.1249 81.5129 87.9071 80.5815 89.1068 80.5841C90.2523 80.5867 91.0008 81.4376 91.0032 82.5978L87.0633 82.5891ZM99.7733 81.3386C99.4698 80.1579 98.5483 79.3857 96.9091 79.382C95.1959 79.3782 93.9793 80.279 93.9763 81.6219C93.9739 82.6983 94.6241 83.4156 96.0453 83.7347L97.3283 84.019C98.0587 84.1836 98.3986 84.5102 98.3976 84.9842C98.3962 85.5717 97.7682 86.0295 96.8005 86.0273C95.9167 86.0253 95.3498 85.6439 95.1737 84.898L93.7464 85.1121C93.9903 86.4555 95.1044 87.2134 96.8077 87.2172C98.6394 87.2213 99.9105 86.2515 99.9135 84.8789C99.9159 83.8076 99.236 83.1444 97.8445 82.8204L96.6404 82.5413C95.8065 82.3419 95.4467 82.0597 95.4527 81.5462C95.4491 80.9636 96.082 80.5503 96.9213 80.5522C97.8396 80.5542 98.2631 81.0637 98.4348 81.5726L99.7733 81.3386Z" fill="#003E63"/>
</svg>
