<svg width="280" height="72" viewBox="0 0 280 72" fill="none" xmlns="http://www.w3.org/2000/svg">
<rect x="0.000976562" y="32" width="35" height="32" fill="white"/>
<path fill-rule="evenodd" clip-rule="evenodd" d="M70.001 0H35.001V32H70.001V0ZM66.001 4H61.001V9H66.001V4Z" fill="white"/>
<path d="M76.946 43.172C76.946 44.238 77.2056 45.1673 77.725 45.96C78.2443 46.7527 78.873 47.4223 79.611 47.969C80.349 48.4883 81.3876 49.158 82.727 49.978C84.1483 50.8253 85.2553 51.536 86.048 52.11C86.8406 52.684 87.5103 53.422 88.057 54.324C88.631 55.1987 88.918 56.251 88.918 57.481C88.918 58.793 88.59 59.982 87.934 61.048C87.278 62.114 86.3076 62.9613 85.023 63.59C83.7656 64.1913 82.2486 64.492 80.472 64.492C78.3673 64.492 76.4403 64.0137 74.691 63.057C74.5543 62.975 74.4586 62.8793 74.404 62.77C74.3766 62.6607 74.3493 62.4967 74.322 62.278L73.789 56.702C73.7616 56.5927 73.8163 56.5243 73.953 56.497C74.117 56.4697 74.2126 56.5107 74.24 56.62C74.6773 58.588 75.4836 60.2827 76.659 61.704C77.8616 63.1253 79.447 63.836 81.415 63.836C82.7816 63.836 83.9296 63.467 84.859 62.729C85.8156 61.9637 86.294 60.761 86.294 59.121C86.294 57.891 86.0206 56.825 85.474 55.923C84.9273 55.021 84.2576 54.283 83.465 53.709C82.6996 53.1077 81.6473 52.4107 80.308 51.618C78.996 50.8253 77.9573 50.142 77.192 49.568C76.454 48.994 75.8253 48.2697 75.306 47.395C74.7866 46.5203 74.527 45.4953 74.527 44.32C74.527 42.9533 74.8823 41.7917 75.593 40.835C76.331 39.851 77.274 39.1267 78.422 38.662C79.5973 38.17 80.841 37.924 82.153 37.924C83.7656 37.924 85.3646 38.252 86.95 38.908C87.36 39.0447 87.565 39.277 87.565 39.605L87.852 44.32C87.852 44.4293 87.7836 44.484 87.647 44.484C87.5103 44.484 87.4283 44.4293 87.401 44.32C87.1823 42.8987 86.5946 41.5867 85.638 40.384C84.6813 39.154 83.301 38.539 81.497 38.539C79.9663 38.539 78.8183 38.99 78.053 39.892C77.315 40.7667 76.946 41.86 76.946 43.172ZM103.892 44.32C104.93 44.32 106.037 44.4293 107.213 44.648C108.415 44.8667 109.386 45.1537 110.124 45.509C110.315 45.591 110.438 45.673 110.493 45.755C110.547 45.837 110.588 45.9873 110.616 46.206L111.026 50.429C111.026 50.511 110.944 50.5657 110.78 50.593C110.643 50.6203 110.561 50.5793 110.534 50.47C110.042 48.584 109.14 47.19 107.828 46.288C106.543 45.386 104.944 44.935 103.031 44.935C101.609 44.935 100.325 45.3177 99.1766 46.083C98.056 46.8483 97.1676 47.9007 96.5116 49.24C95.883 50.552 95.5686 52.0417 95.5686 53.709C95.5686 55.4037 95.883 57.0437 96.5116 58.629C97.1676 60.187 98.138 61.458 99.4226 62.442C100.735 63.426 102.306 63.918 104.138 63.918C107.582 63.918 109.837 62.032 110.903 58.26C110.903 58.178 110.971 58.137 111.108 58.137C111.162 58.137 111.217 58.1643 111.272 58.219C111.354 58.2463 111.395 58.2737 111.395 58.301L110.862 62.647C110.834 62.8657 110.793 63.016 110.739 63.098C110.684 63.18 110.534 63.2757 110.288 63.385C108.183 64.123 105.996 64.492 103.728 64.492C101.131 64.492 98.999 63.9727 97.3316 62.934C95.6643 61.8953 94.4616 60.597 93.7236 59.039C92.9856 57.481 92.6166 55.9093 92.6166 54.324C92.6166 52.4653 93.1086 50.7707 94.0926 49.24C95.0766 47.7093 96.4296 46.5067 98.1516 45.632C99.8736 44.7573 101.787 44.32 103.892 44.32ZM135.998 63.508C136.107 63.508 136.162 63.59 136.162 63.754C136.162 63.918 136.107 64 135.998 64C135.506 64 134.713 63.9727 133.62 63.918C132.527 63.8633 131.734 63.836 131.242 63.836C130.805 63.836 130.231 63.8633 129.52 63.918C128.809 63.9727 128.263 64 127.88 64C127.771 64 127.716 63.918 127.716 63.754C127.716 63.59 127.771 63.508 127.88 63.508C128.591 63.508 129.11 63.426 129.438 63.262C129.793 63.0707 129.971 62.7427 129.971 62.278C129.971 61.868 129.807 61.294 129.479 60.556L126.691 54.57H120.951L119.188 58.957C118.751 59.9957 118.532 60.8567 118.532 61.54C118.532 62.2507 118.778 62.7563 119.27 63.057C119.762 63.3577 120.514 63.508 121.525 63.508C121.662 63.508 121.73 63.59 121.73 63.754C121.73 63.918 121.662 64 121.525 64C121.115 64 120.555 63.9727 119.844 63.918C119.079 63.8633 118.368 63.836 117.712 63.836C117.029 63.836 116.222 63.8633 115.293 63.918C114.473 63.9727 113.817 64 113.325 64C113.188 64 113.12 63.918 113.12 63.754C113.12 63.59 113.188 63.508 113.325 63.508C114.172 63.508 114.842 63.3987 115.334 63.18C115.826 62.934 116.277 62.4693 116.687 61.786C117.124 61.1027 117.644 60.0367 118.245 58.588L124.149 44.197C124.204 44.0877 124.286 44.033 124.395 44.033C124.504 44.033 124.573 44.0877 124.6 44.197L131.201 58.383C131.912 59.9137 132.472 61.0207 132.882 61.704C133.319 62.3873 133.757 62.8657 134.194 63.139C134.659 63.385 135.26 63.508 135.998 63.508ZM121.238 53.832H126.363L123.616 47.928L121.238 53.832ZM143.074 60.515C143.074 61.3077 143.143 61.8953 143.279 62.278C143.443 62.6607 143.73 62.934 144.14 63.098C144.578 63.262 145.22 63.344 146.067 63.344H148.773C150.222 63.344 151.37 62.893 152.217 61.991C153.092 61.089 153.68 59.8453 153.98 58.26C153.98 58.2053 154.035 58.178 154.144 58.178C154.226 58.178 154.295 58.1917 154.349 58.219C154.431 58.2463 154.472 58.2873 154.472 58.342C154.281 59.5993 154.185 61.2803 154.185 63.385C154.185 63.6037 154.131 63.7677 154.021 63.877C153.939 63.959 153.789 64 153.57 64H137.539C137.485 64 137.457 63.918 137.457 63.754C137.457 63.59 137.485 63.508 137.539 63.508C138.441 63.508 139.097 63.4397 139.507 63.303C139.917 63.1663 140.191 62.9067 140.327 62.524C140.464 62.114 140.532 61.499 140.532 60.679V48.133C140.532 47.313 140.45 46.7117 140.286 46.329C140.15 45.9463 139.876 45.6867 139.466 45.55C139.056 45.386 138.414 45.304 137.539 45.304C137.485 45.304 137.457 45.222 137.457 45.058C137.457 44.894 137.485 44.812 137.539 44.812L139.384 44.853C140.423 44.9077 141.229 44.935 141.803 44.935C142.487 44.935 143.348 44.9077 144.386 44.853L146.108 44.812C146.19 44.812 146.231 44.894 146.231 45.058C146.231 45.222 146.19 45.304 146.108 45.304C145.206 45.304 144.55 45.386 144.14 45.55C143.73 45.6867 143.443 45.96 143.279 46.37C143.143 46.7527 143.074 47.354 143.074 48.174V60.515ZM171.975 58.547C171.975 58.465 172.043 58.424 172.18 58.424C172.344 58.424 172.426 58.465 172.426 58.547C172.235 60.515 172.139 62.1277 172.139 63.385C172.139 63.6037 172.098 63.7677 172.016 63.877C171.934 63.959 171.77 64 171.524 64H156.518C156.463 64 156.436 63.918 156.436 63.754C156.436 63.59 156.463 63.508 156.518 63.508C157.42 63.508 158.076 63.4397 158.486 63.303C158.896 63.1663 159.169 62.9067 159.306 62.524C159.47 62.114 159.552 61.499 159.552 60.679V48.133C159.552 47.313 159.47 46.7117 159.306 46.329C159.169 45.9463 158.896 45.6867 158.486 45.55C158.076 45.386 157.42 45.304 156.518 45.304C156.463 45.304 156.436 45.222 156.436 45.058C156.436 44.894 156.463 44.812 156.518 44.812H170.786C171.059 44.812 171.196 44.9213 171.196 45.14L171.237 47.682C171.264 48.2013 171.278 48.8573 171.278 49.65C171.278 49.732 171.196 49.773 171.032 49.773C170.868 49.773 170.786 49.732 170.786 49.65C170.677 48.3927 170.212 47.3677 169.392 46.575C168.599 45.755 167.615 45.345 166.44 45.345H165.292C164.335 45.345 163.638 45.427 163.201 45.591C162.764 45.7277 162.463 45.9873 162.299 46.37C162.135 46.7527 162.053 47.354 162.053 48.174V53.791C164.704 53.7637 166.508 53.6953 167.465 53.586C168.449 53.4493 169.009 53.381 169.146 53.381C169.283 53.381 169.351 53.668 169.351 54.242C169.351 54.8707 169.283 55.185 169.146 55.185C169.037 55.185 168.49 55.1167 167.506 54.98C166.522 54.816 164.704 54.7067 162.053 54.652V60.515C162.053 61.3077 162.135 61.909 162.299 62.319C162.463 62.7017 162.764 62.975 163.201 63.139C163.666 63.2757 164.363 63.344 165.292 63.344H167.26C168.353 63.344 169.337 62.9067 170.212 62.032C171.087 61.13 171.674 59.9683 171.975 58.547ZM181.687 60.515C181.687 61.3077 181.769 61.8817 181.933 62.237C182.097 62.5923 182.397 62.8383 182.835 62.975C183.272 63.0843 183.983 63.139 184.967 63.139H189.436C190.994 63.139 192.237 62.6607 193.167 61.704C194.096 60.7473 194.711 59.4217 195.012 57.727C195.012 57.645 195.08 57.6177 195.217 57.645C195.381 57.645 195.463 57.686 195.463 57.768C195.217 60.0367 195.094 61.909 195.094 63.385C195.094 63.6037 195.053 63.7677 194.971 63.877C194.889 63.959 194.725 64 194.479 64H175.537C175.482 64 175.455 63.918 175.455 63.754C175.455 63.59 175.482 63.508 175.537 63.508C176.575 63.508 177.327 63.4397 177.792 63.303C178.284 63.1663 178.612 62.9067 178.776 62.524C178.94 62.114 179.022 61.499 179.022 60.679V41.696C179.022 40.876 178.94 40.2747 178.776 39.892C178.612 39.5093 178.284 39.2497 177.792 39.113C177.327 38.949 176.575 38.867 175.537 38.867C175.482 38.867 175.455 38.785 175.455 38.621C175.455 38.457 175.482 38.375 175.537 38.375L177.546 38.416C178.694 38.4707 179.623 38.498 180.334 38.498C181.099 38.498 182.056 38.4707 183.204 38.416L185.172 38.375C185.254 38.375 185.295 38.457 185.295 38.621C185.295 38.785 185.254 38.867 185.172 38.867C184.16 38.867 183.409 38.949 182.917 39.113C182.452 39.2497 182.124 39.523 181.933 39.933C181.769 40.3157 181.687 40.917 181.687 41.737V60.515ZM212.855 58.547C212.855 58.465 212.923 58.424 213.06 58.424C213.224 58.424 213.306 58.465 213.306 58.547C213.115 60.515 213.019 62.1277 213.019 63.385C213.019 63.6037 212.978 63.7677 212.896 63.877C212.814 63.959 212.65 64 212.404 64H197.398C197.343 64 197.316 63.918 197.316 63.754C197.316 63.59 197.343 63.508 197.398 63.508C198.3 63.508 198.956 63.4397 199.366 63.303C199.776 63.1663 200.049 62.9067 200.186 62.524C200.35 62.114 200.432 61.499 200.432 60.679V48.133C200.432 47.313 200.35 46.7117 200.186 46.329C200.049 45.9463 199.776 45.6867 199.366 45.55C198.956 45.386 198.3 45.304 197.398 45.304C197.343 45.304 197.316 45.222 197.316 45.058C197.316 44.894 197.343 44.812 197.398 44.812H211.666C211.939 44.812 212.076 44.9213 212.076 45.14L212.117 47.682C212.144 48.2013 212.158 48.8573 212.158 49.65C212.158 49.732 212.076 49.773 211.912 49.773C211.748 49.773 211.666 49.732 211.666 49.65C211.557 48.3927 211.092 47.3677 210.272 46.575C209.479 45.755 208.495 45.345 207.32 45.345H206.172C205.215 45.345 204.518 45.427 204.081 45.591C203.644 45.7277 203.343 45.9873 203.179 46.37C203.015 46.7527 202.933 47.354 202.933 48.174V53.791C205.584 53.7637 207.388 53.6953 208.345 53.586C209.329 53.4493 209.889 53.381 210.026 53.381C210.163 53.381 210.231 53.668 210.231 54.242C210.231 54.8707 210.163 55.185 210.026 55.185C209.917 55.185 209.37 55.1167 208.386 54.98C207.402 54.816 205.584 54.7067 202.933 54.652V60.515C202.933 61.3077 203.015 61.909 203.179 62.319C203.343 62.7017 203.644 62.975 204.081 63.139C204.546 63.2757 205.243 63.344 206.172 63.344H208.14C209.233 63.344 210.217 62.9067 211.092 62.032C211.967 61.13 212.554 59.9683 212.855 58.547ZM227.158 64.492C224.972 64.492 223.058 64.041 221.418 63.139C219.806 62.2097 218.576 60.9933 217.728 59.49C216.881 57.9867 216.457 56.4013 216.457 54.734C216.457 52.602 216.936 50.757 217.892 49.199C218.849 47.6137 220.216 46.411 221.992 45.591C223.769 44.7437 225.86 44.32 228.265 44.32C229.413 44.32 230.507 44.4293 231.545 44.648C232.584 44.8667 233.459 45.181 234.169 45.591C234.333 45.673 234.429 45.7823 234.456 45.919C234.511 46.0557 234.552 46.247 234.579 46.493L234.989 50.347C234.989 50.429 234.907 50.4837 234.743 50.511C234.607 50.511 234.525 50.47 234.497 50.388C233.896 48.502 232.994 47.1217 231.791 46.247C230.589 45.3723 229.085 44.935 227.281 44.935C224.876 44.935 222.949 45.7687 221.5 47.436C220.079 49.076 219.368 51.331 219.368 54.201C219.368 56.087 219.724 57.768 220.434 59.244C221.145 60.6927 222.156 61.827 223.468 62.647C224.808 63.467 226.366 63.877 228.142 63.877C229.509 63.877 230.507 63.754 231.135 63.508C231.791 63.262 232.229 62.7973 232.447 62.114C232.666 61.4033 232.775 60.31 232.775 58.834C232.775 58.1233 232.693 57.6313 232.529 57.358C232.393 57.0573 232.078 56.866 231.586 56.784C231.122 56.6747 230.302 56.62 229.126 56.62C228.962 56.62 228.88 56.5107 228.88 56.292C228.88 56.21 228.894 56.1417 228.921 56.087C228.976 56.005 229.031 55.964 229.085 55.964C230.507 56.0733 231.942 56.128 233.39 56.128C234.046 56.128 235.14 56.1007 236.67 56.046C236.725 56.046 236.766 56.087 236.793 56.169C236.848 56.2237 236.875 56.2783 236.875 56.333C236.875 56.5243 236.807 56.62 236.67 56.62C236.124 56.5927 235.741 56.6337 235.522 56.743C235.304 56.8523 235.167 57.0847 235.112 57.44C235.058 57.768 235.03 58.3693 235.03 59.244C235.03 60.474 235.058 61.335 235.112 61.827C235.167 62.319 235.194 62.6607 235.194 62.852C235.194 63.016 235.167 63.1253 235.112 63.18C235.085 63.2073 234.962 63.262 234.743 63.344C232.939 64.1093 230.411 64.492 227.158 64.492ZM260.6 63.508C260.709 63.508 260.764 63.59 260.764 63.754C260.764 63.918 260.709 64 260.6 64C260.108 64 259.315 63.9727 258.222 63.918C257.128 63.8633 256.336 63.836 255.844 63.836C255.406 63.836 254.832 63.8633 254.122 63.918C253.411 63.9727 252.864 64 252.482 64C252.372 64 252.318 63.918 252.318 63.754C252.318 63.59 252.372 63.508 252.482 63.508C253.192 63.508 253.712 63.426 254.04 63.262C254.395 63.0707 254.573 62.7427 254.573 62.278C254.573 61.868 254.409 61.294 254.081 60.556L251.293 54.57H245.553L243.79 58.957C243.352 59.9957 243.134 60.8567 243.134 61.54C243.134 62.2507 243.38 62.7563 243.872 63.057C244.364 63.3577 245.115 63.508 246.127 63.508C246.263 63.508 246.332 63.59 246.332 63.754C246.332 63.918 246.263 64 246.127 64C245.717 64 245.156 63.9727 244.446 63.918C243.68 63.8633 242.97 63.836 242.314 63.836C241.63 63.836 240.824 63.8633 239.895 63.918C239.075 63.9727 238.419 64 237.927 64C237.79 64 237.722 63.918 237.722 63.754C237.722 63.59 237.79 63.508 237.927 63.508C238.774 63.508 239.444 63.3987 239.936 63.18C240.428 62.934 240.879 62.4693 241.289 61.786C241.726 61.1027 242.245 60.0367 242.847 58.588L248.751 44.197C248.805 44.0877 248.887 44.033 248.997 44.033C249.106 44.033 249.174 44.0877 249.202 44.197L255.803 58.383C256.513 59.9137 257.074 61.0207 257.484 61.704C257.921 62.3873 258.358 62.8657 258.796 63.139C259.26 63.385 259.862 63.508 260.6 63.508ZM245.84 53.832H250.965L248.218 47.928L245.84 53.832ZM267.676 60.515C267.676 61.3077 267.744 61.8953 267.881 62.278C268.045 62.6607 268.332 62.934 268.742 63.098C269.179 63.262 269.822 63.344 270.669 63.344H273.375C274.824 63.344 275.972 62.893 276.819 61.991C277.694 61.089 278.281 59.8453 278.582 58.26C278.582 58.2053 278.637 58.178 278.746 58.178C278.828 58.178 278.896 58.1917 278.951 58.219C279.033 58.2463 279.074 58.2873 279.074 58.342C278.883 59.5993 278.787 61.2803 278.787 63.385C278.787 63.6037 278.732 63.7677 278.623 63.877C278.541 63.959 278.391 64 278.172 64H262.141C262.086 64 262.059 63.918 262.059 63.754C262.059 63.59 262.086 63.508 262.141 63.508C263.043 63.508 263.699 63.4397 264.109 63.303C264.519 63.1663 264.792 62.9067 264.929 62.524C265.066 62.114 265.134 61.499 265.134 60.679V48.133C265.134 47.313 265.052 46.7117 264.888 46.329C264.751 45.9463 264.478 45.6867 264.068 45.55C263.658 45.386 263.016 45.304 262.141 45.304C262.086 45.304 262.059 45.222 262.059 45.058C262.059 44.894 262.086 44.812 262.141 44.812L263.986 44.853C265.025 44.9077 265.831 44.935 266.405 44.935C267.088 44.935 267.949 44.9077 268.988 44.853L270.71 44.812C270.792 44.812 270.833 44.894 270.833 45.058C270.833 45.222 270.792 45.304 270.71 45.304C269.808 45.304 269.152 45.386 268.742 45.55C268.332 45.6867 268.045 45.96 267.881 46.37C267.744 46.7527 267.676 47.354 267.676 48.174V60.515Z" fill="white"/>
</svg>
