<svg width="466" height="150" viewBox="0 0 466 150" fill="none" xmlns="http://www.w3.org/2000/svg">
<rect y="65.8328" width="72.0046" height="65.8328" fill="#175A80"/>
<path d="M72.0046 0H144.009V65.8328H72.0046V0Z" fill="#175A80"/>
<rect x="125.494" y="8.22909" width="10.2864" height="10.2864" fill="#87C38F"/>
<path d="M148.101 88.6444C148.101 90.2044 148.481 91.5644 149.241 92.7244C150.001 93.8844 150.921 94.8644 152.001 95.6644C153.081 96.4244 154.601 97.4044 156.561 98.6044C158.641 99.8444 160.261 100.884 161.421 101.724C162.581 102.564 163.561 103.644 164.361 104.964C165.201 106.244 165.621 107.784 165.621 109.584C165.621 111.504 165.141 113.244 164.181 114.804C163.221 116.364 161.801 117.604 159.921 118.524C158.081 119.404 155.861 119.844 153.261 119.844C150.181 119.844 147.361 119.144 144.801 117.744C144.601 117.624 144.461 117.484 144.381 117.324C144.341 117.164 144.301 116.924 144.261 116.604L143.481 108.444C143.441 108.284 143.521 108.184 143.721 108.144C143.961 108.104 144.101 108.164 144.141 108.324C144.781 111.204 145.961 113.684 147.681 115.764C149.441 117.844 151.761 118.884 154.641 118.884C156.641 118.884 158.321 118.344 159.681 117.264C161.081 116.144 161.781 114.384 161.781 111.984C161.781 110.184 161.381 108.624 160.581 107.304C159.781 105.984 158.801 104.904 157.641 104.064C156.521 103.184 154.981 102.164 153.021 101.004C151.101 99.8444 149.581 98.8444 148.461 98.0044C147.381 97.1644 146.461 96.1044 145.701 94.8244C144.941 93.5444 144.561 92.0444 144.561 90.3244C144.561 88.3244 145.081 86.6244 146.121 85.2244C147.201 83.7844 148.581 82.7244 150.261 82.0444C151.981 81.3244 153.801 80.9644 155.721 80.9644C158.081 80.9644 160.421 81.4444 162.741 82.4044C163.341 82.6044 163.641 82.9444 163.641 83.4244L164.061 90.3244C164.061 90.4844 163.961 90.5644 163.761 90.5644C163.561 90.5644 163.441 90.4844 163.401 90.3244C163.081 88.2444 162.221 86.3244 160.821 84.5644C159.421 82.7644 157.401 81.8644 154.761 81.8644C152.521 81.8644 150.841 82.5244 149.721 83.8444C148.641 85.1244 148.101 86.7244 148.101 88.6444ZM187.534 90.3244C189.054 90.3244 190.674 90.4844 192.394 90.8044C194.154 91.1244 195.574 91.5444 196.654 92.0644C196.934 92.1844 197.114 92.3044 197.194 92.4244C197.274 92.5444 197.334 92.7644 197.374 93.0844L197.974 99.2644C197.974 99.3844 197.854 99.4644 197.614 99.5044C197.414 99.5444 197.294 99.4844 197.254 99.3244C196.534 96.5644 195.214 94.5244 193.294 93.2044C191.414 91.8844 189.074 91.2244 186.274 91.2244C184.194 91.2244 182.314 91.7844 180.634 92.9044C178.994 94.0244 177.694 95.5644 176.734 97.5244C175.814 99.4444 175.354 101.624 175.354 104.064C175.354 106.544 175.814 108.944 176.734 111.264C177.694 113.544 179.114 115.404 180.994 116.844C182.914 118.284 185.214 119.004 187.894 119.004C192.934 119.004 196.234 116.244 197.794 110.724C197.794 110.604 197.894 110.544 198.094 110.544C198.174 110.544 198.254 110.584 198.334 110.664C198.454 110.704 198.514 110.744 198.514 110.784L197.734 117.144C197.694 117.464 197.634 117.684 197.554 117.804C197.474 117.924 197.254 118.064 196.894 118.224C193.814 119.304 190.614 119.844 187.294 119.844C183.494 119.844 180.374 119.084 177.934 117.564C175.494 116.044 173.734 114.144 172.654 111.864C171.574 109.584 171.034 107.284 171.034 104.964C171.034 102.244 171.754 99.7644 173.194 97.5244C174.634 95.2844 176.614 93.5244 179.134 92.2444C181.654 90.9644 184.454 90.3244 187.534 90.3244ZM234.519 118.404C234.679 118.404 234.759 118.524 234.759 118.764C234.759 119.004 234.679 119.124 234.519 119.124C233.799 119.124 232.639 119.084 231.039 119.004C229.439 118.924 228.279 118.884 227.559 118.884C226.919 118.884 226.079 118.924 225.039 119.004C223.999 119.084 223.199 119.124 222.639 119.124C222.479 119.124 222.399 119.004 222.399 118.764C222.399 118.524 222.479 118.404 222.639 118.404C223.679 118.404 224.439 118.284 224.919 118.044C225.439 117.764 225.699 117.284 225.699 116.604C225.699 116.004 225.459 115.164 224.979 114.084L220.899 105.324H212.499L209.919 111.744C209.279 113.264 208.959 114.524 208.959 115.524C208.959 116.564 209.319 117.304 210.039 117.744C210.759 118.184 211.859 118.404 213.339 118.404C213.539 118.404 213.639 118.524 213.639 118.764C213.639 119.004 213.539 119.124 213.339 119.124C212.739 119.124 211.919 119.084 210.879 119.004C209.759 118.924 208.719 118.884 207.759 118.884C206.759 118.884 205.579 118.924 204.219 119.004C203.019 119.084 202.059 119.124 201.339 119.124C201.139 119.124 201.039 119.004 201.039 118.764C201.039 118.524 201.139 118.404 201.339 118.404C202.579 118.404 203.559 118.244 204.279 117.924C204.999 117.564 205.659 116.884 206.259 115.884C206.899 114.884 207.659 113.324 208.539 111.204L217.179 90.1444C217.259 89.9844 217.379 89.9044 217.539 89.9044C217.699 89.9044 217.799 89.9844 217.839 90.1444L227.499 110.904C228.539 113.144 229.359 114.764 229.959 115.764C230.599 116.764 231.239 117.464 231.879 117.864C232.559 118.224 233.439 118.404 234.519 118.404ZM212.919 104.244H220.419L216.399 95.6044L212.919 104.244ZM244.874 114.024C244.874 115.184 244.974 116.044 245.174 116.604C245.414 117.164 245.834 117.564 246.434 117.804C247.074 118.044 248.014 118.164 249.254 118.164H253.214C255.334 118.164 257.014 117.504 258.254 116.184C259.534 114.864 260.394 113.044 260.834 110.724C260.834 110.644 260.914 110.604 261.074 110.604C261.194 110.604 261.294 110.624 261.374 110.664C261.494 110.704 261.554 110.764 261.554 110.844C261.274 112.684 261.134 115.144 261.134 118.224C261.134 118.544 261.054 118.784 260.894 118.944C260.774 119.064 260.554 119.124 260.234 119.124H236.774C236.694 119.124 236.654 119.004 236.654 118.764C236.654 118.524 236.694 118.404 236.774 118.404C238.094 118.404 239.054 118.304 239.654 118.104C240.254 117.904 240.654 117.524 240.854 116.964C241.054 116.364 241.154 115.464 241.154 114.264V95.9044C241.154 94.7044 241.034 93.8244 240.794 93.2644C240.594 92.7044 240.194 92.3244 239.594 92.1244C238.994 91.8844 238.054 91.7644 236.774 91.7644C236.694 91.7644 236.654 91.6444 236.654 91.4044C236.654 91.1644 236.694 91.0444 236.774 91.0444L239.474 91.1044C240.994 91.1844 242.174 91.2244 243.014 91.2244C244.014 91.2244 245.274 91.1844 246.794 91.1044L249.314 91.0444C249.434 91.0444 249.494 91.1644 249.494 91.4044C249.494 91.6444 249.434 91.7644 249.314 91.7644C247.994 91.7644 247.034 91.8844 246.434 92.1244C245.834 92.3244 245.414 92.7244 245.174 93.3244C244.974 93.8844 244.874 94.7644 244.874 95.9644V114.024ZM287.168 111.144C287.168 111.024 287.268 110.964 287.468 110.964C287.708 110.964 287.828 111.024 287.828 111.144C287.548 114.024 287.408 116.384 287.408 118.224C287.408 118.544 287.348 118.784 287.228 118.944C287.108 119.064 286.868 119.124 286.508 119.124H264.548C264.468 119.124 264.428 119.004 264.428 118.764C264.428 118.524 264.468 118.404 264.548 118.404C265.868 118.404 266.828 118.304 267.428 118.104C268.028 117.904 268.428 117.524 268.628 116.964C268.868 116.364 268.988 115.464 268.988 114.264V95.9044C268.988 94.7044 268.868 93.8244 268.628 93.2644C268.428 92.7044 268.028 92.3244 267.428 92.1244C266.828 91.8844 265.868 91.7644 264.548 91.7644C264.468 91.7644 264.428 91.6444 264.428 91.4044C264.428 91.1644 264.468 91.0444 264.548 91.0444H285.428C285.828 91.0444 286.028 91.2044 286.028 91.5244L286.088 95.2444C286.128 96.0044 286.148 96.9644 286.148 98.1244C286.148 98.2444 286.028 98.3044 285.788 98.3044C285.548 98.3044 285.428 98.2444 285.428 98.1244C285.268 96.2844 284.588 94.7844 283.388 93.6244C282.228 92.4244 280.788 91.8244 279.068 91.8244H277.388C275.988 91.8244 274.968 91.9444 274.328 92.1844C273.688 92.3844 273.248 92.7644 273.008 93.3244C272.768 93.8844 272.648 94.7644 272.648 95.9644V104.184C276.528 104.144 279.168 104.044 280.568 103.884C282.008 103.684 282.828 103.584 283.028 103.584C283.228 103.584 283.328 104.004 283.328 104.844C283.328 105.764 283.228 106.224 283.028 106.224C282.868 106.224 282.068 106.124 280.628 105.924C279.188 105.684 276.528 105.524 272.648 105.444V114.024C272.648 115.184 272.768 116.064 273.008 116.664C273.248 117.224 273.688 117.624 274.328 117.864C275.008 118.064 276.028 118.164 277.388 118.164H280.268C281.868 118.164 283.308 117.524 284.588 116.244C285.868 114.924 286.728 113.224 287.168 111.144ZM301.38 114.024C301.38 115.184 301.5 116.024 301.74 116.544C301.98 117.064 302.42 117.424 303.06 117.624C303.7 117.784 304.74 117.864 306.18 117.864H312.72C315 117.864 316.82 117.164 318.18 115.764C319.54 114.364 320.44 112.424 320.88 109.944C320.88 109.824 320.98 109.784 321.18 109.824C321.42 109.824 321.54 109.884 321.54 110.004C321.18 113.324 321 116.064 321 118.224C321 118.544 320.94 118.784 320.82 118.944C320.7 119.064 320.46 119.124 320.1 119.124H292.38C292.3 119.124 292.26 119.004 292.26 118.764C292.26 118.524 292.3 118.404 292.38 118.404C293.9 118.404 295 118.304 295.68 118.104C296.4 117.904 296.88 117.524 297.12 116.964C297.36 116.364 297.48 115.464 297.48 114.264V86.4844C297.48 85.2844 297.36 84.4044 297.12 83.8444C296.88 83.2844 296.4 82.9044 295.68 82.7044C295 82.4644 293.9 82.3444 292.38 82.3444C292.3 82.3444 292.26 82.2244 292.26 81.9844C292.26 81.7444 292.3 81.6244 292.38 81.6244L295.32 81.6844C297 81.7644 298.36 81.8044 299.4 81.8044C300.52 81.8044 301.92 81.7644 303.6 81.6844L306.48 81.6244C306.6 81.6244 306.66 81.7444 306.66 81.9844C306.66 82.2244 306.6 82.3444 306.48 82.3444C305 82.3444 303.9 82.4644 303.18 82.7044C302.5 82.9044 302.02 83.3044 301.74 83.9044C301.5 84.4644 301.38 85.3444 301.38 86.5444V114.024ZM346.992 111.144C346.992 111.024 347.092 110.964 347.292 110.964C347.532 110.964 347.652 111.024 347.652 111.144C347.372 114.024 347.232 116.384 347.232 118.224C347.232 118.544 347.172 118.784 347.052 118.944C346.932 119.064 346.692 119.124 346.332 119.124H324.372C324.292 119.124 324.252 119.004 324.252 118.764C324.252 118.524 324.292 118.404 324.372 118.404C325.692 118.404 326.652 118.304 327.252 118.104C327.852 117.904 328.252 117.524 328.452 116.964C328.692 116.364 328.812 115.464 328.812 114.264V95.9044C328.812 94.7044 328.692 93.8244 328.452 93.2644C328.252 92.7044 327.852 92.3244 327.252 92.1244C326.652 91.8844 325.692 91.7644 324.372 91.7644C324.292 91.7644 324.252 91.6444 324.252 91.4044C324.252 91.1644 324.292 91.0444 324.372 91.0444H345.252C345.652 91.0444 345.852 91.2044 345.852 91.5244L345.912 95.2444C345.952 96.0044 345.972 96.9644 345.972 98.1244C345.972 98.2444 345.852 98.3044 345.612 98.3044C345.372 98.3044 345.252 98.2444 345.252 98.1244C345.092 96.2844 344.412 94.7844 343.212 93.6244C342.052 92.4244 340.612 91.8244 338.892 91.8244H337.212C335.812 91.8244 334.792 91.9444 334.152 92.1844C333.512 92.3844 333.072 92.7644 332.832 93.3244C332.592 93.8844 332.472 94.7644 332.472 95.9644V104.184C336.352 104.144 338.992 104.044 340.392 103.884C341.832 103.684 342.652 103.584 342.852 103.584C343.052 103.584 343.152 104.004 343.152 104.844C343.152 105.764 343.052 106.224 342.852 106.224C342.692 106.224 341.892 106.124 340.452 105.924C339.012 105.684 336.352 105.524 332.472 105.444V114.024C332.472 115.184 332.592 116.064 332.832 116.664C333.072 117.224 333.512 117.624 334.152 117.864C334.832 118.064 335.852 118.164 337.212 118.164H340.092C341.692 118.164 343.132 117.524 344.412 116.244C345.692 114.924 346.552 113.224 346.992 111.144ZM367.924 119.844C364.724 119.844 361.924 119.184 359.524 117.864C357.164 116.504 355.364 114.724 354.124 112.524C352.884 110.324 352.264 108.004 352.264 105.564C352.264 102.444 352.964 99.7444 354.364 97.4644C355.764 95.1444 357.764 93.3844 360.364 92.1844C362.964 90.9444 366.024 90.3244 369.544 90.3244C371.224 90.3244 372.824 90.4844 374.344 90.8044C375.864 91.1244 377.144 91.5844 378.184 92.1844C378.424 92.3044 378.564 92.4644 378.604 92.6644C378.684 92.8644 378.744 93.1444 378.784 93.5044L379.384 99.1444C379.384 99.2644 379.264 99.3444 379.024 99.3844C378.824 99.3844 378.704 99.3244 378.664 99.2044C377.784 96.4444 376.464 94.4244 374.704 93.1444C372.944 91.8644 370.744 91.2244 368.104 91.2244C364.584 91.2244 361.764 92.4444 359.644 94.8844C357.564 97.2844 356.524 100.584 356.524 104.784C356.524 107.544 357.044 110.004 358.084 112.164C359.124 114.284 360.604 115.944 362.524 117.144C364.484 118.344 366.764 118.944 369.364 118.944C371.364 118.944 372.824 118.764 373.744 118.404C374.704 118.044 375.344 117.364 375.664 116.364C375.984 115.324 376.144 113.724 376.144 111.564C376.144 110.524 376.024 109.804 375.784 109.404C375.584 108.964 375.124 108.684 374.404 108.564C373.724 108.404 372.524 108.324 370.804 108.324C370.564 108.324 370.444 108.164 370.444 107.844C370.444 107.724 370.464 107.624 370.504 107.544C370.584 107.424 370.664 107.364 370.744 107.364C372.824 107.524 374.924 107.604 377.044 107.604C378.004 107.604 379.604 107.564 381.844 107.484C381.924 107.484 381.984 107.544 382.024 107.664C382.104 107.744 382.144 107.824 382.144 107.904C382.144 108.184 382.044 108.324 381.844 108.324C381.044 108.284 380.484 108.344 380.164 108.504C379.844 108.664 379.644 109.004 379.564 109.524C379.484 110.004 379.444 110.884 379.444 112.164C379.444 113.964 379.484 115.224 379.564 115.944C379.644 116.664 379.684 117.164 379.684 117.444C379.684 117.684 379.644 117.844 379.564 117.924C379.524 117.964 379.344 118.044 379.024 118.164C376.384 119.284 372.684 119.844 367.924 119.844ZM416.862 118.404C417.022 118.404 417.102 118.524 417.102 118.764C417.102 119.004 417.022 119.124 416.862 119.124C416.142 119.124 414.982 119.084 413.382 119.004C411.782 118.924 410.622 118.884 409.902 118.884C409.262 118.884 408.422 118.924 407.382 119.004C406.342 119.084 405.542 119.124 404.982 119.124C404.822 119.124 404.742 119.004 404.742 118.764C404.742 118.524 404.822 118.404 404.982 118.404C406.022 118.404 406.782 118.284 407.262 118.044C407.782 117.764 408.042 117.284 408.042 116.604C408.042 116.004 407.802 115.164 407.322 114.084L403.242 105.324H394.842L392.262 111.744C391.622 113.264 391.302 114.524 391.302 115.524C391.302 116.564 391.662 117.304 392.382 117.744C393.102 118.184 394.202 118.404 395.682 118.404C395.882 118.404 395.982 118.524 395.982 118.764C395.982 119.004 395.882 119.124 395.682 119.124C395.082 119.124 394.262 119.084 393.222 119.004C392.102 118.924 391.062 118.884 390.102 118.884C389.102 118.884 387.922 118.924 386.562 119.004C385.362 119.084 384.402 119.124 383.682 119.124C383.482 119.124 383.382 119.004 383.382 118.764C383.382 118.524 383.482 118.404 383.682 118.404C384.922 118.404 385.902 118.244 386.622 117.924C387.342 117.564 388.002 116.884 388.602 115.884C389.242 114.884 390.002 113.324 390.882 111.204L399.522 90.1444C399.602 89.9844 399.722 89.9044 399.882 89.9044C400.042 89.9044 400.142 89.9844 400.182 90.1444L409.842 110.904C410.882 113.144 411.702 114.764 412.302 115.764C412.942 116.764 413.582 117.464 414.222 117.864C414.902 118.224 415.782 118.404 416.862 118.404ZM395.262 104.244H402.762L398.742 95.6044L395.262 104.244ZM427.218 114.024C427.218 115.184 427.318 116.044 427.518 116.604C427.758 117.164 428.178 117.564 428.778 117.804C429.418 118.044 430.358 118.164 431.598 118.164H435.558C437.678 118.164 439.358 117.504 440.598 116.184C441.878 114.864 442.738 113.044 443.178 110.724C443.178 110.644 443.258 110.604 443.418 110.604C443.538 110.604 443.638 110.624 443.718 110.664C443.838 110.704 443.898 110.764 443.898 110.844C443.618 112.684 443.478 115.144 443.478 118.224C443.478 118.544 443.398 118.784 443.238 118.944C443.118 119.064 442.898 119.124 442.578 119.124H419.118C419.038 119.124 418.998 119.004 418.998 118.764C418.998 118.524 419.038 118.404 419.118 118.404C420.438 118.404 421.398 118.304 421.998 118.104C422.598 117.904 422.998 117.524 423.198 116.964C423.398 116.364 423.498 115.464 423.498 114.264V95.9044C423.498 94.7044 423.378 93.8244 423.138 93.2644C422.938 92.7044 422.538 92.3244 421.938 92.1244C421.338 91.8844 420.398 91.7644 419.118 91.7644C419.038 91.7644 418.998 91.6444 418.998 91.4044C418.998 91.1644 419.038 91.0444 419.118 91.0444L421.818 91.1044C423.338 91.1844 424.518 91.2244 425.358 91.2244C426.358 91.2244 427.618 91.1844 429.138 91.1044L431.658 91.0444C431.778 91.0444 431.838 91.1644 431.838 91.4044C431.838 91.6444 431.778 91.7644 431.658 91.7644C430.338 91.7644 429.378 91.8844 428.778 92.1244C428.178 92.3244 427.758 92.7244 427.518 93.3244C427.318 93.8844 427.218 94.7644 427.218 95.9644V114.024Z" fill="#175A80"/>
<path d="M342.059 142.451C341.512 142.451 341.075 142.287 340.747 141.959C340.419 141.631 340.255 141.207 340.255 140.688C340.255 140.169 340.419 139.759 340.747 139.458C341.075 139.13 341.512 138.966 342.059 138.966C342.633 138.966 343.07 139.116 343.371 139.417C343.699 139.718 343.863 140.141 343.863 140.688C343.863 141.235 343.699 141.672 343.371 142C343.07 142.301 342.633 142.451 342.059 142.451ZM368.884 141.508C368.993 141.508 369.048 141.59 369.048 141.754C369.048 141.918 368.993 142 368.884 142C368.392 142 367.599 141.973 366.506 141.918C365.413 141.863 364.62 141.836 364.128 141.836C363.691 141.836 363.117 141.863 362.406 141.918C361.695 141.973 361.149 142 360.766 142C360.657 142 360.602 141.918 360.602 141.754C360.602 141.59 360.657 141.508 360.766 141.508C361.477 141.508 361.996 141.426 362.324 141.262C362.679 141.071 362.857 140.743 362.857 140.278C362.857 139.868 362.693 139.294 362.365 138.556L359.577 132.57H353.837L352.074 136.957C351.637 137.996 351.418 138.857 351.418 139.54C351.418 140.251 351.664 140.756 352.156 141.057C352.648 141.358 353.4 141.508 354.411 141.508C354.548 141.508 354.616 141.59 354.616 141.754C354.616 141.918 354.548 142 354.411 142C354.001 142 353.441 141.973 352.73 141.918C351.965 141.863 351.254 141.836 350.598 141.836C349.915 141.836 349.108 141.863 348.179 141.918C347.359 141.973 346.703 142 346.211 142C346.074 142 346.006 141.918 346.006 141.754C346.006 141.59 346.074 141.508 346.211 141.508C347.058 141.508 347.728 141.399 348.22 141.18C348.712 140.934 349.163 140.469 349.573 139.786C350.01 139.103 350.53 138.037 351.131 136.588L357.035 122.197C357.09 122.088 357.172 122.033 357.281 122.033C357.39 122.033 357.459 122.088 357.486 122.197L364.087 136.383C364.798 137.914 365.358 139.021 365.768 139.704C366.205 140.387 366.643 140.866 367.08 141.139C367.545 141.385 368.146 141.508 368.884 141.508ZM354.124 131.832H359.249L356.502 125.928L354.124 131.832ZM385.144 125.682C385.172 126.201 385.185 126.857 385.185 127.65C385.185 127.732 385.103 127.773 384.939 127.773C384.775 127.773 384.693 127.732 384.693 127.65C384.557 126.338 384.106 125.299 383.34 124.534C382.575 123.741 381.577 123.345 380.347 123.345H379.199C378.243 123.345 377.546 123.427 377.108 123.591C376.671 123.728 376.37 123.987 376.206 124.37C376.042 124.753 375.96 125.354 375.96 126.174V132.242C378.584 132.215 380.375 132.146 381.331 132.037C382.315 131.928 382.876 131.873 383.012 131.873C383.149 131.873 383.217 132.16 383.217 132.734C383.217 133.363 383.149 133.677 383.012 133.677C382.903 133.677 382.356 133.609 381.372 133.472C380.416 133.308 378.612 133.199 375.96 133.144V138.515C375.96 139.39 376.056 140.032 376.247 140.442C376.439 140.825 376.808 141.098 377.354 141.262C377.928 141.426 378.817 141.508 380.019 141.508C380.101 141.508 380.142 141.59 380.142 141.754C380.142 141.918 380.101 142 380.019 142C379.035 142 378.284 141.986 377.764 141.959L374.689 141.918L372.475 141.959C372.011 141.986 371.327 142 370.425 142C370.371 142 370.343 141.918 370.343 141.754C370.343 141.59 370.371 141.508 370.425 141.508C371.327 141.508 371.983 141.44 372.393 141.303C372.803 141.166 373.077 140.907 373.213 140.524C373.377 140.114 373.459 139.499 373.459 138.679V126.133C373.459 125.313 373.377 124.712 373.213 124.329C373.077 123.946 372.803 123.687 372.393 123.55C371.983 123.386 371.327 123.304 370.425 123.304C370.371 123.304 370.343 123.222 370.343 123.058C370.343 122.894 370.371 122.812 370.425 122.812H384.693C384.967 122.812 385.103 122.921 385.103 123.14L385.144 125.682ZM408.75 141.508C408.805 141.508 408.832 141.59 408.832 141.754C408.832 141.918 408.805 142 408.75 142H403.953C403.461 142 402.587 141.18 401.329 139.54C400.099 137.9 398.61 135.631 396.86 132.734C396.341 132.843 395.753 132.898 395.097 132.898C394.414 132.898 393.895 132.871 393.539 132.816V138.679C393.539 139.526 393.608 140.141 393.744 140.524C393.881 140.907 394.154 141.166 394.564 141.303C394.974 141.44 395.644 141.508 396.573 141.508C396.628 141.508 396.655 141.59 396.655 141.754C396.655 141.918 396.628 142 396.573 142C395.808 142 395.22 141.986 394.81 141.959L392.227 141.918L389.808 141.959C389.344 141.986 388.715 142 387.922 142C387.868 142 387.84 141.918 387.84 141.754C387.84 141.59 387.868 141.508 387.922 141.508C388.824 141.508 389.48 141.44 389.89 141.303C390.328 141.166 390.628 140.907 390.792 140.524C390.956 140.114 391.038 139.499 391.038 138.679V126.133C391.038 125.313 390.956 124.712 390.792 124.329C390.656 123.946 390.369 123.687 389.931 123.55C389.521 123.386 388.865 123.304 387.963 123.304C387.909 123.304 387.881 123.222 387.881 123.058C387.881 122.894 387.909 122.812 387.963 122.812L389.849 122.853C390.833 122.908 391.626 122.935 392.227 122.935C392.719 122.935 393.17 122.921 393.58 122.894C394.018 122.867 394.387 122.839 394.687 122.812C395.535 122.73 396.341 122.689 397.106 122.689C398.883 122.689 400.236 123.031 401.165 123.714C402.095 124.397 402.559 125.381 402.559 126.666C402.559 127.759 402.245 128.771 401.616 129.7C400.988 130.629 400.14 131.381 399.074 131.955C400.605 134.47 401.89 136.41 402.928 137.777C403.994 139.116 404.965 140.073 405.839 140.647C406.741 141.221 407.712 141.508 408.75 141.508ZM393.539 132.078C394.031 132.16 394.646 132.201 395.384 132.201C397.079 132.201 398.254 131.832 398.91 131.094C399.594 130.329 399.935 129.222 399.935 127.773C399.935 124.766 398.637 123.263 396.04 123.263C395.002 123.263 394.318 123.482 393.99 123.919C393.69 124.356 393.539 125.122 393.539 126.215V132.078ZM415.647 138.679C415.647 139.526 415.715 140.141 415.852 140.524C416.016 140.907 416.303 141.166 416.713 141.303C417.123 141.44 417.792 141.508 418.722 141.508C418.776 141.508 418.804 141.59 418.804 141.754C418.804 141.918 418.776 142 418.722 142C417.956 142 417.355 141.986 416.918 141.959L414.335 141.918L411.916 141.959C411.451 141.986 410.822 142 410.03 142C409.975 142 409.948 141.918 409.948 141.754C409.948 141.59 409.975 141.508 410.03 141.508C410.959 141.508 411.629 141.44 412.039 141.303C412.449 141.166 412.722 140.907 412.859 140.524C413.023 140.141 413.105 139.526 413.105 138.679V126.133C413.105 125.313 413.023 124.712 412.859 124.329C412.722 123.946 412.435 123.687 411.998 123.55C411.588 123.386 410.932 123.304 410.03 123.304C409.975 123.304 409.948 123.222 409.948 123.058C409.948 122.894 409.975 122.812 410.03 122.812L411.916 122.853C412.9 122.908 413.706 122.935 414.335 122.935C415.045 122.935 415.92 122.908 416.959 122.853L418.722 122.812C418.776 122.812 418.804 122.894 418.804 123.058C418.804 123.222 418.776 123.304 418.722 123.304C417.847 123.304 417.191 123.386 416.754 123.55C416.316 123.714 416.016 124.001 415.852 124.411C415.715 124.794 415.647 125.395 415.647 126.215V138.679ZM433.111 122.32C434.15 122.32 435.257 122.429 436.432 122.648C437.635 122.867 438.605 123.154 439.343 123.509C439.535 123.591 439.658 123.673 439.712 123.755C439.767 123.837 439.808 123.987 439.835 124.206L440.245 128.429C440.245 128.511 440.163 128.566 439.999 128.593C439.863 128.62 439.781 128.579 439.753 128.47C439.261 126.584 438.359 125.19 437.047 124.288C435.763 123.386 434.164 122.935 432.25 122.935C430.829 122.935 429.544 123.318 428.396 124.083C427.276 124.848 426.387 125.901 425.731 127.24C425.103 128.552 424.788 130.042 424.788 131.709C424.788 133.404 425.103 135.044 425.731 136.629C426.387 138.187 427.358 139.458 428.642 140.442C429.954 141.426 431.526 141.918 433.357 141.918C436.801 141.918 439.056 140.032 440.122 136.26C440.122 136.178 440.191 136.137 440.327 136.137C440.382 136.137 440.437 136.164 440.491 136.219C440.573 136.246 440.614 136.274 440.614 136.301L440.081 140.647C440.054 140.866 440.013 141.016 439.958 141.098C439.904 141.18 439.753 141.276 439.507 141.385C437.403 142.123 435.216 142.492 432.947 142.492C430.351 142.492 428.219 141.973 426.551 140.934C424.884 139.895 423.681 138.597 422.943 137.039C422.205 135.481 421.836 133.909 421.836 132.324C421.836 130.465 422.328 128.771 423.312 127.24C424.296 125.709 425.649 124.507 427.371 123.632C429.093 122.757 431.007 122.32 433.111 122.32ZM465.218 141.508C465.327 141.508 465.382 141.59 465.382 141.754C465.382 141.918 465.327 142 465.218 142C464.726 142 463.933 141.973 462.84 141.918C461.747 141.863 460.954 141.836 460.462 141.836C460.025 141.836 459.451 141.863 458.74 141.918C458.029 141.973 457.483 142 457.1 142C456.991 142 456.936 141.918 456.936 141.754C456.936 141.59 456.991 141.508 457.1 141.508C457.811 141.508 458.33 141.426 458.658 141.262C459.013 141.071 459.191 140.743 459.191 140.278C459.191 139.868 459.027 139.294 458.699 138.556L455.911 132.57H450.171L448.408 136.957C447.971 137.996 447.752 138.857 447.752 139.54C447.752 140.251 447.998 140.756 448.49 141.057C448.982 141.358 449.734 141.508 450.745 141.508C450.882 141.508 450.95 141.59 450.95 141.754C450.95 141.918 450.882 142 450.745 142C450.335 142 449.775 141.973 449.064 141.918C448.299 141.863 447.588 141.836 446.932 141.836C446.249 141.836 445.442 141.863 444.513 141.918C443.693 141.973 443.037 142 442.545 142C442.408 142 442.34 141.918 442.34 141.754C442.34 141.59 442.408 141.508 442.545 141.508C443.392 141.508 444.062 141.399 444.554 141.18C445.046 140.934 445.497 140.469 445.907 139.786C446.344 139.103 446.864 138.037 447.465 136.588L453.369 122.197C453.424 122.088 453.506 122.033 453.615 122.033C453.724 122.033 453.793 122.088 453.82 122.197L460.421 136.383C461.132 137.914 461.692 139.021 462.102 139.704C462.539 140.387 462.977 140.866 463.414 141.139C463.879 141.385 464.48 141.508 465.218 141.508ZM450.458 131.832H455.583L452.836 125.928L450.458 131.832Z" fill="#175A80"/>
</svg>
