<svg width="903" height="645" viewBox="0 0 903 645" fill="none" xmlns="http://www.w3.org/2000/svg">
<rect x="441" y="483" width="177" height="161" fill="#E5E5E5" fill-opacity="0.25"/>
<rect y="83" width="147" height="134" fill="#87C38F" fill-opacity="0.25"/>
<rect width="142" height="116" transform="matrix(-1 0 0 1 759 116)" fill="#C4C4C4" fill-opacity="0.59"/>
<rect x="-0.5" y="0.5" width="142" height="116" transform="matrix(-1 0 0 1 616 230)" stroke="#BACAE6"/>
<rect x="-0.5" y="0.5" width="146" height="132" transform="matrix(-1 0 0 1 293 217)" stroke="#BACAE6"/>
<rect width="143" height="115" transform="matrix(-1 0 0 1 902 230)" stroke="#E5E5E5"/>
<rect width="143" height="115" transform="matrix(-1 0 0 1 902 1)" stroke="#E5E5E5"/>
<rect width="163" height="132" transform="matrix(-1 0 0 1 175 512)" stroke="#E5E5E5"/>
<rect x="617" y="347" width="142" height="136" fill="#E5E5E5" fill-opacity="0.25"/>
</svg>
