<svg width="978" height="645" viewBox="0 0 978 645" fill="none" xmlns="http://www.w3.org/2000/svg">
<path d="M10.9393 551.061C11.5251 551.646 12.4749 551.646 13.0607 551.061L22.6066 541.515C23.1924 540.929 23.1924 539.979 22.6066 539.393C22.0208 538.808 21.0711 538.808 20.4853 539.393L12 547.879L3.51472 539.393C2.92893 538.808 1.97918 538.808 1.3934 539.393C0.807612 539.979 0.807612 540.929 1.3934 541.515L10.9393 551.061ZM10.5 490L10.5 550H13.5L13.5 490H10.5Z" fill="white" fill-opacity="0.89"/>
<rect x="516" y="483" width="177" height="161" fill="#E5E5E5" fill-opacity="0.25"/>
<rect x="75" y="83" width="147" height="134" fill="#87C38F" fill-opacity="0.25"/>
<rect width="142" height="116" transform="matrix(-1 0 0 1 834 116)" fill="#C4C4C4" fill-opacity="0.59"/>
<rect x="-0.5" y="0.5" width="142" height="116" transform="matrix(-1 0 0 1 691 230)" stroke="#BACAE6"/>
<rect x="-0.5" y="0.5" width="146" height="132" transform="matrix(-1 0 0 1 368 217)" stroke="#BACAE6"/>
<rect width="143" height="115" transform="matrix(-1 0 0 1 977 230)" stroke="#E5E5E5"/>
<rect width="143" height="115" transform="matrix(-1 0 0 1 977 1)" stroke="#E5E5E5"/>
<rect width="163" height="132" transform="matrix(-1 0 0 1 250 512)" stroke="#E5E5E5"/>
<rect x="692" y="347" width="142" height="136" fill="#E5E5E5" fill-opacity="0.25"/>
</svg>
